{"glyphs":{"0":{"ha":919,"x_min":163,"x_max":919,"o":"m 369 0 q 220 42 278 0 q 163 175 163 85 q 167 225 163 199 l 257 800 q 351 967 274 908 q 532 1025 428 1025 l 718 1025 q 871 978 822 1025 q 919 851 919 932 q 915 800 919 828 l 825 225 q 556 0 789 0 l 369 0 m 560 31 q 792 225 760 31 l 882 800 q 886 846 886 825 q 842 956 886 918 q 713 994 799 994 l 526 994 q 369 942 433 994 q 290 800 304 890 l 200 225 q 196 183 196 203 q 243 70 196 110 q 374 31 290 31 l 560 31 z "},"1":{"ha":492,"x_min":217,"x_max":503,"o":"m 464 979 l 217 894 l 221 917 l 469 1017 l 503 1017 l 342 0 l 308 0 l 464 979 z "},"2":{"ha":831,"x_min":85,"x_max":838,"o":"m 89 31 l 528 410 q 804 831 804 650 q 749 951 804 908 q 556 994 693 994 l 288 994 l 292 1017 l 358 1019 q 572 1025 494 1025 q 838 831 838 1025 q 766 631 838 742 q 547 390 694 519 l 140 33 l 757 33 l 751 0 l 85 0 l 89 31 z "},"3":{"ha":819,"x_min":67,"x_max":806,"o":"m 418 -8 q 67 0 188 -8 l 71 22 l 421 22 q 696 224 658 22 q 714 343 714 318 q 658 456 714 419 q 525 494 601 492 l 257 504 l 261 524 l 532 532 q 681 575 622 535 q 754 700 740 615 q 772 835 772 810 q 718 953 772 911 q 563 994 664 994 l 268 994 l 272 1017 q 576 1025 375 1025 q 749 975 693 1025 q 806 840 806 925 q 788 700 806 811 q 741 593 776 635 q 665 533 706 551 q 596 514 624 515 q 659 492 624 510 q 721 437 694 474 q 747 346 747 400 q 729 224 747 332 q 631 51 711 110 q 418 -8 550 -8 z "},"4":{"ha":799,"x_min":92,"x_max":813,"o":"m 608 294 l 101 294 l 92 326 l 628 1017 l 663 1017 l 126 325 l 613 325 l 665 656 l 688 732 l 710 732 l 646 325 l 813 325 l 810 303 l 642 294 l 594 3 l 561 3 l 608 294 z "},"5":{"ha":901,"x_min":185,"x_max":924,"o":"m 494 -6 q 185 3 276 -6 l 189 25 l 497 25 q 695 79 610 25 q 796 233 781 133 l 818 379 q 822 426 822 404 q 774 541 822 500 q 629 582 725 582 l 497 582 q 285 433 335 582 l 254 433 l 375 1017 l 924 1017 l 918 986 l 400 986 l 304 521 q 377 585 324 558 q 506 613 431 613 l 635 613 q 798 563 740 613 q 856 429 856 513 q 853 382 856 415 l 828 231 q 717 57 811 119 q 494 -6 622 -6 z "},"6":{"ha":883,"x_min":183,"x_max":872,"o":"m 383 -1 q 235 62 286 -1 q 183 283 183 125 q 230 647 183 478 q 376 920 276 815 q 625 1025 475 1025 q 813 1019 685 1025 l 872 1017 l 868 994 l 607 994 q 450 943 525 994 q 319 788 375 892 q 240 535 264 685 q 564 543 390 543 q 762 510 693 543 q 831 388 831 476 q 826 346 831 369 l 804 206 q 717 48 788 97 q 549 -1 646 -1 l 383 -1 m 553 29 q 699 67 640 29 q 772 203 757 104 l 794 346 q 799 383 799 367 q 740 486 799 460 q 560 513 681 513 l 236 513 q 215 279 215 371 q 259 85 215 140 q 388 29 303 29 l 553 29 z "},"7":{"ha":743,"x_min":225,"x_max":842,"o":"m 803 983 l 225 983 l 231 1017 l 825 1017 l 842 985 l 286 0 l 247 0 l 803 983 z "},"8":{"ha":910,"x_min":167,"x_max":885,"o":"m 371 0 q 219 38 271 0 q 167 150 167 76 q 169 186 167 161 l 193 338 q 259 458 206 414 q 365 513 313 501 q 291 573 315 535 q 267 660 267 611 q 269 693 267 671 l 288 811 q 371 972 306 919 q 533 1024 436 1024 l 722 1024 q 844 988 804 1024 q 885 874 885 951 q 879 811 885 843 l 861 693 q 814 589 853 636 q 721 524 775 542 q 801 476 772 514 q 829 385 829 439 q 826 350 829 375 l 800 186 q 724 48 786 96 q 558 0 661 0 l 371 0 m 633 533 q 732 557 690 533 q 797 616 774 581 q 826 686 821 651 l 846 808 q 851 868 851 838 q 819 963 851 933 q 717 993 786 993 l 528 993 q 385 949 433 993 q 321 808 336 904 l 301 686 q 300 661 300 678 q 339 569 300 606 q 454 533 378 533 l 633 533 m 563 31 q 767 182 742 31 l 792 342 q 796 389 796 369 q 757 477 796 451 q 628 503 718 503 l 449 503 q 362 487 410 503 q 275 435 314 471 q 228 342 236 399 l 203 182 q 200 154 200 163 q 248 60 200 90 q 375 31 296 31 l 563 31 z "},"9":{"ha":883,"x_min":172,"x_max":861,"o":"m 661 1021 q 810 958 758 1021 q 861 736 861 894 q 815 373 861 542 q 669 99 768 204 q 419 -6 569 -6 q 232 0 360 -6 l 172 3 l 176 25 l 438 25 q 594 76 519 25 q 725 231 669 128 q 804 485 781 335 q 481 476 654 476 q 283 510 351 476 q 214 632 214 543 q 218 674 214 651 l 240 814 q 328 972 257 922 q 496 1021 399 1021 l 661 1021 m 492 990 q 346 953 404 990 q 272 817 288 915 l 250 674 q 246 636 246 653 q 305 533 246 560 q 485 507 364 507 l 808 507 q 829 740 829 649 q 785 935 829 879 q 657 990 742 990 l 492 990 z "},"\u0000":{"ha":0,"x_min":0,"x_max":0,"o":""},"\r":{"ha":325,"x_min":0,"x_max":0,"o":""}," ":{"ha":325,"x_min":0,"x_max":0,"o":""},"A":{"ha":917,"x_min":63,"x_max":854,"o":"m 604 1017 l 651 1017 l 854 0 l 819 0 l 749 353 l 286 353 l 97 0 l 63 0 l 604 1017 m 743 383 l 622 981 l 303 383 l 743 383 z "},"Á":{"ha":917,"x_min":63,"x_max":854,"o":"m 604 1017 l 651 1017 l 854 0 l 819 0 l 749 353 l 286 353 l 97 0 l 63 0 l 604 1017 m 743 383 l 622 981 l 303 383 l 743 383 m 801 1283 l 838 1283 l 624 1099 l 604 1099 l 801 1283 z "},"Ă":{"ha":917,"x_min":63,"x_max":854,"o":"m 604 1017 l 651 1017 l 854 0 l 819 0 l 749 353 l 286 353 l 97 0 l 63 0 l 604 1017 m 743 383 l 622 981 l 303 383 l 743 383 m 628 1101 q 524 1134 565 1101 q 482 1242 482 1167 q 485 1288 482 1254 l 504 1288 q 501 1246 501 1257 q 536 1151 501 1182 q 628 1121 571 1121 q 748 1160 697 1121 q 813 1288 799 1200 l 832 1288 q 759 1143 815 1185 q 628 1101 703 1101 z "},"Ắ":{"ha":917,"x_min":63,"x_max":854,"o":"m 604 1017 l 651 1017 l 854 0 l 819 0 l 749 353 l 286 353 l 97 0 l 63 0 l 604 1017 m 743 383 l 622 981 l 303 383 l 743 383 m 815 1422 l 851 1422 l 638 1238 l 618 1238 l 815 1422 m 617 1101 q 508 1128 551 1101 q 464 1217 464 1156 q 467 1246 464 1226 l 486 1246 q 485 1222 485 1238 q 521 1146 485 1171 q 615 1121 557 1121 q 730 1147 676 1121 q 794 1246 783 1174 l 814 1246 q 747 1133 801 1165 q 617 1101 692 1101 z "},"Ặ":{"ha":917,"x_min":63,"x_max":854,"o":"m 604 1017 l 651 1017 l 854 0 l 819 0 l 749 353 l 286 353 l 97 0 l 63 0 l 604 1017 m 743 383 l 622 981 l 303 383 l 743 383 m 628 1101 q 524 1134 565 1101 q 482 1242 482 1167 q 485 1288 482 1254 l 504 1288 q 501 1246 501 1257 q 536 1151 501 1182 q 628 1121 571 1121 q 748 1160 697 1121 q 813 1288 799 1200 l 832 1288 q 759 1143 815 1185 q 628 1101 703 1101 m 396 -274 q 382 -260 382 -274 l 382 -257 l 396 -171 q 415 -154 397 -154 l 431 -154 q 444 -167 444 -154 l 444 -171 l 431 -257 q 411 -274 428 -274 l 396 -274 z "},"Ằ":{"ha":917,"x_min":63,"x_max":854,"o":"m 604 1017 l 651 1017 l 854 0 l 819 0 l 749 353 l 286 353 l 97 0 l 63 0 l 604 1017 m 743 383 l 622 981 l 303 383 l 743 383 m 508 1422 l 544 1422 l 683 1238 l 664 1238 l 508 1422 m 617 1101 q 508 1128 551 1101 q 464 1217 464 1156 q 467 1246 464 1226 l 486 1246 q 485 1222 485 1238 q 521 1146 485 1171 q 615 1121 557 1121 q 794 1246 775 1121 l 814 1246 q 747 1133 801 1165 q 617 1101 692 1101 z "},"Ẳ":{"ha":917,"x_min":63,"x_max":854,"o":"m 604 1017 l 651 1017 l 854 0 l 819 0 l 749 353 l 286 353 l 97 0 l 63 0 l 604 1017 m 743 383 l 622 981 l 303 383 l 743 383 m 610 1200 q 724 1324 724 1235 q 654 1383 724 1383 q 599 1375 626 1383 l 601 1394 q 661 1403 628 1403 q 746 1325 746 1403 q 712 1239 746 1278 q 606 1181 678 1200 l 610 1200 m 617 1101 q 508 1128 551 1101 q 464 1217 464 1156 q 467 1246 464 1226 l 486 1246 q 485 1222 485 1238 q 521 1146 485 1171 q 615 1121 557 1121 q 731 1147 679 1121 q 794 1246 783 1174 l 814 1246 q 747 1133 801 1165 q 617 1101 692 1101 z "},"Ẵ":{"ha":917,"x_min":63,"x_max":903,"o":"m 604 1017 l 651 1017 l 854 0 l 819 0 l 749 353 l 286 353 l 97 0 l 63 0 l 604 1017 m 743 383 l 622 981 l 303 383 l 743 383 m 443 1293 q 488 1366 451 1343 q 567 1389 524 1389 q 619 1380 596 1389 q 681 1351 643 1371 q 735 1324 714 1333 q 782 1315 756 1315 q 849 1335 821 1315 q 883 1389 878 1354 l 903 1389 q 862 1319 896 1346 q 775 1293 828 1293 q 726 1302 749 1293 q 669 1329 704 1311 q 613 1357 638 1347 q 561 1367 589 1367 q 496 1349 524 1367 q 463 1293 468 1331 l 443 1293 m 625 1101 q 516 1128 560 1101 q 472 1217 472 1156 q 475 1246 472 1226 l 494 1246 q 493 1222 493 1238 q 529 1146 493 1171 q 624 1121 565 1121 q 742 1147 693 1121 q 803 1246 790 1172 l 822 1246 q 755 1133 810 1165 q 625 1101 700 1101 z "},"Â":{"ha":917,"x_min":63,"x_max":854,"o":"m 604 1017 l 651 1017 l 854 0 l 819 0 l 749 353 l 286 353 l 97 0 l 63 0 l 604 1017 m 743 383 l 622 981 l 303 383 l 743 383 m 642 1279 l 669 1279 l 807 1099 l 782 1099 l 651 1258 l 454 1099 l 429 1099 l 642 1279 z "},"Ấ":{"ha":917,"x_min":63,"x_max":990,"o":"m 604 1017 l 651 1017 l 854 0 l 819 0 l 749 353 l 286 353 l 97 0 l 63 0 l 604 1017 m 743 383 l 622 981 l 303 383 l 743 383 m 954 1381 l 990 1381 l 776 1196 l 757 1196 l 954 1381 m 636 1224 l 664 1224 l 811 1099 l 786 1099 l 647 1203 l 458 1099 l 433 1099 l 636 1224 z "},"Ậ":{"ha":917,"x_min":63,"x_max":854,"o":"m 604 1017 l 651 1017 l 854 0 l 819 0 l 749 353 l 286 353 l 97 0 l 63 0 l 604 1017 m 743 383 l 622 981 l 303 383 l 743 383 m 642 1279 l 669 1279 l 807 1099 l 782 1099 l 651 1258 l 454 1099 l 429 1099 l 642 1279 m 396 -274 q 382 -260 382 -274 l 382 -257 l 396 -171 q 415 -154 397 -154 l 431 -154 q 444 -167 444 -154 l 444 -171 l 431 -257 q 411 -274 428 -274 l 396 -274 z "},"Ầ":{"ha":917,"x_min":63,"x_max":854,"o":"m 604 1017 l 651 1017 l 854 0 l 819 0 l 749 353 l 286 353 l 97 0 l 63 0 l 604 1017 m 743 383 l 622 981 l 303 383 l 743 383 m 358 1381 l 394 1381 l 533 1196 l 514 1196 l 358 1381 m 625 1224 l 653 1224 l 800 1099 l 775 1099 l 636 1203 l 447 1099 l 422 1099 l 625 1224 z "},"Ẩ":{"ha":917,"x_min":63,"x_max":911,"o":"m 604 1017 l 651 1017 l 854 0 l 819 0 l 749 353 l 286 353 l 97 0 l 63 0 l 604 1017 m 743 383 l 622 981 l 303 383 l 743 383 m 783 1186 q 865 1231 840 1203 q 889 1292 889 1260 q 822 1342 889 1342 q 768 1333 793 1342 l 771 1353 q 828 1361 796 1361 q 890 1342 869 1361 q 911 1292 911 1324 q 880 1218 911 1251 q 781 1167 849 1185 l 783 1186 m 642 1224 l 669 1224 l 817 1099 l 792 1099 l 653 1203 l 464 1099 l 439 1099 l 642 1224 z "},"Ẫ":{"ha":917,"x_min":63,"x_max":903,"o":"m 604 1017 l 651 1017 l 854 0 l 819 0 l 749 353 l 286 353 l 97 0 l 63 0 l 604 1017 m 743 383 l 622 981 l 303 383 l 743 383 m 444 1293 q 488 1366 451 1343 q 567 1389 524 1389 q 622 1378 596 1389 q 681 1350 649 1368 q 734 1324 711 1333 q 782 1315 757 1315 q 849 1335 821 1315 q 883 1389 878 1354 l 903 1389 q 863 1319 896 1346 q 776 1293 829 1293 q 726 1302 750 1293 q 671 1329 701 1311 q 615 1357 639 1347 q 561 1367 590 1367 q 497 1349 525 1367 q 464 1293 469 1331 l 444 1293 m 643 1224 l 671 1224 l 817 1099 l 792 1099 l 653 1203 l 464 1099 l 439 1099 l 643 1224 z "},"Ȁ":{"ha":917,"x_min":63,"x_max":854,"o":"m 604 1017 l 651 1017 l 854 0 l 819 0 l 749 353 l 286 353 l 97 0 l 63 0 l 604 1017 m 743 383 l 622 981 l 303 383 l 743 383 m 383 1283 l 419 1283 l 558 1099 l 539 1099 l 383 1283 m 550 1283 l 586 1283 l 725 1099 l 706 1099 l 550 1283 z "},"Ä":{"ha":917,"x_min":63,"x_max":854,"o":"m 604 1017 l 651 1017 l 854 0 l 819 0 l 749 353 l 286 353 l 97 0 l 63 0 l 604 1017 m 743 383 l 622 981 l 303 383 l 743 383 m 457 1147 q 443 1161 443 1147 l 457 1250 q 478 1267 458 1267 l 493 1267 q 507 1254 507 1267 q 492 1164 507 1260 q 472 1147 489 1147 l 457 1147 m 746 1147 q 732 1161 732 1147 l 746 1250 q 767 1267 747 1267 l 782 1267 q 796 1254 796 1267 q 781 1164 796 1260 q 761 1147 778 1147 l 746 1147 z "},"Ạ":{"ha":917,"x_min":63,"x_max":854,"o":"m 604 1017 l 651 1017 l 854 0 l 819 0 l 749 353 l 286 353 l 97 0 l 63 0 l 604 1017 m 743 383 l 622 981 l 303 383 l 743 383 m 396 -274 q 382 -260 382 -274 l 382 -257 l 396 -171 q 415 -154 397 -154 l 431 -154 q 444 -167 444 -154 l 444 -171 l 431 -257 q 411 -274 428 -274 l 396 -274 z "},"À":{"ha":917,"x_min":63,"x_max":854,"o":"m 604 1017 l 651 1017 l 854 0 l 819 0 l 749 353 l 286 353 l 97 0 l 63 0 l 604 1017 m 743 383 l 622 981 l 303 383 l 743 383 m 494 1283 l 531 1283 l 669 1099 l 650 1099 l 494 1283 z "},"Ả":{"ha":917,"x_min":63,"x_max":854,"o":"m 604 1017 l 651 1017 l 854 0 l 819 0 l 749 353 l 286 353 l 97 0 l 63 0 l 604 1017 m 743 383 l 622 981 l 303 383 l 743 383 m 579 1103 q 693 1226 693 1138 q 624 1286 693 1286 q 568 1278 596 1286 l 571 1297 q 631 1306 597 1306 q 715 1228 715 1306 q 681 1142 715 1181 q 575 1083 647 1103 l 579 1103 z "},"Ȃ":{"ha":917,"x_min":63,"x_max":854,"o":"m 604 1017 l 651 1017 l 854 0 l 819 0 l 749 353 l 286 353 l 97 0 l 63 0 l 604 1017 m 743 383 l 622 981 l 303 383 l 743 383 m 454 1101 q 527 1246 471 1204 q 658 1288 583 1288 q 763 1255 721 1288 q 804 1147 804 1222 q 801 1101 804 1135 l 782 1101 q 785 1143 785 1132 q 749 1238 785 1207 q 656 1268 714 1268 q 538 1228 589 1268 q 474 1101 488 1189 l 454 1101 z "},"Ā":{"ha":917,"x_min":63,"x_max":854,"o":"m 604 1017 l 651 1017 l 854 0 l 819 0 l 749 353 l 286 353 l 97 0 l 63 0 l 604 1017 m 743 383 l 622 981 l 303 383 l 743 383 m 469 1203 l 819 1203 l 815 1182 l 465 1182 l 469 1203 z "},"Ą":{"ha":917,"x_min":63,"x_max":854,"o":"m 604 1017 l 651 1017 l 854 0 l 819 0 l 749 353 l 286 353 l 97 0 l 63 0 l 604 1017 m 743 383 l 622 981 l 303 383 l 743 383 m 811 -253 q 718 -226 753 -253 q 683 -151 683 -199 q 716 -72 683 -114 q 819 0 749 -29 l 836 0 q 743 -69 776 -28 q 710 -146 710 -111 q 742 -210 710 -187 q 838 -232 774 -232 l 844 -232 l 840 -251 q 811 -253 829 -253 z "},"Å":{"ha":917,"x_min":63,"x_max":854,"o":"m 604 1017 l 651 1017 l 854 0 l 819 0 l 749 353 l 286 353 l 97 0 l 63 0 l 604 1017 m 743 383 l 622 981 l 303 383 l 743 383 m 633 1083 q 543 1110 578 1083 q 508 1199 508 1138 q 553 1318 508 1268 q 676 1368 599 1368 q 762 1340 728 1368 q 796 1254 796 1313 q 753 1133 796 1182 q 633 1083 710 1083 m 633 1106 q 738 1147 703 1106 q 774 1251 774 1189 q 745 1324 774 1303 q 675 1346 717 1346 q 567 1304 604 1346 q 531 1199 531 1263 q 560 1127 531 1149 q 633 1106 589 1106 z "},"Ǻ":{"ha":917,"x_min":63,"x_max":893,"o":"m 633 1083 q 543 1110 578 1083 q 508 1199 508 1138 q 553 1318 508 1268 q 676 1368 599 1368 l 681 1368 l 857 1533 l 893 1533 l 700 1367 q 769 1333 742 1361 q 796 1254 796 1306 q 753 1133 796 1182 q 633 1083 710 1083 m 675 1346 q 567 1304 604 1346 q 531 1199 531 1263 q 560 1127 531 1149 q 633 1106 589 1106 q 738 1147 703 1106 q 774 1251 774 1189 q 745 1324 774 1303 q 675 1346 717 1346 m 651 1017 l 854 0 l 819 0 l 749 353 l 286 353 l 97 0 l 63 0 l 604 1017 l 651 1017 m 743 383 l 622 981 l 303 383 l 743 383 z "},"Ã":{"ha":917,"x_min":63,"x_max":929,"o":"m 604 1017 l 651 1017 l 854 0 l 819 0 l 749 353 l 286 353 l 97 0 l 63 0 l 604 1017 m 743 383 l 622 981 l 303 383 l 743 383 m 438 1140 q 488 1234 447 1204 q 579 1264 528 1264 q 634 1251 608 1264 q 692 1211 660 1238 q 745 1175 722 1188 q 794 1163 768 1163 q 870 1189 839 1163 q 910 1264 901 1215 l 929 1264 q 884 1174 921 1208 q 789 1140 847 1140 q 740 1153 763 1140 q 685 1190 717 1165 q 624 1229 647 1217 q 572 1242 601 1242 q 497 1217 529 1242 q 457 1140 465 1192 l 438 1140 z "},"Æ":{"ha":1244,"x_min":42,"x_max":1369,"o":"m 864 -4 q 736 19 786 -7 q 686 125 686 46 q 690 168 686 146 l 719 350 l 360 350 l 83 0 l 42 0 l 693 819 q 797 943 763 907 q 879 999 832 979 q 1000 1017 926 1018 l 1369 1008 l 1365 986 l 994 986 q 892 972 925 986 q 850 932 860 957 q 832 854 840 907 l 828 822 l 779 519 l 1236 515 l 1232 493 l 775 489 l 724 171 q 721 132 721 157 q 758 48 721 69 q 857 26 794 26 l 1214 26 l 1210 4 l 864 -4 m 724 381 l 810 918 l 385 381 l 724 381 z "},"Ǽ":{"ha":1244,"x_min":42,"x_max":1369,"o":"m 864 -4 q 736 19 786 -7 q 686 125 686 46 q 690 168 686 146 l 719 350 l 360 350 l 83 0 l 42 0 l 693 819 q 797 943 763 907 q 879 999 832 979 q 1000 1017 926 1018 l 1369 1008 l 1365 986 l 994 986 q 892 972 925 986 q 850 932 860 957 q 832 854 840 907 l 828 822 l 779 519 l 1236 515 l 1232 493 l 775 489 l 724 171 q 721 132 721 157 q 758 48 721 69 q 857 26 794 26 l 1214 26 l 1210 4 l 864 -4 m 724 381 l 810 918 l 385 381 l 724 381 m 1010 1283 l 1046 1283 l 832 1099 l 813 1099 l 1010 1283 z "},"B":{"ha":829,"x_min":111,"x_max":826,"o":"m 272 1017 l 596 1017 q 769 968 713 1017 q 826 829 826 919 q 821 761 826 793 q 754 608 806 665 q 632 533 703 550 q 732 465 685 518 q 779 324 779 411 q 771 249 779 285 q 463 0 719 0 l 111 0 l 272 1017 m 550 547 q 706 601 646 547 q 786 757 765 654 q 794 828 794 797 q 590 986 794 986 l 300 986 l 231 547 l 550 547 m 468 31 q 652 89 590 31 q 739 257 714 147 q 746 324 746 289 q 691 464 746 411 q 549 517 636 517 l 226 517 l 149 31 l 468 31 z "},"Ḃ":{"ha":829,"x_min":111,"x_max":826,"o":"m 272 1017 l 596 1017 q 769 968 713 1017 q 826 829 826 919 q 821 761 826 793 q 754 608 806 665 q 632 533 703 550 q 732 465 685 518 q 779 324 779 411 q 771 249 779 285 q 463 0 719 0 l 111 0 l 272 1017 m 550 547 q 706 601 646 547 q 786 757 765 654 q 794 828 794 797 q 590 986 794 986 l 300 986 l 231 547 l 550 547 m 468 31 q 652 89 590 31 q 739 257 714 147 q 746 324 746 289 q 691 464 746 411 q 549 517 636 517 l 226 517 l 149 31 l 468 31 m 550 1157 q 536 1171 536 1157 l 536 1174 l 550 1260 q 569 1276 551 1276 l 585 1276 q 599 1264 599 1276 l 599 1260 l 585 1174 q 565 1157 582 1157 l 550 1157 z "},"C":{"ha":818,"x_min":158,"x_max":878,"o":"m 419 -8 q 220 66 282 -8 q 158 292 158 140 q 181 522 158 389 q 314 899 219 772 q 581 1025 408 1025 q 732 1017 667 1025 q 878 994 797 1010 l 872 972 q 578 994 721 994 q 402 942 472 994 q 288 783 332 889 q 214 508 243 678 q 193 293 193 386 q 247 85 193 149 q 426 22 301 22 q 597 27 531 22 q 724 42 663 32 l 719 19 q 419 -8 583 -8 z "},"Ć":{"ha":818,"x_min":158,"x_max":878,"o":"m 419 -8 q 220 66 282 -8 q 158 292 158 140 q 181 522 158 389 q 314 899 219 772 q 581 1025 408 1025 q 732 1017 667 1025 q 878 994 797 1010 l 872 972 q 578 994 721 994 q 402 942 472 994 q 288 783 332 889 q 214 508 243 678 q 193 293 193 386 q 247 85 193 149 q 426 22 301 22 q 597 27 531 22 q 724 42 663 32 l 719 19 q 419 -8 583 -8 m 760 1283 l 796 1283 l 582 1099 l 563 1099 l 760 1283 z "},"Č":{"ha":818,"x_min":158,"x_max":878,"o":"m 419 -8 q 220 66 282 -8 q 158 292 158 140 q 181 522 158 389 q 314 899 219 772 q 581 1025 408 1025 q 732 1017 667 1025 q 878 994 797 1010 l 872 972 q 578 994 721 994 q 402 942 472 994 q 288 783 332 889 q 214 508 243 678 q 193 293 193 386 q 247 85 193 149 q 426 22 301 22 q 597 27 531 22 q 724 42 663 32 l 719 19 q 419 -8 583 -8 m 458 1279 l 483 1279 l 613 1119 l 811 1279 l 836 1279 l 624 1099 l 596 1099 l 458 1279 z "},"Ç":{"ha":818,"x_min":158,"x_max":878,"o":"m 578 994 q 402 942 472 994 q 288 783 332 889 q 214 508 243 678 q 193 293 193 386 q 247 85 193 149 q 426 22 301 22 q 597 27 531 22 q 724 42 663 32 l 719 19 q 450 -8 596 -6 l 376 -94 q 472 -160 472 -96 q 456 -207 472 -182 q 408 -250 439 -232 q 335 -268 376 -268 l 307 -268 l 310 -254 l 346 -251 q 403 -233 379 -249 q 439 -199 426 -218 q 451 -164 451 -179 q 428 -123 451 -137 q 346 -108 404 -108 l 431 -8 l 419 -8 q 220 66 282 -8 q 158 292 158 140 q 181 522 158 389 q 314 899 219 772 q 581 1025 408 1025 q 732 1017 667 1025 q 878 994 797 1010 l 872 972 q 578 994 721 994 z "},"Ḉ":{"ha":818,"x_min":158,"x_max":878,"o":"m 582 1099 l 563 1099 l 760 1283 l 796 1283 l 582 1099 m 578 994 q 402 942 472 994 q 288 783 332 889 q 214 508 243 678 q 193 293 193 386 q 247 85 193 149 q 426 22 301 22 q 597 27 531 22 q 724 42 663 32 l 719 19 q 450 -8 596 -6 l 376 -94 q 472 -160 472 -96 q 456 -207 472 -182 q 408 -250 439 -232 q 335 -268 376 -268 l 307 -268 l 310 -254 l 346 -251 q 403 -233 379 -249 q 439 -199 426 -218 q 451 -164 451 -179 q 428 -123 451 -137 q 346 -108 404 -108 l 431 -8 l 419 -8 q 220 66 282 -8 q 158 292 158 140 q 181 522 158 389 q 314 899 219 772 q 581 1025 408 1025 q 732 1017 667 1025 q 878 994 797 1010 l 872 972 q 578 994 721 994 z "},"Ĉ":{"ha":818,"x_min":158,"x_max":878,"o":"m 419 -8 q 220 66 282 -8 q 158 292 158 140 q 181 522 158 389 q 314 899 219 772 q 581 1025 408 1025 q 732 1017 667 1025 q 878 994 797 1010 l 872 972 q 578 994 721 994 q 402 942 472 994 q 288 783 332 889 q 214 508 243 678 q 193 293 193 386 q 247 85 193 149 q 426 22 301 22 q 597 27 531 22 q 724 42 663 32 l 719 19 q 419 -8 583 -8 m 600 1279 l 628 1279 l 765 1099 l 740 1099 l 610 1258 l 413 1099 l 388 1099 l 600 1279 z "},"Ċ":{"ha":818,"x_min":158,"x_max":878,"o":"m 419 -8 q 220 66 282 -8 q 158 292 158 140 q 181 522 158 389 q 314 899 219 772 q 581 1025 408 1025 q 732 1017 667 1025 q 878 994 797 1010 l 872 972 q 578 994 721 994 q 402 942 472 994 q 288 783 332 889 q 214 508 243 678 q 193 293 193 386 q 247 85 193 149 q 426 22 301 22 q 597 27 531 22 q 724 42 663 32 l 719 19 q 419 -8 583 -8 m 592 1157 q 578 1171 578 1157 l 578 1174 l 592 1260 q 611 1276 593 1276 l 626 1276 q 640 1264 640 1276 l 640 1260 l 626 1174 q 607 1157 624 1157 l 592 1157 z "},"D":{"ha":921,"x_min":111,"x_max":918,"o":"m 272 1017 l 622 1017 q 851 931 783 1017 q 918 664 918 844 q 901 493 918 599 q 763 136 867 272 q 471 0 658 0 l 111 0 l 272 1017 m 469 31 q 740 163 644 31 q 869 506 836 294 q 885 668 885 600 q 861 845 885 776 q 778 950 838 914 q 615 986 719 986 l 300 986 l 149 31 l 469 31 z "},"Ð":{"ha":921,"x_min":86,"x_max":918,"o":"m 622 1017 q 851 931 783 1017 q 918 664 918 844 q 901 493 918 599 q 763 136 867 272 q 471 0 658 0 l 111 0 l 190 503 l 86 503 l 92 533 l 196 533 l 272 1017 l 622 1017 m 869 506 q 885 668 885 600 q 861 845 885 776 q 778 950 838 914 q 615 986 719 986 l 300 986 l 228 533 l 542 533 l 536 503 l 224 503 l 149 31 l 469 31 q 740 163 644 31 q 869 506 836 294 z "},"Ď":{"ha":921,"x_min":111,"x_max":918,"o":"m 272 1017 l 622 1017 q 851 931 783 1017 q 918 664 918 844 q 901 493 918 599 q 763 136 867 272 q 471 0 658 0 l 111 0 l 272 1017 m 469 31 q 740 163 644 31 q 869 506 836 294 q 885 668 885 600 q 861 845 885 776 q 778 950 838 914 q 615 986 719 986 l 300 986 l 149 31 l 469 31 m 444 1279 l 469 1279 l 599 1119 l 797 1279 l 822 1279 l 610 1099 l 582 1099 l 444 1279 z "},"Đ":{"ha":921,"x_min":86,"x_max":918,"o":"m 622 1017 q 851 931 783 1017 q 918 664 918 844 q 901 493 918 599 q 763 136 867 272 q 471 0 658 0 l 111 0 l 190 503 l 86 503 l 92 533 l 196 533 l 272 1017 l 622 1017 m 869 506 q 885 668 885 600 q 861 845 885 776 q 778 950 838 914 q 615 986 719 986 l 300 986 l 228 533 l 542 533 l 536 503 l 224 503 l 149 31 l 469 31 q 740 163 644 31 q 869 506 836 294 z "},"Ḋ":{"ha":921,"x_min":111,"x_max":918,"o":"m 272 1017 l 622 1017 q 851 931 783 1017 q 918 664 918 844 q 901 493 918 599 q 763 136 867 272 q 471 0 658 0 l 111 0 l 272 1017 m 469 31 q 740 163 644 31 q 869 506 836 294 q 885 668 885 600 q 861 845 885 776 q 778 950 838 914 q 615 986 719 986 l 300 986 l 149 31 l 469 31 m 578 1157 q 564 1171 564 1157 l 564 1174 l 578 1260 q 597 1276 579 1276 l 613 1276 q 626 1264 626 1276 l 626 1260 l 613 1174 q 593 1157 610 1157 l 578 1157 z "},"Ḍ":{"ha":921,"x_min":111,"x_max":918,"o":"m 272 1017 l 622 1017 q 851 931 783 1017 q 918 664 918 844 q 901 493 918 599 q 763 136 867 272 q 471 0 658 0 l 111 0 l 272 1017 m 469 31 q 740 163 644 31 q 869 506 836 294 q 885 668 885 600 q 861 845 885 776 q 778 950 838 914 q 615 986 719 986 l 300 986 l 149 31 l 469 31 m 340 -274 q 326 -260 326 -274 l 326 -257 l 340 -171 q 360 -154 342 -154 l 375 -154 q 389 -167 389 -154 l 389 -171 l 375 -257 q 356 -274 372 -274 l 340 -274 z "},"Ḏ":{"ha":921,"x_min":111,"x_max":918,"o":"m 272 1017 l 622 1017 q 851 931 783 1017 q 918 664 918 844 q 901 493 918 599 q 763 136 867 272 q 471 0 658 0 l 111 0 l 272 1017 m 469 31 q 740 163 644 31 q 869 506 836 294 q 885 668 885 600 q 861 845 885 776 q 778 950 838 914 q 615 986 719 986 l 300 986 l 149 31 l 469 31 m 186 -214 l 536 -214 l 532 -235 l 182 -235 l 186 -214 z "},"E":{"ha":785,"x_min":135,"x_max":860,"o":"m 300 -8 q 135 131 135 -11 q 139 178 135 151 l 244 843 q 315 978 260 938 q 447 1017 371 1018 l 860 1008 l 856 986 l 443 986 q 332 951 375 986 q 276 836 289 917 l 226 521 l 725 513 l 721 490 l 221 488 l 172 171 q 168 129 168 149 q 203 44 168 67 q 306 22 239 22 l 706 22 l 701 0 l 300 -8 z "},"É":{"ha":785,"x_min":135,"x_max":860,"o":"m 300 -8 q 135 131 135 -11 q 139 178 135 151 l 244 843 q 315 978 260 938 q 447 1017 371 1018 l 860 1008 l 856 986 l 443 986 q 332 951 375 986 q 276 836 289 917 l 226 521 l 725 513 l 721 490 l 221 488 l 172 171 q 168 129 168 149 q 203 44 168 67 q 306 22 239 22 l 706 22 l 701 0 l 300 -8 m 760 1283 l 796 1283 l 582 1099 l 563 1099 l 760 1283 z "},"Ĕ":{"ha":785,"x_min":135,"x_max":860,"o":"m 300 -8 q 135 131 135 -11 q 139 178 135 151 l 244 843 q 315 978 260 938 q 447 1017 371 1018 l 860 1008 l 856 986 l 443 986 q 332 951 375 986 q 276 836 289 917 l 226 521 l 725 513 l 721 490 l 221 488 l 172 171 q 168 129 168 149 q 203 44 168 67 q 306 22 239 22 l 706 22 l 701 0 l 300 -8 m 586 1101 q 482 1134 524 1101 q 440 1242 440 1167 q 443 1288 440 1254 l 463 1288 q 460 1246 460 1257 q 494 1151 460 1182 q 586 1121 529 1121 q 706 1160 656 1121 q 771 1288 757 1200 l 790 1288 q 717 1143 774 1185 q 586 1101 661 1101 z "},"Ě":{"ha":785,"x_min":135,"x_max":860,"o":"m 300 -8 q 135 131 135 -11 q 139 178 135 151 l 244 843 q 315 978 260 938 q 447 1017 371 1018 l 860 1008 l 856 986 l 443 986 q 332 951 375 986 q 276 836 289 917 l 226 521 l 725 513 l 721 490 l 221 488 l 172 171 q 168 129 168 149 q 203 44 168 67 q 306 22 239 22 l 706 22 l 701 0 l 300 -8 m 458 1279 l 483 1279 l 613 1119 l 811 1279 l 836 1279 l 624 1099 l 596 1099 l 458 1279 z "},"Ḝ":{"ha":785,"x_min":135,"x_max":860,"o":"m 586 1101 q 482 1134 524 1101 q 440 1242 440 1167 q 443 1288 440 1254 l 463 1288 q 460 1246 460 1257 q 494 1151 460 1182 q 586 1121 529 1121 q 706 1160 656 1121 q 771 1288 757 1200 l 790 1288 q 717 1143 774 1185 q 586 1101 661 1101 m 443 986 q 332 951 375 986 q 276 836 289 917 l 226 521 l 725 513 l 721 490 l 221 488 l 172 171 q 168 129 168 149 q 203 44 168 67 q 306 22 239 22 l 706 22 l 701 0 l 424 -6 l 349 -94 q 444 -160 444 -96 q 428 -207 444 -182 q 380 -250 411 -232 q 307 -268 349 -268 l 279 -268 l 282 -254 l 318 -251 q 375 -233 351 -249 q 411 -199 399 -218 q 424 -164 424 -179 q 400 -123 424 -137 q 318 -108 376 -108 l 404 -6 q 294 -8 332 -8 q 135 129 135 -8 q 139 178 135 151 l 244 843 q 315 978 260 938 q 447 1017 371 1018 l 860 1008 l 856 986 l 443 986 z "},"Ê":{"ha":785,"x_min":135,"x_max":860,"o":"m 300 -8 q 135 131 135 -11 q 139 178 135 151 l 244 843 q 315 978 260 938 q 447 1017 371 1018 l 860 1008 l 856 986 l 443 986 q 332 951 375 986 q 276 836 289 917 l 226 521 l 725 513 l 721 490 l 221 488 l 172 171 q 168 129 168 149 q 203 44 168 67 q 306 22 239 22 l 706 22 l 701 0 l 300 -8 m 600 1279 l 628 1279 l 765 1099 l 740 1099 l 610 1258 l 413 1099 l 388 1099 l 600 1279 z "},"Ế":{"ha":785,"x_min":135,"x_max":949,"o":"m 300 -8 q 135 131 135 -11 q 139 178 135 151 l 244 843 q 315 978 260 938 q 447 1017 371 1018 l 860 1008 l 856 986 l 443 986 q 332 951 375 986 q 276 836 289 917 l 226 521 l 725 513 l 721 490 l 221 488 l 172 171 q 168 129 168 149 q 203 44 168 67 q 306 22 239 22 l 706 22 l 701 0 l 300 -8 m 913 1381 l 949 1381 l 735 1196 l 715 1196 l 913 1381 m 594 1224 l 622 1224 l 769 1099 l 744 1099 l 606 1203 l 417 1099 l 392 1099 l 594 1224 z "},"Ệ":{"ha":785,"x_min":135,"x_max":860,"o":"m 300 -8 q 135 131 135 -11 q 139 178 135 151 l 244 843 q 315 978 260 938 q 447 1017 371 1018 l 860 1008 l 856 986 l 443 986 q 332 951 375 986 q 276 836 289 917 l 226 521 l 725 513 l 721 490 l 221 488 l 172 171 q 168 129 168 149 q 203 44 168 67 q 306 22 239 22 l 706 22 l 701 0 l 300 -8 m 600 1279 l 628 1279 l 765 1099 l 740 1099 l 610 1258 l 413 1099 l 388 1099 l 600 1279 m 354 -274 q 340 -260 340 -274 l 340 -257 l 354 -171 q 374 -154 356 -154 l 389 -154 q 403 -167 403 -154 l 403 -171 l 389 -257 q 369 -274 386 -274 l 354 -274 z "},"Ề":{"ha":785,"x_min":135,"x_max":860,"o":"m 300 -8 q 135 131 135 -11 q 139 178 135 151 l 244 843 q 315 978 260 938 q 447 1017 371 1018 l 860 1008 l 856 986 l 443 986 q 332 951 375 986 q 276 836 289 917 l 226 521 l 725 513 l 721 490 l 221 488 l 172 171 q 168 129 168 149 q 203 44 168 67 q 306 22 239 22 l 706 22 l 701 0 l 300 -8 m 317 1381 l 353 1381 l 492 1196 l 472 1196 l 317 1381 m 583 1224 l 611 1224 l 758 1099 l 733 1099 l 594 1203 l 406 1099 l 381 1099 l 583 1224 z "},"Ể":{"ha":785,"x_min":135,"x_max":869,"o":"m 300 -8 q 135 131 135 -11 q 139 178 135 151 l 244 843 q 315 978 260 938 q 447 1017 371 1018 l 860 1008 l 856 986 l 443 986 q 332 951 375 986 q 276 836 289 917 l 226 521 l 725 513 l 721 490 l 221 488 l 172 171 q 168 129 168 149 q 203 44 168 67 q 306 22 239 22 l 706 22 l 701 0 l 300 -8 m 742 1186 q 823 1231 799 1203 q 847 1292 847 1260 q 781 1342 847 1342 q 726 1333 751 1342 l 729 1353 q 786 1361 754 1361 q 849 1342 828 1361 q 869 1292 869 1324 q 838 1218 869 1251 q 739 1167 807 1185 l 742 1186 m 600 1224 l 628 1224 l 775 1099 l 750 1099 l 611 1203 l 422 1099 l 397 1099 l 600 1224 z "},"Ễ":{"ha":785,"x_min":135,"x_max":861,"o":"m 300 -8 q 135 131 135 -11 q 139 178 135 151 l 244 843 q 315 978 260 938 q 447 1017 371 1018 l 860 1008 l 856 986 l 443 986 q 332 951 375 986 q 276 836 289 917 l 226 521 l 725 513 l 721 490 l 221 488 l 172 171 q 168 129 168 149 q 203 44 168 67 q 306 22 239 22 l 706 22 l 701 0 l 300 -8 m 403 1293 q 446 1366 410 1343 q 525 1389 482 1389 q 581 1378 554 1389 q 639 1350 607 1368 q 692 1324 669 1333 q 740 1315 715 1315 q 808 1335 779 1315 q 842 1389 836 1354 l 861 1389 q 821 1319 854 1346 q 735 1293 788 1293 q 684 1302 708 1293 q 629 1329 660 1311 q 573 1357 597 1347 q 519 1367 549 1367 q 456 1349 483 1367 q 422 1293 428 1331 l 403 1293 m 601 1224 l 629 1224 l 775 1099 l 750 1099 l 611 1203 l 422 1099 l 397 1099 l 601 1224 z "},"Ȅ":{"ha":785,"x_min":135,"x_max":860,"o":"m 300 -8 q 135 131 135 -11 q 139 178 135 151 l 244 843 q 315 978 260 938 q 447 1017 371 1018 l 860 1008 l 856 986 l 443 986 q 332 951 375 986 q 276 836 289 917 l 226 521 l 725 513 l 721 490 l 221 488 l 172 171 q 168 129 168 149 q 203 44 168 67 q 306 22 239 22 l 706 22 l 701 0 l 300 -8 m 342 1283 l 378 1283 l 517 1099 l 497 1099 l 342 1283 m 508 1283 l 544 1283 l 683 1099 l 664 1099 l 508 1283 z "},"Ë":{"ha":785,"x_min":135,"x_max":860,"o":"m 300 -8 q 135 131 135 -11 q 139 178 135 151 l 244 843 q 315 978 260 938 q 447 1017 371 1018 l 860 1008 l 856 986 l 443 986 q 332 951 375 986 q 276 836 289 917 l 226 521 l 725 513 l 721 490 l 221 488 l 172 171 q 168 129 168 149 q 203 44 168 67 q 306 22 239 22 l 706 22 l 701 0 l 300 -8 m 415 1147 q 401 1161 401 1147 l 415 1250 q 436 1267 417 1267 l 451 1267 q 465 1254 465 1267 q 450 1164 465 1260 q 431 1147 447 1147 l 415 1147 m 704 1147 q 690 1161 690 1147 l 704 1250 q 725 1267 706 1267 l 740 1267 q 754 1254 754 1267 q 739 1164 754 1260 q 719 1147 736 1147 l 704 1147 z "},"Ė":{"ha":785,"x_min":135,"x_max":860,"o":"m 300 -8 q 135 131 135 -11 q 139 178 135 151 l 244 843 q 315 978 260 938 q 447 1017 371 1018 l 860 1008 l 856 986 l 443 986 q 332 951 375 986 q 276 836 289 917 l 226 521 l 725 513 l 721 490 l 221 488 l 172 171 q 168 129 168 149 q 203 44 168 67 q 306 22 239 22 l 706 22 l 701 0 l 300 -8 m 592 1157 q 578 1171 578 1157 l 578 1174 l 592 1260 q 611 1276 593 1276 l 626 1276 q 640 1264 640 1276 l 640 1260 l 626 1174 q 607 1157 624 1157 l 592 1157 z "},"Ẹ":{"ha":785,"x_min":135,"x_max":860,"o":"m 300 -8 q 135 131 135 -11 q 139 178 135 151 l 244 843 q 315 978 260 938 q 447 1017 371 1018 l 860 1008 l 856 986 l 443 986 q 332 951 375 986 q 276 836 289 917 l 226 521 l 725 513 l 721 490 l 221 488 l 172 171 q 168 129 168 149 q 203 44 168 67 q 306 22 239 22 l 706 22 l 701 0 l 300 -8 m 354 -274 q 340 -260 340 -274 l 340 -257 l 354 -171 q 374 -154 356 -154 l 389 -154 q 403 -167 403 -154 l 403 -171 l 389 -257 q 369 -274 386 -274 l 354 -274 z "},"È":{"ha":785,"x_min":135,"x_max":860,"o":"m 300 -8 q 135 131 135 -11 q 139 178 135 151 l 244 843 q 315 978 260 938 q 447 1017 371 1018 l 860 1008 l 856 986 l 443 986 q 332 951 375 986 q 276 836 289 917 l 226 521 l 725 513 l 721 490 l 221 488 l 172 171 q 168 129 168 149 q 203 44 168 67 q 306 22 239 22 l 706 22 l 701 0 l 300 -8 m 453 1283 l 489 1283 l 628 1099 l 608 1099 l 453 1283 z "},"Ẻ":{"ha":785,"x_min":135,"x_max":860,"o":"m 300 -8 q 135 131 135 -11 q 139 178 135 151 l 244 843 q 315 978 260 938 q 447 1017 371 1018 l 860 1008 l 856 986 l 443 986 q 332 951 375 986 q 276 836 289 917 l 226 521 l 725 513 l 721 490 l 221 488 l 172 171 q 168 129 168 149 q 203 44 168 67 q 306 22 239 22 l 706 22 l 701 0 l 300 -8 m 538 1103 q 651 1226 651 1138 q 582 1286 651 1286 q 526 1278 554 1286 l 529 1297 q 589 1306 556 1306 q 674 1228 674 1306 q 640 1142 674 1181 q 533 1083 606 1103 l 538 1103 z "},"Ȇ":{"ha":785,"x_min":135,"x_max":860,"o":"m 300 -8 q 135 131 135 -11 q 139 178 135 151 l 244 843 q 315 978 260 938 q 447 1017 371 1018 l 860 1008 l 856 986 l 443 986 q 332 951 375 986 q 276 836 289 917 l 226 521 l 725 513 l 721 490 l 221 488 l 172 171 q 168 129 168 149 q 203 44 168 67 q 306 22 239 22 l 706 22 l 701 0 l 300 -8 m 413 1101 q 485 1246 429 1204 q 617 1288 542 1288 q 721 1255 679 1288 q 763 1147 763 1222 q 760 1101 763 1135 l 740 1101 q 743 1143 743 1132 q 708 1238 743 1207 q 614 1268 672 1268 q 497 1228 547 1268 q 432 1101 446 1189 l 413 1101 z "},"Ē":{"ha":785,"x_min":135,"x_max":860,"o":"m 300 -8 q 135 131 135 -11 q 139 178 135 151 l 244 843 q 315 978 260 938 q 447 1017 371 1018 l 860 1008 l 856 986 l 443 986 q 332 951 375 986 q 276 836 289 917 l 226 521 l 725 513 l 721 490 l 221 488 l 172 171 q 168 129 168 149 q 203 44 168 67 q 306 22 239 22 l 706 22 l 701 0 l 300 -8 m 428 1203 l 778 1203 l 774 1182 l 424 1182 l 428 1203 z "},"Ḗ":{"ha":785,"x_min":135,"x_max":860,"o":"m 300 -8 q 135 131 135 -11 q 139 178 135 151 l 244 843 q 315 978 260 938 q 447 1017 371 1018 l 860 1008 l 856 986 l 443 986 q 332 951 375 986 q 276 836 289 917 l 226 521 l 725 513 l 721 490 l 221 488 l 172 171 q 168 129 168 149 q 203 44 168 67 q 306 22 239 22 l 706 22 l 701 0 l 300 -8 m 428 1203 l 778 1203 l 774 1182 l 424 1182 l 428 1203 m 788 1450 l 824 1450 l 610 1265 l 590 1265 l 788 1450 z "},"Ḕ":{"ha":785,"x_min":135,"x_max":860,"o":"m 300 -8 q 135 131 135 -11 q 139 178 135 151 l 244 843 q 315 978 260 938 q 447 1017 371 1018 l 860 1008 l 856 986 l 443 986 q 332 951 375 986 q 276 836 289 917 l 226 521 l 725 513 l 721 490 l 221 488 l 172 171 q 168 129 168 149 q 203 44 168 67 q 306 22 239 22 l 706 22 l 701 0 l 300 -8 m 428 1203 l 778 1203 l 774 1182 l 424 1182 l 428 1203 m 453 1450 l 489 1450 l 628 1265 l 608 1265 l 453 1450 z "},"Ę":{"ha":785,"x_min":135,"x_max":860,"o":"m 443 986 q 332 951 375 986 q 276 836 289 917 l 226 521 l 725 513 l 721 490 l 221 488 l 172 171 q 168 129 168 149 q 203 44 168 67 q 306 22 239 22 l 706 22 l 701 0 q 608 -69 642 -28 q 575 -146 575 -111 q 607 -210 575 -187 q 703 -232 639 -232 l 710 -232 l 706 -251 q 676 -253 694 -253 q 583 -226 618 -253 q 549 -151 549 -199 q 581 -72 549 -114 q 683 0 614 -29 l 300 -8 q 135 131 135 -11 q 139 178 135 151 l 244 843 q 315 978 260 938 q 447 1017 371 1018 l 860 1008 l 856 986 l 443 986 z "},"Ẽ":{"ha":785,"x_min":135,"x_max":888,"o":"m 300 -8 q 135 131 135 -11 q 139 178 135 151 l 244 843 q 315 978 260 938 q 447 1017 371 1018 l 860 1008 l 856 986 l 443 986 q 332 951 375 986 q 276 836 289 917 l 226 521 l 725 513 l 721 490 l 221 488 l 172 171 q 168 129 168 149 q 203 44 168 67 q 306 22 239 22 l 706 22 l 701 0 l 300 -8 m 396 1140 q 446 1234 406 1204 q 538 1264 486 1264 q 592 1251 567 1264 q 650 1211 618 1238 q 703 1175 681 1188 q 753 1163 726 1163 q 828 1189 797 1163 q 868 1264 860 1215 l 888 1264 q 842 1174 879 1208 q 747 1140 806 1140 q 698 1153 721 1140 q 643 1190 675 1165 q 583 1229 606 1217 q 531 1242 560 1242 q 456 1217 488 1242 q 415 1140 424 1192 l 396 1140 z "},"F":{"ha":756,"x_min":111,"x_max":860,"o":"m 243 831 q 313 978 260 939 q 446 1017 365 1018 l 860 1008 l 856 986 l 439 986 q 329 951 368 986 q 276 836 290 917 l 226 521 l 725 513 l 721 490 l 222 488 l 144 0 l 111 0 l 243 831 z "},"Ḟ":{"ha":756,"x_min":111,"x_max":860,"o":"m 243 831 q 313 978 260 939 q 446 1017 365 1018 l 860 1008 l 856 986 l 439 986 q 329 951 368 986 q 276 836 290 917 l 226 521 l 725 513 l 721 490 l 222 488 l 144 0 l 111 0 l 243 831 m 578 1157 q 564 1171 564 1157 l 564 1174 l 578 1260 q 597 1276 579 1276 l 613 1276 q 626 1264 626 1276 l 626 1260 l 613 1174 q 593 1157 610 1157 l 578 1157 z "},"G":{"ha":883,"x_min":160,"x_max":904,"o":"m 422 -8 q 221 65 282 -8 q 160 301 160 139 q 181 524 160 385 q 313 897 218 767 q 593 1028 408 1028 q 760 1017 688 1028 q 904 986 833 1006 l 901 964 q 588 997 744 997 q 337 875 422 997 q 214 511 251 753 q 193 290 193 382 q 248 85 193 149 q 428 22 303 22 q 601 47 499 22 q 754 96 703 72 l 815 482 l 518 482 l 521 504 q 617 511 554 510 q 758 513 681 513 q 853 508 803 513 l 772 0 l 750 0 l 753 74 q 601 21 701 50 q 422 -8 500 -8 z "},"Ğ":{"ha":883,"x_min":160,"x_max":904,"o":"m 422 -8 q 221 65 282 -8 q 160 301 160 139 q 181 524 160 385 q 313 897 218 767 q 593 1028 408 1028 q 760 1017 688 1028 q 904 986 833 1006 l 901 964 q 588 997 744 997 q 337 875 422 997 q 214 511 251 753 q 193 290 193 382 q 248 85 193 149 q 428 22 303 22 q 601 47 499 22 q 754 96 703 72 l 815 482 l 518 482 l 521 504 q 617 511 554 510 q 758 513 681 513 q 853 508 803 513 l 772 0 l 750 0 l 753 74 q 601 21 701 50 q 422 -8 500 -8 m 614 1101 q 510 1134 551 1101 q 468 1242 468 1167 q 471 1288 468 1254 l 490 1288 q 488 1246 488 1257 q 522 1151 488 1182 q 614 1121 557 1121 q 734 1160 683 1121 q 799 1288 785 1200 l 818 1288 q 745 1143 801 1185 q 614 1101 689 1101 z "},"Ǧ":{"ha":883,"x_min":160,"x_max":904,"o":"m 422 -8 q 221 65 282 -8 q 160 301 160 139 q 181 524 160 385 q 313 897 218 767 q 593 1028 408 1028 q 760 1017 688 1028 q 904 986 833 1006 l 901 964 q 588 997 744 997 q 337 875 422 997 q 214 511 251 753 q 193 290 193 382 q 248 85 193 149 q 428 22 303 22 q 601 47 499 22 q 754 96 703 72 l 815 482 l 518 482 l 521 504 q 617 511 554 510 q 758 513 681 513 q 853 508 803 513 l 772 0 l 750 0 l 753 74 q 601 21 701 50 q 422 -8 500 -8 m 486 1279 l 511 1279 l 640 1119 l 839 1279 l 864 1279 l 651 1099 l 624 1099 l 486 1279 z "},"Ĝ":{"ha":883,"x_min":160,"x_max":904,"o":"m 422 -8 q 221 65 282 -8 q 160 301 160 139 q 181 524 160 385 q 313 897 218 767 q 593 1028 408 1028 q 760 1017 688 1028 q 904 986 833 1006 l 901 964 q 588 997 744 997 q 337 875 422 997 q 214 511 251 753 q 193 290 193 382 q 248 85 193 149 q 428 22 303 22 q 601 47 499 22 q 754 96 703 72 l 815 482 l 518 482 l 521 504 q 617 511 554 510 q 758 513 681 513 q 853 508 803 513 l 772 0 l 750 0 l 753 74 q 601 21 701 50 q 422 -8 500 -8 m 628 1279 l 656 1279 l 793 1099 l 768 1099 l 638 1258 l 440 1099 l 415 1099 l 628 1279 z "},"Ģ":{"ha":883,"x_min":160,"x_max":904,"o":"m 422 -8 q 221 65 282 -8 q 160 301 160 139 q 181 524 160 385 q 313 897 218 767 q 593 1028 408 1028 q 760 1017 688 1028 q 904 986 833 1006 l 901 964 q 588 997 744 997 q 337 875 422 997 q 214 511 251 753 q 193 290 193 382 q 248 85 193 149 q 428 22 303 22 q 601 47 499 22 q 754 96 703 72 l 815 482 l 518 482 l 521 504 q 617 511 554 510 q 758 513 681 513 q 853 508 803 513 l 772 0 l 750 0 l 753 74 q 601 21 701 50 q 422 -8 500 -8 m 313 -251 l 357 -247 q 426 -231 401 -243 q 470 -184 451 -219 q 499 -76 489 -149 l 522 -76 q 493 -190 511 -150 q 441 -247 475 -229 q 347 -265 407 -265 l 310 -265 l 313 -251 z "},"Ġ":{"ha":883,"x_min":160,"x_max":904,"o":"m 422 -8 q 221 65 282 -8 q 160 301 160 139 q 181 524 160 385 q 313 897 218 767 q 593 1028 408 1028 q 760 1017 688 1028 q 904 986 833 1006 l 901 964 q 588 997 744 997 q 337 875 422 997 q 214 511 251 753 q 193 290 193 382 q 248 85 193 149 q 428 22 303 22 q 601 47 499 22 q 754 96 703 72 l 815 482 l 518 482 l 521 504 q 617 511 554 510 q 758 513 681 513 q 853 508 803 513 l 772 0 l 750 0 l 753 74 q 601 21 701 50 q 422 -8 500 -8 m 619 1157 q 606 1171 606 1157 l 606 1174 l 619 1260 q 639 1276 621 1276 l 654 1276 q 668 1264 668 1276 l 668 1260 l 654 1174 q 635 1157 651 1157 l 619 1157 z "},"Ḡ":{"ha":883,"x_min":160,"x_max":904,"o":"m 422 -8 q 221 65 282 -8 q 160 301 160 139 q 181 524 160 385 q 313 897 218 767 q 593 1028 408 1028 q 760 1017 688 1028 q 904 986 833 1006 l 901 964 q 588 997 744 997 q 337 875 422 997 q 214 511 251 753 q 193 290 193 382 q 248 85 193 149 q 428 22 303 22 q 601 47 499 22 q 754 96 703 72 l 815 482 l 518 482 l 521 504 q 617 511 554 510 q 758 513 681 513 q 853 508 803 513 l 772 0 l 750 0 l 753 74 q 601 21 701 50 q 422 -8 500 -8 m 456 1203 l 806 1203 l 801 1182 l 451 1182 l 456 1203 z "},"H":{"ha":897,"x_min":111,"x_max":947,"o":"m 272 1017 l 306 1017 l 225 507 l 833 507 l 914 1017 l 947 1017 l 786 0 l 753 0 l 828 476 l 219 476 l 144 0 l 111 0 l 272 1017 z "},"Ħ":{"ha":897,"x_min":111,"x_max":1013,"o":"m 1008 738 l 903 738 l 786 0 l 753 0 l 828 476 l 219 476 l 144 0 l 111 0 l 228 738 l 124 738 l 128 768 l 233 768 l 272 1017 l 306 1017 l 267 768 l 875 768 l 914 1017 l 947 1017 l 908 768 l 1013 768 l 1008 738 m 869 738 l 261 738 l 225 507 l 833 507 l 869 738 z "},"Ḫ":{"ha":897,"x_min":111,"x_max":947,"o":"m 272 1017 l 306 1017 l 225 507 l 833 507 l 914 1017 l 947 1017 l 786 0 l 753 0 l 828 476 l 219 476 l 144 0 l 111 0 l 272 1017 m 375 -301 q 271 -269 313 -301 q 229 -161 229 -236 q 232 -115 229 -149 l 251 -115 q 249 -157 249 -146 q 283 -251 249 -221 q 375 -282 318 -282 q 496 -242 446 -282 q 560 -115 546 -203 l 579 -115 q 506 -260 563 -218 q 375 -301 450 -301 z "},"Ĥ":{"ha":897,"x_min":111,"x_max":947,"o":"m 272 1017 l 306 1017 l 225 507 l 833 507 l 914 1017 l 947 1017 l 786 0 l 753 0 l 828 476 l 219 476 l 144 0 l 111 0 l 272 1017 m 631 1279 l 658 1279 l 796 1099 l 771 1099 l 640 1258 l 443 1099 l 418 1099 l 631 1279 z "},"Ḥ":{"ha":897,"x_min":111,"x_max":947,"o":"m 272 1017 l 306 1017 l 225 507 l 833 507 l 914 1017 l 947 1017 l 786 0 l 753 0 l 828 476 l 219 476 l 144 0 l 111 0 l 272 1017 m 385 -274 q 371 -260 371 -274 l 371 -257 l 385 -171 q 404 -154 386 -154 l 419 -154 q 433 -167 433 -154 l 433 -171 l 419 -257 q 400 -274 417 -274 l 385 -274 z "},"I":{"ha":256,"x_min":111,"x_max":306,"o":"m 272 1017 l 306 1017 l 144 0 l 111 0 l 272 1017 z "},"Í":{"ha":256,"x_min":111,"x_max":506,"o":"m 272 1017 l 306 1017 l 144 0 l 111 0 l 272 1017 m 469 1283 l 506 1283 l 292 1099 l 272 1099 l 469 1283 z "},"Ĭ":{"ha":256,"x_min":111,"x_max":500,"o":"m 272 1017 l 306 1017 l 144 0 l 111 0 l 272 1017 m 296 1101 q 192 1134 233 1101 q 150 1242 150 1167 q 153 1288 150 1254 l 172 1288 q 169 1246 169 1257 q 204 1151 169 1182 q 296 1121 239 1121 q 416 1160 365 1121 q 481 1288 467 1200 l 500 1288 q 427 1143 483 1185 q 296 1101 371 1101 z "},"Î":{"ha":256,"x_min":97,"x_max":475,"o":"m 272 1017 l 306 1017 l 144 0 l 111 0 l 272 1017 m 310 1279 l 338 1279 l 475 1099 l 450 1099 l 319 1258 l 122 1099 l 97 1099 l 310 1279 z "},"Ȉ":{"ha":256,"x_min":51,"x_max":393,"o":"m 272 1017 l 306 1017 l 144 0 l 111 0 l 272 1017 m 51 1283 l 88 1283 l 226 1099 l 207 1099 l 51 1283 m 218 1283 l 254 1283 l 393 1099 l 374 1099 l 218 1283 z "},"Ï":{"ha":256,"x_min":111,"x_max":464,"o":"m 272 1017 l 306 1017 l 144 0 l 111 0 l 272 1017 m 125 1147 q 111 1161 111 1147 l 125 1250 q 146 1267 126 1267 l 161 1267 q 175 1254 175 1267 q 160 1164 175 1260 q 140 1147 157 1147 l 125 1147 m 414 1147 q 400 1161 400 1147 l 414 1250 q 435 1267 415 1267 l 450 1267 q 464 1254 464 1267 q 449 1164 464 1260 q 429 1147 446 1147 l 414 1147 z "},"Ḯ":{"ha":256,"x_min":111,"x_max":519,"o":"m 272 1017 l 306 1017 l 144 0 l 111 0 l 272 1017 m 125 1147 q 111 1161 111 1147 l 125 1250 q 146 1267 126 1267 l 161 1267 q 175 1254 175 1267 q 160 1164 175 1260 q 140 1147 157 1147 l 125 1147 m 414 1147 q 400 1161 400 1147 l 414 1250 q 435 1267 415 1267 l 450 1267 q 464 1254 464 1267 q 449 1164 464 1260 q 429 1147 446 1147 l 414 1147 m 483 1506 l 519 1506 l 306 1321 l 286 1321 l 483 1506 z "},"İ":{"ha":256,"x_min":111,"x_max":350,"o":"m 272 1017 l 306 1017 l 144 0 l 111 0 l 272 1017 m 301 1157 q 288 1171 288 1157 l 288 1174 l 301 1260 q 321 1276 303 1276 l 336 1276 q 350 1264 350 1276 l 350 1260 l 336 1174 q 317 1157 333 1157 l 301 1157 z "},"Ị":{"ha":256,"x_min":50,"x_max":306,"o":"m 272 1017 l 306 1017 l 144 0 l 111 0 l 272 1017 m 64 -274 q 50 -260 50 -274 l 50 -257 l 64 -171 q 83 -154 65 -154 l 99 -154 q 113 -167 113 -154 l 113 -171 l 99 -257 q 79 -274 96 -274 l 64 -274 z "},"Ì":{"ha":256,"x_min":111,"x_max":338,"o":"m 272 1017 l 306 1017 l 144 0 l 111 0 l 272 1017 m 163 1283 l 199 1283 l 338 1099 l 318 1099 l 163 1283 z "},"Ỉ":{"ha":256,"x_min":111,"x_max":383,"o":"m 272 1017 l 306 1017 l 144 0 l 111 0 l 272 1017 m 247 1103 q 361 1226 361 1138 q 292 1286 361 1286 q 236 1278 264 1286 l 239 1297 q 299 1306 265 1306 q 383 1228 383 1306 q 349 1142 383 1181 q 243 1083 315 1103 l 247 1103 z "},"Ȋ":{"ha":256,"x_min":111,"x_max":472,"o":"m 272 1017 l 306 1017 l 144 0 l 111 0 l 272 1017 m 122 1101 q 195 1246 139 1204 q 326 1288 251 1288 q 431 1255 389 1288 q 472 1147 472 1222 q 469 1101 472 1135 l 450 1101 q 453 1143 453 1132 q 417 1238 453 1207 q 324 1268 382 1268 q 206 1228 257 1268 q 142 1101 156 1189 l 122 1101 z "},"Ī":{"ha":256,"x_min":111,"x_max":488,"o":"m 272 1017 l 306 1017 l 144 0 l 111 0 l 272 1017 m 138 1203 l 488 1203 l 483 1182 l 133 1182 l 138 1203 z "},"Į":{"ha":256,"x_min":-8,"x_max":306,"o":"m 272 1017 l 306 1017 l 144 0 l 111 0 l 272 1017 m 119 -253 q 26 -226 61 -253 q -8 -151 -8 -199 q 24 -72 -8 -114 q 128 0 57 -29 l 144 0 q 51 -69 85 -28 q 18 -146 18 -111 q 50 -210 18 -187 q 146 -232 82 -232 l 153 -232 l 149 -251 q 119 -253 138 -253 z "},"Ĩ":{"ha":256,"x_min":106,"x_max":597,"o":"m 272 1017 l 306 1017 l 144 0 l 111 0 l 272 1017 m 106 1140 q 156 1234 115 1204 q 247 1264 196 1264 q 302 1251 276 1264 q 360 1211 328 1238 q 413 1175 390 1188 q 463 1163 436 1163 q 538 1189 507 1163 q 578 1264 569 1215 l 597 1264 q 552 1174 589 1208 q 457 1140 515 1140 q 408 1153 431 1140 q 353 1190 385 1165 q 292 1229 315 1217 q 240 1242 269 1242 q 165 1217 197 1242 q 125 1140 133 1192 l 106 1140 z "},"J":{"ha":443,"x_min":43,"x_max":535,"o":"m 181 -8 q 43 26 96 -8 l 47 49 q 182 24 106 24 q 376 229 343 24 l 501 1017 l 535 1017 l 410 229 q 334 49 390 107 q 181 -8 278 -8 z "},"Ĵ":{"ha":443,"x_min":43,"x_max":708,"o":"m 181 -8 q 43 26 96 -8 l 47 49 q 182 24 106 24 q 376 229 343 24 l 501 1017 l 535 1017 l 410 229 q 334 49 390 107 q 181 -8 278 -8 m 543 1279 l 571 1279 l 708 1099 l 683 1099 l 553 1258 l 356 1099 l 331 1099 l 543 1279 z "},"K":{"ha":779,"x_min":111,"x_max":876,"o":"m 272 1017 l 306 1017 l 228 525 l 443 525 l 838 1017 l 876 1017 l 471 510 l 731 0 l 693 0 l 442 494 l 222 494 l 144 0 l 111 0 l 272 1017 z "},"Ķ":{"ha":779,"x_min":111,"x_max":876,"o":"m 272 1017 l 306 1017 l 228 525 l 443 525 l 838 1017 l 876 1017 l 471 510 l 731 0 l 693 0 l 442 494 l 222 494 l 144 0 l 111 0 l 272 1017 m 243 -251 l 288 -247 q 357 -231 332 -243 q 401 -184 382 -219 q 429 -76 419 -149 l 453 -76 q 424 -190 442 -150 q 372 -247 406 -229 q 278 -265 338 -265 l 240 -265 l 243 -251 z "},"L":{"ha":718,"x_min":135,"x_max":688,"o":"m 293 0 q 175 27 215 0 q 135 126 135 54 q 139 175 135 150 l 272 1017 l 306 1017 l 172 175 q 168 126 168 150 q 201 51 168 71 q 290 31 233 31 l 688 31 l 683 0 l 293 0 z "},"Ĺ":{"ha":718,"x_min":135,"x_max":688,"o":"m 293 0 q 175 27 215 0 q 135 126 135 54 q 139 175 135 150 l 272 1017 l 306 1017 l 172 175 q 168 126 168 150 q 201 51 168 71 q 290 31 233 31 l 688 31 l 683 0 l 293 0 m 482 1283 l 518 1283 l 304 1099 l 285 1099 l 482 1283 z "},"Ľ":{"ha":718,"x_min":135,"x_max":688,"o":"m 293 0 q 175 27 215 0 q 135 126 135 54 q 139 175 135 150 l 272 1017 l 306 1017 l 172 175 q 168 126 168 150 q 201 51 168 71 q 290 31 233 31 l 688 31 l 683 0 l 293 0 m 471 908 l 485 1001 l 519 1001 l 506 908 l 465 689 l 449 689 l 471 908 z "},"Ļ":{"ha":718,"x_min":135,"x_max":688,"o":"m 293 0 q 175 27 215 0 q 135 126 135 54 q 139 175 135 150 l 272 1017 l 306 1017 l 172 175 q 168 126 168 150 q 201 51 168 71 q 290 31 233 31 l 688 31 l 683 0 l 293 0 m 257 -251 l 301 -247 q 371 -231 346 -243 q 415 -184 396 -219 q 443 -76 433 -149 l 467 -76 q 438 -190 456 -150 q 385 -247 419 -229 q 292 -265 351 -265 l 254 -265 l 257 -251 z "},"Ŀ":{"ha":718,"x_min":135,"x_max":688,"o":"m 293 0 q 175 27 215 0 q 135 126 135 54 q 139 175 135 150 l 272 1017 l 306 1017 l 172 175 q 168 126 168 150 q 201 51 168 71 q 290 31 233 31 l 688 31 l 683 0 l 293 0 m 589 575 q 578 580 582 575 q 575 592 574 585 l 578 608 q 597 625 581 625 l 614 625 q 626 608 629 625 l 624 592 q 606 575 622 575 l 589 575 z "},"Ḷ":{"ha":718,"x_min":135,"x_max":688,"o":"m 293 0 q 175 27 215 0 q 135 126 135 54 q 139 175 135 150 l 272 1017 l 306 1017 l 172 175 q 168 126 168 150 q 201 51 168 71 q 290 31 233 31 l 688 31 l 683 0 l 293 0 m 326 -274 q 313 -260 313 -274 l 313 -257 l 326 -171 q 346 -154 328 -154 l 361 -154 q 375 -167 375 -154 l 375 -171 l 361 -257 q 342 -274 358 -274 l 326 -274 z "},"Ḻ":{"ha":718,"x_min":135,"x_max":688,"o":"m 293 0 q 175 27 215 0 q 135 126 135 54 q 139 175 135 150 l 272 1017 l 306 1017 l 172 175 q 168 126 168 150 q 201 51 168 71 q 290 31 233 31 l 688 31 l 683 0 l 293 0 m 172 -214 l 522 -214 l 518 -235 l 168 -235 l 172 -214 z "},"Ł":{"ha":718,"x_min":67,"x_max":688,"o":"m 688 31 l 683 0 l 293 0 q 175 27 215 0 q 135 126 135 54 q 139 175 135 150 l 190 496 l 67 447 l 71 476 l 194 525 l 272 1017 l 306 1017 l 229 536 l 439 621 l 435 593 l 225 508 l 172 175 q 168 126 168 150 q 201 51 168 71 q 290 31 233 31 l 688 31 z "},"M":{"ha":1069,"x_min":99,"x_max":1061,"o":"m 372 1017 l 403 1017 l 565 69 l 1031 1017 l 1061 1017 l 1017 0 l 983 0 l 1028 947 l 572 0 l 542 0 l 385 947 l 133 0 l 99 0 l 372 1017 z "},"Ṁ":{"ha":1069,"x_min":99,"x_max":1061,"o":"m 372 1017 l 403 1017 l 565 69 l 1031 1017 l 1061 1017 l 1017 0 l 983 0 l 1028 947 l 572 0 l 542 0 l 385 947 l 133 0 l 99 0 l 372 1017 m 717 1157 q 703 1171 703 1157 l 703 1174 l 717 1260 q 736 1276 718 1276 l 751 1276 q 765 1264 765 1276 l 765 1260 l 751 1174 q 732 1157 749 1157 l 717 1157 z "},"Ṃ":{"ha":1069,"x_min":99,"x_max":1061,"o":"m 372 1017 l 403 1017 l 565 69 l 1031 1017 l 1061 1017 l 1017 0 l 983 0 l 1028 947 l 572 0 l 542 0 l 385 947 l 133 0 l 99 0 l 372 1017 m 479 -274 q 465 -260 465 -274 l 465 -257 l 479 -171 q 499 -154 481 -154 l 514 -154 q 528 -167 528 -154 l 528 -171 l 514 -257 q 494 -274 511 -274 l 479 -274 z "},"N":{"ha":901,"x_min":111,"x_max":951,"o":"m 272 1017 l 303 1017 l 765 57 l 918 1017 l 951 1017 l 790 0 l 760 0 l 297 961 l 144 0 l 111 0 l 272 1017 z "},"Ń":{"ha":901,"x_min":111,"x_max":951,"o":"m 272 1017 l 303 1017 l 765 57 l 918 1017 l 951 1017 l 790 0 l 760 0 l 297 961 l 144 0 l 111 0 l 272 1017 m 788 1283 l 824 1283 l 610 1099 l 590 1099 l 788 1283 z "},"Ň":{"ha":901,"x_min":111,"x_max":951,"o":"m 272 1017 l 303 1017 l 765 57 l 918 1017 l 951 1017 l 790 0 l 760 0 l 297 961 l 144 0 l 111 0 l 272 1017 m 486 1279 l 511 1279 l 640 1119 l 839 1279 l 864 1279 l 651 1099 l 624 1099 l 486 1279 z "},"Ņ":{"ha":901,"x_min":111,"x_max":951,"o":"m 272 1017 l 303 1017 l 765 57 l 918 1017 l 951 1017 l 790 0 l 760 0 l 297 961 l 144 0 l 111 0 l 272 1017 m 313 -251 l 357 -247 q 426 -231 401 -243 q 470 -184 451 -219 q 499 -76 489 -149 l 522 -76 q 493 -190 511 -150 q 441 -247 475 -229 q 347 -265 407 -265 l 310 -265 l 313 -251 z "},"Ṅ":{"ha":901,"x_min":111,"x_max":951,"o":"m 272 1017 l 303 1017 l 765 57 l 918 1017 l 951 1017 l 790 0 l 760 0 l 297 961 l 144 0 l 111 0 l 272 1017 m 382 -274 q 368 -260 368 -274 l 368 -257 l 382 -171 q 401 -154 383 -154 l 417 -154 q 431 -167 431 -154 l 431 -171 l 417 -257 q 397 -274 414 -274 l 382 -274 z "},"Ṇ":{"ha":901,"x_min":111,"x_max":951,"o":"m 272 1017 l 303 1017 l 765 57 l 918 1017 l 951 1017 l 790 0 l 760 0 l 297 961 l 144 0 l 111 0 l 272 1017 m 382 -274 q 368 -260 368 -274 l 368 -257 l 382 -171 q 401 -154 383 -154 l 417 -154 q 431 -167 431 -154 l 431 -171 l 417 -257 q 397 -274 414 -274 l 382 -274 z "},"Ŋ":{"ha":901,"x_min":111,"x_max":951,"o":"m 951 1017 l 790 0 l 769 -128 q 686 -292 750 -246 q 507 -337 622 -337 q 431 -328 472 -337 q 364 -303 390 -318 l 367 -281 q 440 -299 399 -292 q 511 -307 481 -307 q 663 -269 607 -307 q 736 -128 718 -232 l 758 4 l 297 961 l 144 0 l 111 0 l 272 1017 l 303 1017 l 765 57 l 918 1017 l 951 1017 z "},"Ṉ":{"ha":901,"x_min":111,"x_max":951,"o":"m 272 1017 l 303 1017 l 765 57 l 918 1017 l 951 1017 l 790 0 l 760 0 l 297 961 l 144 0 l 111 0 l 272 1017 m 256 -214 l 606 -214 l 601 -235 l 251 -235 l 256 -214 z "},"Ñ":{"ha":901,"x_min":111,"x_max":951,"o":"m 272 1017 l 303 1017 l 765 57 l 918 1017 l 951 1017 l 790 0 l 760 0 l 297 961 l 144 0 l 111 0 l 272 1017 m 424 1140 q 474 1234 433 1204 q 565 1264 514 1264 q 620 1251 594 1264 q 678 1211 646 1238 q 731 1175 708 1188 q 781 1163 754 1163 q 856 1189 825 1163 q 896 1264 888 1215 l 915 1264 q 870 1174 907 1208 q 775 1140 833 1140 q 726 1153 749 1140 q 671 1190 703 1165 q 610 1229 633 1217 q 558 1242 588 1242 q 483 1217 515 1242 q 443 1140 451 1192 l 424 1140 z "},"O":{"ha":942,"x_min":156,"x_max":944,"o":"m 467 -8 q 293 15 360 -8 q 191 99 226 38 q 156 276 156 161 q 178 511 156 374 q 267 831 211 719 q 410 983 324 942 q 635 1025 497 1025 q 805 999 738 1025 q 908 908 872 972 q 944 728 944 843 q 922 492 944 629 q 832 178 890 286 q 688 31 774 69 q 467 -8 601 -8 m 475 22 q 679 58 603 22 q 806 196 756 93 q 889 501 856 299 q 910 729 910 626 q 877 895 910 838 q 784 974 844 953 q 628 994 724 994 q 425 956 503 994 q 295 812 347 918 q 211 501 243 706 q 189 276 189 354 q 219 117 189 172 q 310 42 250 63 q 475 22 371 22 z "},"Ó":{"ha":942,"x_min":156,"x_max":944,"o":"m 467 -8 q 293 15 360 -8 q 191 99 226 38 q 156 276 156 161 q 178 511 156 374 q 267 831 211 719 q 410 983 324 942 q 635 1025 497 1025 q 805 999 738 1025 q 908 908 872 972 q 944 728 944 843 q 922 492 944 629 q 832 178 890 286 q 688 31 774 69 q 467 -8 601 -8 m 475 22 q 679 58 603 22 q 806 196 756 93 q 889 501 856 299 q 910 729 910 626 q 877 895 910 838 q 784 974 844 953 q 628 994 724 994 q 425 956 503 994 q 295 812 347 918 q 211 501 243 706 q 189 276 189 354 q 219 117 189 172 q 310 42 250 63 q 475 22 371 22 m 818 1283 l 854 1283 l 640 1099 l 621 1099 l 818 1283 z "},"Ŏ":{"ha":942,"x_min":156,"x_max":944,"o":"m 467 -8 q 293 15 360 -8 q 191 99 226 38 q 156 276 156 161 q 178 511 156 374 q 267 831 211 719 q 410 983 324 942 q 635 1025 497 1025 q 805 999 738 1025 q 908 908 872 972 q 944 728 944 843 q 922 492 944 629 q 832 178 890 286 q 688 31 774 69 q 467 -8 601 -8 m 475 22 q 679 58 603 22 q 806 196 756 93 q 889 501 856 299 q 910 729 910 626 q 877 895 910 838 q 784 974 844 953 q 628 994 724 994 q 425 956 503 994 q 295 812 347 918 q 211 501 243 706 q 189 276 189 354 q 219 117 189 172 q 310 42 250 63 q 475 22 371 22 m 644 1101 q 540 1134 582 1101 q 499 1242 499 1167 q 501 1288 499 1254 l 521 1288 q 518 1246 518 1257 q 553 1151 518 1182 q 644 1121 588 1121 q 765 1160 714 1121 q 829 1288 815 1200 l 849 1288 q 776 1143 832 1185 q 644 1101 719 1101 z "},"Ô":{"ha":942,"x_min":156,"x_max":944,"o":"m 467 -8 q 293 15 360 -8 q 191 99 226 38 q 156 276 156 161 q 178 511 156 374 q 267 831 211 719 q 410 983 324 942 q 635 1025 497 1025 q 805 999 738 1025 q 908 908 872 972 q 944 728 944 843 q 922 492 944 629 q 832 178 890 286 q 688 31 774 69 q 467 -8 601 -8 m 475 22 q 679 58 603 22 q 806 196 756 93 q 889 501 856 299 q 910 729 910 626 q 877 895 910 838 q 784 974 844 953 q 628 994 724 994 q 425 956 503 994 q 295 812 347 918 q 211 501 243 706 q 189 276 189 354 q 219 117 189 172 q 310 42 250 63 q 475 22 371 22 m 658 1279 l 686 1279 l 824 1099 l 799 1099 l 668 1258 l 471 1099 l 446 1099 l 658 1279 z "},"Ố":{"ha":942,"x_min":156,"x_max":1007,"o":"m 467 -8 q 293 15 360 -8 q 191 99 226 38 q 156 276 156 161 q 178 511 156 374 q 267 831 211 719 q 410 983 324 942 q 635 1025 497 1025 q 805 999 738 1025 q 908 908 872 972 q 944 728 944 843 q 922 492 944 629 q 832 178 890 286 q 688 31 774 69 q 467 -8 601 -8 m 475 22 q 679 58 603 22 q 806 196 756 93 q 889 501 856 299 q 910 729 910 626 q 877 895 910 838 q 784 974 844 953 q 628 994 724 994 q 425 956 503 994 q 295 812 347 918 q 211 501 243 706 q 189 276 189 354 q 219 117 189 172 q 310 42 250 63 q 475 22 371 22 m 971 1381 l 1007 1381 l 793 1196 l 774 1196 l 971 1381 m 653 1224 l 681 1224 l 828 1099 l 803 1099 l 664 1203 l 475 1099 l 450 1099 l 653 1224 z "},"Ộ":{"ha":942,"x_min":156,"x_max":944,"o":"m 467 -8 q 293 15 360 -8 q 191 99 226 38 q 156 276 156 161 q 178 511 156 374 q 267 831 211 719 q 410 983 324 942 q 635 1025 497 1025 q 805 999 738 1025 q 908 908 872 972 q 944 728 944 843 q 922 492 944 629 q 832 178 890 286 q 688 31 774 69 q 467 -8 601 -8 m 475 22 q 679 58 603 22 q 806 196 756 93 q 889 501 856 299 q 910 729 910 626 q 877 895 910 838 q 784 974 844 953 q 628 994 724 994 q 425 956 503 994 q 295 812 347 918 q 211 501 243 706 q 189 276 189 354 q 219 117 189 172 q 310 42 250 63 q 475 22 371 22 m 658 1279 l 686 1279 l 824 1099 l 799 1099 l 668 1258 l 471 1099 l 446 1099 l 658 1279 m 413 -274 q 399 -260 399 -274 l 399 -257 l 413 -171 q 432 -154 414 -154 l 447 -154 q 461 -167 461 -154 l 461 -171 l 447 -257 q 428 -274 444 -274 l 413 -274 z "},"Ồ":{"ha":942,"x_min":156,"x_max":944,"o":"m 467 -8 q 293 15 360 -8 q 191 99 226 38 q 156 276 156 161 q 178 511 156 374 q 267 831 211 719 q 410 983 324 942 q 635 1025 497 1025 q 805 999 738 1025 q 908 908 872 972 q 944 728 944 843 q 922 492 944 629 q 832 178 890 286 q 688 31 774 69 q 467 -8 601 -8 m 475 22 q 679 58 603 22 q 806 196 756 93 q 889 501 856 299 q 910 729 910 626 q 877 895 910 838 q 784 974 844 953 q 628 994 724 994 q 425 956 503 994 q 295 812 347 918 q 211 501 243 706 q 189 276 189 354 q 219 117 189 172 q 310 42 250 63 q 475 22 371 22 m 375 1381 l 411 1381 l 550 1196 l 531 1196 l 375 1381 m 642 1224 l 669 1224 l 817 1099 l 792 1099 l 653 1203 l 464 1099 l 439 1099 l 642 1224 z "},"Ổ":{"ha":942,"x_min":156,"x_max":944,"o":"m 467 -8 q 293 15 360 -8 q 191 99 226 38 q 156 276 156 161 q 178 511 156 374 q 267 831 211 719 q 410 983 324 942 q 635 1025 497 1025 q 805 999 738 1025 q 908 908 872 972 q 944 728 944 843 q 922 492 944 629 q 832 178 890 286 q 688 31 774 69 q 467 -8 601 -8 m 475 22 q 679 58 603 22 q 806 196 756 93 q 889 501 856 299 q 910 729 910 626 q 877 895 910 838 q 784 974 844 953 q 628 994 724 994 q 425 956 503 994 q 295 812 347 918 q 211 501 243 706 q 189 276 189 354 q 219 117 189 172 q 310 42 250 63 q 475 22 371 22 m 800 1186 q 881 1231 857 1203 q 906 1292 906 1260 q 839 1342 906 1342 q 785 1333 810 1342 l 788 1353 q 844 1361 813 1361 q 907 1342 886 1361 q 928 1292 928 1324 q 897 1218 928 1251 q 797 1167 865 1185 l 800 1186 m 658 1224 l 686 1224 l 833 1099 l 808 1099 l 669 1203 l 481 1099 l 456 1099 l 658 1224 z "},"Ỗ":{"ha":942,"x_min":156,"x_max":944,"o":"m 467 -8 q 293 15 360 -8 q 191 99 226 38 q 156 276 156 161 q 178 511 156 374 q 267 831 211 719 q 410 983 324 942 q 635 1025 497 1025 q 805 999 738 1025 q 908 908 872 972 q 944 728 944 843 q 922 492 944 629 q 832 178 890 286 q 688 31 774 69 q 467 -8 601 -8 m 475 22 q 679 58 603 22 q 806 196 756 93 q 889 501 856 299 q 910 729 910 626 q 877 895 910 838 q 784 974 844 953 q 628 994 724 994 q 425 956 503 994 q 295 812 347 918 q 211 501 243 706 q 189 276 189 354 q 219 117 189 172 q 310 42 250 63 q 475 22 371 22 m 461 1293 q 504 1366 468 1343 q 583 1389 540 1389 q 639 1378 613 1389 q 697 1350 665 1368 q 751 1324 728 1333 q 799 1315 774 1315 q 866 1335 838 1315 q 900 1389 894 1354 l 919 1389 q 879 1319 913 1346 q 793 1293 846 1293 q 742 1302 767 1293 q 688 1329 718 1311 q 631 1357 656 1347 q 578 1367 607 1367 q 514 1349 542 1367 q 481 1293 486 1331 l 461 1293 m 660 1224 l 688 1224 l 833 1099 l 808 1099 l 669 1203 l 481 1099 l 456 1099 l 660 1224 z "},"Ȍ":{"ha":942,"x_min":156,"x_max":944,"o":"m 467 -8 q 293 15 360 -8 q 191 99 226 38 q 156 276 156 161 q 178 511 156 374 q 267 831 211 719 q 410 983 324 942 q 635 1025 497 1025 q 805 999 738 1025 q 908 908 872 972 q 944 728 944 843 q 922 492 944 629 q 832 178 890 286 q 688 31 774 69 q 467 -8 601 -8 m 475 22 q 679 58 603 22 q 806 196 756 93 q 889 501 856 299 q 910 729 910 626 q 877 895 910 838 q 784 974 844 953 q 628 994 724 994 q 425 956 503 994 q 295 812 347 918 q 211 501 243 706 q 189 276 189 354 q 219 117 189 172 q 310 42 250 63 q 475 22 371 22 m 400 1283 l 436 1283 l 575 1099 l 556 1099 l 400 1283 m 567 1283 l 603 1283 l 742 1099 l 722 1099 l 567 1283 z "},"Ö":{"ha":942,"x_min":156,"x_max":944,"o":"m 467 -8 q 293 15 360 -8 q 191 99 226 38 q 156 276 156 161 q 178 511 156 374 q 267 831 211 719 q 410 983 324 942 q 635 1025 497 1025 q 805 999 738 1025 q 908 908 872 972 q 944 728 944 843 q 922 492 944 629 q 832 178 890 286 q 688 31 774 69 q 467 -8 601 -8 m 475 22 q 679 58 603 22 q 806 196 756 93 q 889 501 856 299 q 910 729 910 626 q 877 895 910 838 q 784 974 844 953 q 628 994 724 994 q 425 956 503 994 q 295 812 347 918 q 211 501 243 706 q 189 276 189 354 q 219 117 189 172 q 310 42 250 63 q 475 22 371 22 m 474 1147 q 460 1161 460 1147 l 474 1250 q 494 1267 475 1267 l 510 1267 q 524 1254 524 1267 q 508 1164 524 1260 q 489 1147 506 1147 l 474 1147 m 763 1147 q 749 1161 749 1147 l 763 1250 q 783 1267 764 1267 l 799 1267 q 813 1254 813 1267 q 797 1164 813 1260 q 778 1147 794 1147 l 763 1147 z "},"Ȫ":{"ha":942,"x_min":156,"x_max":944,"o":"m 467 -8 q 293 15 360 -8 q 191 99 226 38 q 156 276 156 161 q 178 511 156 374 q 267 831 211 719 q 410 983 324 942 q 635 1025 497 1025 q 805 999 738 1025 q 908 908 872 972 q 944 728 944 843 q 922 492 944 629 q 832 178 890 286 q 688 31 774 69 q 467 -8 601 -8 m 475 22 q 679 58 603 22 q 806 196 756 93 q 889 501 856 299 q 910 729 910 626 q 877 895 910 838 q 784 974 844 953 q 628 994 724 994 q 425 956 503 994 q 295 812 347 918 q 211 501 243 706 q 189 276 189 354 q 219 117 189 172 q 310 42 250 63 q 475 22 371 22 m 488 1147 q 474 1161 474 1147 l 488 1250 q 508 1267 489 1267 l 524 1267 q 538 1254 538 1267 q 522 1164 538 1260 q 503 1147 519 1147 l 488 1147 m 776 1147 q 763 1161 763 1147 l 776 1250 q 797 1267 778 1267 l 813 1267 q 826 1254 826 1267 q 811 1164 826 1260 q 792 1147 808 1147 l 776 1147 m 500 1383 l 850 1383 l 846 1363 l 496 1363 l 500 1383 z "},"Ȱ":{"ha":942,"x_min":156,"x_max":944,"o":"m 467 -8 q 293 15 360 -8 q 191 99 226 38 q 156 276 156 161 q 178 511 156 374 q 267 831 211 719 q 410 983 324 942 q 635 1025 497 1025 q 805 999 738 1025 q 908 908 872 972 q 944 728 944 843 q 922 492 944 629 q 832 178 890 286 q 688 31 774 69 q 467 -8 601 -8 m 475 22 q 679 58 603 22 q 806 196 756 93 q 889 501 856 299 q 910 729 910 626 q 877 895 910 838 q 784 974 844 953 q 628 994 724 994 q 425 956 503 994 q 295 812 347 918 q 211 501 243 706 q 189 276 189 354 q 219 117 189 172 q 310 42 250 63 q 475 22 371 22 m 650 1157 q 636 1171 636 1157 l 636 1174 l 650 1260 q 669 1276 651 1276 l 685 1276 q 699 1264 699 1276 l 699 1260 l 685 1174 q 665 1157 682 1157 l 650 1157 m 514 1411 l 864 1411 l 860 1390 l 510 1390 l 514 1411 z "},"Ọ":{"ha":942,"x_min":156,"x_max":944,"o":"m 467 -8 q 293 15 360 -8 q 191 99 226 38 q 156 276 156 161 q 178 511 156 374 q 267 831 211 719 q 410 983 324 942 q 635 1025 497 1025 q 805 999 738 1025 q 908 908 872 972 q 944 728 944 843 q 922 492 944 629 q 832 178 890 286 q 688 31 774 69 q 467 -8 601 -8 m 475 22 q 679 58 603 22 q 806 196 756 93 q 889 501 856 299 q 910 729 910 626 q 877 895 910 838 q 784 974 844 953 q 628 994 724 994 q 425 956 503 994 q 295 812 347 918 q 211 501 243 706 q 189 276 189 354 q 219 117 189 172 q 310 42 250 63 q 475 22 371 22 m 413 -274 q 399 -260 399 -274 l 399 -257 l 413 -171 q 432 -154 414 -154 l 447 -154 q 461 -167 461 -154 l 461 -171 l 447 -257 q 428 -274 444 -274 l 413 -274 z "},"Ò":{"ha":942,"x_min":156,"x_max":944,"o":"m 467 -8 q 293 15 360 -8 q 191 99 226 38 q 156 276 156 161 q 178 511 156 374 q 267 831 211 719 q 410 983 324 942 q 635 1025 497 1025 q 805 999 738 1025 q 908 908 872 972 q 944 728 944 843 q 922 492 944 629 q 832 178 890 286 q 688 31 774 69 q 467 -8 601 -8 m 475 22 q 679 58 603 22 q 806 196 756 93 q 889 501 856 299 q 910 729 910 626 q 877 895 910 838 q 784 974 844 953 q 628 994 724 994 q 425 956 503 994 q 295 812 347 918 q 211 501 243 706 q 189 276 189 354 q 219 117 189 172 q 310 42 250 63 q 475 22 371 22 m 511 1283 l 547 1283 l 686 1099 l 667 1099 l 511 1283 z "},"Ỏ":{"ha":942,"x_min":156,"x_max":944,"o":"m 467 -8 q 293 15 360 -8 q 191 99 226 38 q 156 276 156 161 q 178 511 156 374 q 267 831 211 719 q 410 983 324 942 q 635 1025 497 1025 q 805 999 738 1025 q 908 908 872 972 q 944 728 944 843 q 922 492 944 629 q 832 178 890 286 q 688 31 774 69 q 467 -8 601 -8 m 475 22 q 679 58 603 22 q 806 196 756 93 q 889 501 856 299 q 910 729 910 626 q 877 895 910 838 q 784 974 844 953 q 628 994 724 994 q 425 956 503 994 q 295 812 347 918 q 211 501 243 706 q 189 276 189 354 q 219 117 189 172 q 310 42 250 63 q 475 22 371 22 m 596 1103 q 710 1226 710 1138 q 640 1286 710 1286 q 585 1278 613 1286 l 588 1297 q 647 1306 614 1306 q 732 1228 732 1306 q 698 1142 732 1181 q 592 1083 664 1103 l 596 1103 z "},"Ơ":{"ha":942,"x_min":156,"x_max":1036,"o":"m 1036 1178 q 971 1035 1019 1075 q 860 994 922 994 l 815 994 q 912 901 879 965 q 944 728 944 836 q 922 492 944 629 q 832 178 890 286 q 688 31 774 69 q 467 -8 601 -8 q 293 15 360 -8 q 191 99 226 38 q 156 276 156 161 q 178 511 156 374 q 267 831 211 719 q 410 983 324 942 q 635 1025 497 1025 q 742 1017 693 1025 l 864 1017 q 1006 1178 979 1017 l 1036 1178 m 910 729 q 877 895 910 838 q 784 974 844 953 q 628 994 724 994 q 425 956 503 994 q 295 812 347 918 q 211 501 243 706 q 189 276 189 354 q 219 117 189 172 q 310 42 250 63 q 475 22 371 22 q 679 58 603 22 q 806 196 756 93 q 889 501 856 299 q 910 729 910 626 z "},"Ớ":{"ha":942,"x_min":156,"x_max":1036,"o":"m 1036 1178 q 971 1035 1019 1075 q 860 994 922 994 l 815 994 q 912 901 879 965 q 944 728 944 836 q 922 492 944 629 q 832 178 890 286 q 688 31 774 69 q 467 -8 601 -8 q 293 15 360 -8 q 191 99 226 38 q 156 276 156 161 q 178 511 156 374 q 267 831 211 719 q 410 983 324 942 q 635 1025 497 1025 q 742 1017 693 1025 l 864 1017 q 1006 1178 979 1017 l 1036 1178 m 910 729 q 877 895 910 838 q 784 974 844 953 q 628 994 724 994 q 425 956 503 994 q 295 812 347 918 q 211 501 243 706 q 189 276 189 354 q 219 117 189 172 q 310 42 250 63 q 475 22 371 22 q 679 58 603 22 q 806 196 756 93 q 889 501 856 299 q 910 729 910 626 m 814 1283 l 850 1283 l 636 1099 l 617 1099 l 814 1283 z "},"Ợ":{"ha":942,"x_min":156,"x_max":1036,"o":"m 1036 1178 q 971 1035 1019 1075 q 860 994 922 994 l 815 994 q 912 901 879 965 q 944 728 944 836 q 922 492 944 629 q 832 178 890 286 q 688 31 774 69 q 467 -8 601 -8 q 293 15 360 -8 q 191 99 226 38 q 156 276 156 161 q 178 511 156 374 q 267 831 211 719 q 410 983 324 942 q 635 1025 497 1025 q 742 1017 693 1025 l 864 1017 q 1006 1178 979 1017 l 1036 1178 m 910 729 q 877 895 910 838 q 784 974 844 953 q 628 994 724 994 q 425 956 503 994 q 295 812 347 918 q 211 501 243 706 q 189 276 189 354 q 219 117 189 172 q 310 42 250 63 q 475 22 371 22 q 679 58 603 22 q 806 196 756 93 q 889 501 856 299 q 910 729 910 626 m 397 -274 q 383 -260 383 -274 l 383 -257 l 397 -171 q 417 -154 399 -154 l 432 -154 q 446 -167 446 -154 l 446 -171 l 432 -257 q 413 -274 429 -274 l 397 -274 z "},"Ờ":{"ha":942,"x_min":156,"x_max":1036,"o":"m 1036 1178 q 971 1035 1019 1075 q 860 994 922 994 l 815 994 q 912 901 879 965 q 944 728 944 836 q 922 492 944 629 q 832 178 890 286 q 688 31 774 69 q 467 -8 601 -8 q 293 15 360 -8 q 191 99 226 38 q 156 276 156 161 q 178 511 156 374 q 267 831 211 719 q 410 983 324 942 q 635 1025 497 1025 q 742 1017 693 1025 l 864 1017 q 1006 1178 979 1017 l 1036 1178 m 910 729 q 877 895 910 838 q 784 974 844 953 q 628 994 724 994 q 425 956 503 994 q 295 812 347 918 q 211 501 243 706 q 189 276 189 354 q 219 117 189 172 q 310 42 250 63 q 475 22 371 22 q 679 58 603 22 q 806 196 756 93 q 889 501 856 299 q 910 729 910 626 m 507 1283 l 543 1283 l 682 1099 l 663 1099 l 507 1283 z "},"Ở":{"ha":942,"x_min":156,"x_max":1036,"o":"m 1036 1178 q 971 1035 1019 1075 q 860 994 922 994 l 815 994 q 912 901 879 965 q 944 728 944 836 q 922 492 944 629 q 832 178 890 286 q 688 31 774 69 q 467 -8 601 -8 q 293 15 360 -8 q 191 99 226 38 q 156 276 156 161 q 178 511 156 374 q 267 831 211 719 q 410 983 324 942 q 635 1025 497 1025 q 742 1017 693 1025 l 864 1017 q 1006 1178 979 1017 l 1036 1178 m 910 729 q 877 895 910 838 q 784 974 844 953 q 628 994 724 994 q 425 956 503 994 q 295 812 347 918 q 211 501 243 706 q 189 276 189 354 q 219 117 189 172 q 310 42 250 63 q 475 22 371 22 q 679 58 603 22 q 806 196 756 93 q 889 501 856 299 q 910 729 910 626 m 592 1103 q 706 1226 706 1138 q 636 1286 706 1286 q 581 1278 608 1286 l 583 1297 q 643 1306 610 1306 q 728 1228 728 1306 q 694 1142 728 1181 q 588 1083 660 1103 l 592 1103 z "},"Ỡ":{"ha":942,"x_min":156,"x_max":1036,"o":"m 1036 1178 q 971 1035 1019 1075 q 860 994 922 994 l 815 994 q 912 901 879 965 q 944 728 944 836 q 922 492 944 629 q 832 178 890 286 q 688 31 774 69 q 467 -8 601 -8 q 293 15 360 -8 q 191 99 226 38 q 156 276 156 161 q 178 511 156 374 q 267 831 211 719 q 410 983 324 942 q 635 1025 497 1025 q 742 1017 693 1025 l 864 1017 q 1006 1178 979 1017 l 1036 1178 m 910 729 q 877 895 910 838 q 784 974 844 953 q 628 994 724 994 q 425 956 503 994 q 295 812 347 918 q 211 501 243 706 q 189 276 189 354 q 219 117 189 172 q 310 42 250 63 q 475 22 371 22 q 679 58 603 22 q 806 196 756 93 q 889 501 856 299 q 910 729 910 626 m 450 1140 q 500 1234 460 1204 q 592 1264 540 1264 q 647 1251 621 1264 q 704 1211 672 1238 q 758 1175 735 1188 q 807 1163 781 1163 q 883 1189 851 1163 q 922 1264 914 1215 l 942 1264 q 897 1174 933 1208 q 801 1140 860 1140 q 752 1153 775 1140 q 697 1190 729 1165 q 637 1229 660 1217 q 585 1242 614 1242 q 510 1217 542 1242 q 469 1140 478 1192 l 450 1140 z "},"Ő":{"ha":942,"x_min":156,"x_max":944,"o":"m 467 -8 q 293 15 360 -8 q 191 99 226 38 q 156 276 156 161 q 178 511 156 374 q 267 831 211 719 q 410 983 324 942 q 635 1025 497 1025 q 805 999 738 1025 q 908 908 872 972 q 944 728 944 843 q 922 492 944 629 q 832 178 890 286 q 688 31 774 69 q 467 -8 601 -8 m 475 22 q 679 58 603 22 q 806 196 756 93 q 889 501 856 299 q 910 729 910 626 q 877 895 910 838 q 784 974 844 953 q 628 994 724 994 q 425 956 503 994 q 295 812 347 918 q 211 501 243 706 q 189 276 189 354 q 219 117 189 172 q 310 42 250 63 q 475 22 371 22 m 707 1283 l 743 1283 l 529 1099 l 510 1099 l 707 1283 m 900 1283 l 936 1283 l 722 1099 l 703 1099 l 900 1283 z "},"Ȏ":{"ha":942,"x_min":156,"x_max":944,"o":"m 467 -8 q 293 15 360 -8 q 191 99 226 38 q 156 276 156 161 q 178 511 156 374 q 267 831 211 719 q 410 983 324 942 q 635 1025 497 1025 q 805 999 738 1025 q 908 908 872 972 q 944 728 944 843 q 922 492 944 629 q 832 178 890 286 q 688 31 774 69 q 467 -8 601 -8 m 475 22 q 679 58 603 22 q 806 196 756 93 q 889 501 856 299 q 910 729 910 626 q 877 895 910 838 q 784 974 844 953 q 628 994 724 994 q 425 956 503 994 q 295 812 347 918 q 211 501 243 706 q 189 276 189 354 q 219 117 189 172 q 310 42 250 63 q 475 22 371 22 m 471 1101 q 544 1246 488 1204 q 675 1288 600 1288 q 779 1255 738 1288 q 821 1147 821 1222 q 818 1101 821 1135 l 799 1101 q 801 1143 801 1132 q 766 1238 801 1207 q 672 1268 731 1268 q 555 1228 606 1268 q 490 1101 504 1189 l 471 1101 z "},"Ō":{"ha":942,"x_min":156,"x_max":944,"o":"m 467 -8 q 293 15 360 -8 q 191 99 226 38 q 156 276 156 161 q 178 511 156 374 q 267 831 211 719 q 410 983 324 942 q 635 1025 497 1025 q 805 999 738 1025 q 908 908 872 972 q 944 728 944 843 q 922 492 944 629 q 832 178 890 286 q 688 31 774 69 q 467 -8 601 -8 m 475 22 q 679 58 603 22 q 806 196 756 93 q 889 501 856 299 q 910 729 910 626 q 877 895 910 838 q 784 974 844 953 q 628 994 724 994 q 425 956 503 994 q 295 812 347 918 q 211 501 243 706 q 189 276 189 354 q 219 117 189 172 q 310 42 250 63 q 475 22 371 22 m 486 1203 l 836 1203 l 832 1182 l 482 1182 l 486 1203 z "},"Ṓ":{"ha":942,"x_min":156,"x_max":944,"o":"m 467 -8 q 293 15 360 -8 q 191 99 226 38 q 156 276 156 161 q 178 511 156 374 q 267 831 211 719 q 410 983 324 942 q 635 1025 497 1025 q 805 999 738 1025 q 908 908 872 972 q 944 728 944 843 q 922 492 944 629 q 832 178 890 286 q 688 31 774 69 q 467 -8 601 -8 m 475 22 q 679 58 603 22 q 806 196 756 93 q 889 501 856 299 q 910 729 910 626 q 877 895 910 838 q 784 974 844 953 q 628 994 724 994 q 425 956 503 994 q 295 812 347 918 q 211 501 243 706 q 189 276 189 354 q 219 117 189 172 q 310 42 250 63 q 475 22 371 22 m 486 1203 l 836 1203 l 832 1182 l 482 1182 l 486 1203 m 846 1450 l 882 1450 l 668 1265 l 649 1265 l 846 1450 z "},"Ṑ":{"ha":942,"x_min":156,"x_max":944,"o":"m 467 -8 q 293 15 360 -8 q 191 99 226 38 q 156 276 156 161 q 178 511 156 374 q 267 831 211 719 q 410 983 324 942 q 635 1025 497 1025 q 805 999 738 1025 q 908 908 872 972 q 944 728 944 843 q 922 492 944 629 q 832 178 890 286 q 688 31 774 69 q 467 -8 601 -8 m 475 22 q 679 58 603 22 q 806 196 756 93 q 889 501 856 299 q 910 729 910 626 q 877 895 910 838 q 784 974 844 953 q 628 994 724 994 q 425 956 503 994 q 295 812 347 918 q 211 501 243 706 q 189 276 189 354 q 219 117 189 172 q 310 42 250 63 q 475 22 371 22 m 486 1203 l 836 1203 l 832 1182 l 482 1182 l 486 1203 m 511 1450 l 547 1450 l 686 1265 l 667 1265 l 511 1450 z "},"Ǫ":{"ha":942,"x_min":156,"x_max":944,"o":"m 635 1025 q 805 999 738 1025 q 908 908 872 972 q 944 728 944 843 q 922 492 944 629 q 850 217 894 319 q 741 64 806 114 q 585 0 676 14 q 492 -69 525 -28 q 458 -146 458 -111 q 490 -210 458 -187 q 586 -232 522 -232 l 593 -232 l 589 -251 q 560 -253 578 -253 q 467 -226 501 -253 q 432 -151 432 -199 q 463 -74 432 -115 q 560 -4 494 -33 q 467 -8 517 -8 q 293 15 360 -8 q 191 99 226 38 q 156 276 156 161 q 178 511 156 374 q 267 831 211 719 q 410 983 324 942 q 635 1025 497 1025 m 889 501 q 910 729 910 626 q 877 895 910 838 q 784 974 844 953 q 628 994 724 994 q 425 956 503 994 q 295 812 347 918 q 211 501 243 706 q 189 276 189 354 q 219 117 189 172 q 310 42 250 63 q 475 22 371 22 q 679 58 603 22 q 806 196 756 93 q 889 501 856 299 z "},"Ø":{"ha":942,"x_min":90,"x_max":1013,"o":"m 911 901 q 944 728 944 838 q 922 492 944 629 q 832 178 890 286 q 688 31 774 69 q 467 -8 601 -8 q 300 13 364 -8 q 200 86 236 33 l 125 0 l 90 0 l 186 110 q 156 276 156 169 q 178 511 156 374 q 267 831 211 719 q 410 983 324 942 q 635 1025 497 1025 q 797 1002 732 1025 q 897 925 861 979 l 978 1017 l 1013 1017 l 911 901 m 189 276 q 210 138 189 190 l 875 899 q 783 974 843 953 q 628 994 724 994 q 425 956 503 994 q 295 812 347 918 q 211 501 243 706 q 189 276 189 354 m 910 729 q 888 874 910 814 l 222 111 q 312 41 251 60 q 475 22 372 22 q 679 58 603 22 q 806 196 756 93 q 889 501 856 299 q 910 729 910 626 z "},"Ǿ":{"ha":942,"x_min":90,"x_max":1013,"o":"m 911 901 q 944 728 944 838 q 922 492 944 629 q 832 178 890 286 q 688 31 774 69 q 467 -8 601 -8 q 300 13 364 -8 q 200 86 236 33 l 125 0 l 90 0 l 186 110 q 156 276 156 169 q 178 511 156 374 q 267 831 211 719 q 410 983 324 942 q 635 1025 497 1025 q 797 1002 732 1025 q 897 925 861 979 l 978 1017 l 1013 1017 l 911 901 m 189 276 q 210 138 189 190 l 875 899 q 783 974 843 953 q 628 994 724 994 q 425 956 503 994 q 295 812 347 918 q 211 501 243 706 q 189 276 189 354 m 910 729 q 888 874 910 814 l 222 111 q 312 41 251 60 q 475 22 372 22 q 679 58 603 22 q 806 196 756 93 q 889 501 856 299 q 910 729 910 626 m 814 1283 l 850 1283 l 636 1099 l 617 1099 l 814 1283 z "},"Õ":{"ha":942,"x_min":156,"x_max":946,"o":"m 467 -8 q 293 15 360 -8 q 191 99 226 38 q 156 276 156 161 q 178 511 156 374 q 267 831 211 719 q 410 983 324 942 q 635 1025 497 1025 q 805 999 738 1025 q 908 908 872 972 q 944 728 944 843 q 922 492 944 629 q 832 178 890 286 q 688 31 774 69 q 467 -8 601 -8 m 475 22 q 679 58 603 22 q 806 196 756 93 q 889 501 856 299 q 910 729 910 626 q 877 895 910 838 q 784 974 844 953 q 628 994 724 994 q 425 956 503 994 q 295 812 347 918 q 211 501 243 706 q 189 276 189 354 q 219 117 189 172 q 310 42 250 63 q 475 22 371 22 m 454 1140 q 504 1234 464 1204 q 596 1264 544 1264 q 651 1251 625 1264 q 708 1211 676 1238 q 762 1175 739 1188 q 811 1163 785 1163 q 887 1189 856 1163 q 926 1264 918 1215 l 946 1264 q 901 1174 938 1208 q 806 1140 864 1140 q 756 1153 779 1140 q 701 1190 733 1165 q 641 1229 664 1217 q 589 1242 618 1242 q 514 1217 546 1242 q 474 1140 482 1192 l 454 1140 z "},"Ṍ":{"ha":942,"x_min":156,"x_max":946,"o":"m 467 -8 q 293 15 360 -8 q 191 99 226 38 q 156 276 156 161 q 178 511 156 374 q 267 831 211 719 q 410 983 324 942 q 635 1025 497 1025 q 805 999 738 1025 q 908 908 872 972 q 944 728 944 843 q 922 492 944 629 q 832 178 890 286 q 688 31 774 69 q 467 -8 601 -8 m 475 22 q 679 58 603 22 q 806 196 756 93 q 889 501 856 299 q 910 729 910 626 q 877 895 910 838 q 784 974 844 953 q 628 994 724 994 q 425 956 503 994 q 295 812 347 918 q 211 501 243 706 q 189 276 189 354 q 219 117 189 172 q 310 42 250 63 q 475 22 371 22 m 454 1140 q 504 1234 464 1204 q 596 1264 544 1264 q 651 1251 625 1264 q 708 1211 676 1238 q 762 1175 739 1188 q 811 1163 785 1163 q 887 1189 856 1163 q 926 1264 918 1215 l 946 1264 q 901 1174 938 1208 q 806 1140 864 1140 q 756 1153 779 1140 q 701 1190 733 1165 q 641 1229 664 1217 q 589 1242 618 1242 q 514 1217 546 1242 q 474 1140 482 1192 l 454 1140 m 860 1506 l 896 1506 l 682 1321 l 663 1321 l 860 1506 z "},"Ṏ":{"ha":942,"x_min":156,"x_max":944,"o":"m 467 -8 q 293 15 360 -8 q 191 99 226 38 q 156 276 156 161 q 178 511 156 374 q 267 831 211 719 q 410 983 324 942 q 635 1025 497 1025 q 805 999 738 1025 q 908 908 872 972 q 944 728 944 843 q 922 492 944 629 q 832 178 890 286 q 688 31 774 69 q 467 -8 601 -8 m 475 22 q 679 58 603 22 q 806 196 756 93 q 889 501 856 299 q 910 729 910 626 q 877 895 910 838 q 784 974 844 953 q 628 994 724 994 q 425 956 503 994 q 295 812 347 918 q 211 501 243 706 q 189 276 189 354 q 219 117 189 172 q 310 42 250 63 q 475 22 371 22 m 426 1140 q 476 1234 436 1204 q 568 1264 517 1264 q 623 1251 597 1264 q 681 1211 649 1238 q 734 1175 711 1188 q 783 1163 757 1163 q 859 1189 828 1163 q 899 1264 890 1215 l 918 1264 q 873 1174 910 1208 q 778 1140 836 1140 q 728 1153 751 1140 q 674 1190 706 1165 q 613 1229 636 1217 q 561 1242 590 1242 q 486 1217 518 1242 q 446 1140 454 1192 l 426 1140 m 529 1342 q 515 1356 515 1342 l 529 1444 q 550 1461 531 1461 l 565 1461 q 579 1449 579 1461 q 564 1358 579 1454 q 544 1342 561 1342 l 529 1342 m 818 1342 q 804 1356 804 1342 l 818 1444 q 839 1461 819 1461 l 854 1461 q 868 1449 868 1461 q 853 1358 868 1454 q 833 1342 850 1342 l 818 1342 z "},"Ȭ":{"ha":942,"x_min":156,"x_max":944,"o":"m 467 -8 q 293 15 360 -8 q 191 99 226 38 q 156 276 156 161 q 178 511 156 374 q 267 831 211 719 q 410 983 324 942 q 635 1025 497 1025 q 805 999 738 1025 q 908 908 872 972 q 944 728 944 843 q 922 492 944 629 q 832 178 890 286 q 688 31 774 69 q 467 -8 601 -8 m 475 22 q 679 58 603 22 q 806 196 756 93 q 889 501 856 299 q 910 729 910 626 q 877 895 910 838 q 784 974 844 953 q 628 994 724 994 q 425 956 503 994 q 295 812 347 918 q 211 501 243 706 q 189 276 189 354 q 219 117 189 172 q 310 42 250 63 q 475 22 371 22 m 500 1383 l 850 1383 l 846 1363 l 496 1363 l 500 1383 m 426 1140 q 476 1234 436 1204 q 568 1264 517 1264 q 623 1251 597 1264 q 681 1211 649 1238 q 734 1175 711 1188 q 783 1163 757 1163 q 859 1189 828 1163 q 899 1264 890 1215 l 918 1264 q 873 1174 910 1208 q 778 1140 836 1140 q 728 1153 751 1140 q 674 1190 706 1165 q 613 1229 636 1217 q 561 1242 590 1242 q 486 1217 518 1242 q 446 1140 454 1192 l 426 1140 z "},"Œ":{"ha":1485,"x_min":156,"x_max":1561,"o":"m 1144 986 q 1033 951 1076 986 q 978 836 990 917 l 928 521 l 1426 513 l 1422 490 l 922 488 l 874 171 q 869 129 869 149 q 905 44 869 67 q 1007 22 940 22 l 1407 22 l 1403 0 l 1001 -8 q 836 131 836 -11 q 840 178 836 151 l 844 204 q 699 37 789 82 q 467 -8 610 -8 q 293 15 360 -8 q 191 99 226 38 q 156 276 156 161 q 178 511 156 374 q 267 831 211 719 q 410 983 324 942 q 635 1025 497 1025 q 847 976 772 1025 q 940 804 922 928 l 946 843 q 1017 978 961 938 q 1149 1017 1072 1018 l 1561 1008 l 1557 986 l 1144 986 m 475 22 q 679 58 603 22 q 806 196 756 93 q 889 501 856 299 q 910 729 910 626 q 877 895 910 838 q 784 974 844 953 q 628 994 724 994 q 425 956 503 994 q 295 812 347 918 q 211 501 243 706 q 189 276 189 354 q 219 117 189 172 q 310 42 250 63 q 475 22 371 22 z "},"P":{"ha":822,"x_min":111,"x_max":849,"o":"m 272 1017 l 642 1017 q 849 815 849 1017 q 840 725 849 781 q 532 421 793 421 q 213 429 415 421 l 144 0 l 111 0 l 272 1017 m 535 451 q 710 512 639 451 q 807 725 782 572 q 815 814 815 781 q 769 945 815 904 q 636 986 724 986 l 300 986 l 215 451 l 535 451 z "},"Ṗ":{"ha":822,"x_min":111,"x_max":849,"o":"m 272 1017 l 642 1017 q 849 815 849 1017 q 840 725 849 781 q 532 421 793 421 q 213 429 415 421 l 144 0 l 111 0 l 272 1017 m 535 451 q 710 512 639 451 q 807 725 782 572 q 815 814 815 781 q 769 945 815 904 q 636 986 724 986 l 300 986 l 215 451 l 535 451 m 550 1157 q 536 1171 536 1157 l 536 1174 l 550 1260 q 569 1276 551 1276 l 585 1276 q 599 1264 599 1276 l 599 1260 l 585 1174 q 565 1157 582 1157 l 550 1157 z "},"Þ":{"ha":743,"x_min":111,"x_max":738,"o":"m 517 808 q 738 607 738 808 q 729 517 738 572 q 421 254 689 254 q 185 261 326 254 l 144 0 l 111 0 l 272 1017 l 303 1017 l 271 808 l 517 808 m 696 517 q 704 606 704 572 q 655 737 704 696 q 511 778 606 778 l 265 778 l 189 285 l 424 285 q 696 517 658 285 z "},"Q":{"ha":942,"x_min":156,"x_max":944,"o":"m 467 -8 q 293 15 360 -8 q 191 99 226 38 q 156 276 156 161 q 178 511 156 374 q 267 831 211 719 q 410 983 324 942 q 635 1025 497 1025 q 805 999 738 1025 q 908 908 872 972 q 944 728 944 843 q 922 492 944 629 q 832 178 890 286 q 688 31 774 69 q 467 -8 601 -8 m 475 22 q 679 58 603 22 q 806 196 756 93 q 889 501 856 299 q 910 729 910 626 q 877 895 910 838 q 784 974 844 953 q 628 994 724 994 q 425 956 503 994 q 295 812 347 918 q 211 501 243 706 q 189 276 189 354 q 219 117 189 172 q 310 42 250 63 q 475 22 371 22 m 669 -210 q 542 -169 590 -210 q 489 -46 494 -129 l 511 -46 q 565 -148 525 -117 q 671 -179 604 -179 q 761 -164 719 -179 l 757 -194 q 669 -210 714 -210 z "},"R":{"ha":839,"x_min":111,"x_max":849,"o":"m 272 1017 l 628 1017 q 783 969 717 1017 q 849 799 849 922 q 842 719 849 768 q 748 513 817 567 q 590 453 679 458 l 742 0 l 708 0 l 557 451 q 518 453 533 451 q 217 460 267 457 l 144 0 l 111 0 l 272 1017 m 557 482 q 719 531 653 482 q 807 725 785 581 q 813 796 813 760 q 758 946 813 906 q 622 986 704 986 l 300 986 l 221 482 l 557 482 z "},"Ŕ":{"ha":839,"x_min":111,"x_max":849,"o":"m 272 1017 l 628 1017 q 783 969 717 1017 q 849 799 849 922 q 842 719 849 768 q 748 513 817 567 q 590 453 679 458 l 742 0 l 708 0 l 557 451 q 518 453 533 451 q 217 460 267 457 l 144 0 l 111 0 l 272 1017 m 557 482 q 719 531 653 482 q 807 725 785 581 q 813 796 813 760 q 758 946 813 906 q 622 986 704 986 l 300 986 l 221 482 l 557 482 m 704 1283 l 740 1283 l 526 1099 l 507 1099 l 704 1283 z "},"Ř":{"ha":839,"x_min":111,"x_max":849,"o":"m 272 1017 l 628 1017 q 783 969 717 1017 q 849 799 849 922 q 842 719 849 768 q 748 513 817 567 q 590 453 679 458 l 742 0 l 708 0 l 557 451 q 518 453 533 451 q 217 460 267 457 l 144 0 l 111 0 l 272 1017 m 557 482 q 719 531 653 482 q 807 725 785 581 q 813 796 813 760 q 758 946 813 906 q 622 986 704 986 l 300 986 l 221 482 l 557 482 m 403 1279 l 428 1279 l 557 1119 l 756 1279 l 781 1279 l 568 1099 l 540 1099 l 403 1279 z "},"Ŗ":{"ha":839,"x_min":111,"x_max":849,"o":"m 272 1017 l 628 1017 q 783 969 717 1017 q 849 799 849 922 q 842 719 849 768 q 748 513 817 567 q 590 453 679 458 l 742 0 l 708 0 l 557 451 q 518 453 533 451 q 217 460 267 457 l 144 0 l 111 0 l 272 1017 m 557 482 q 719 531 653 482 q 807 725 785 581 q 813 796 813 760 q 758 946 813 906 q 622 986 704 986 l 300 986 l 221 482 l 557 482 m 257 -251 l 301 -247 q 371 -231 346 -243 q 415 -184 396 -219 q 443 -76 433 -149 l 467 -76 q 438 -190 456 -150 q 385 -247 419 -229 q 292 -265 351 -265 l 254 -265 l 257 -251 z "},"Ȑ":{"ha":839,"x_min":111,"x_max":849,"o":"m 272 1017 l 628 1017 q 783 969 717 1017 q 849 799 849 922 q 842 719 849 768 q 748 513 817 567 q 590 453 679 458 l 742 0 l 708 0 l 557 451 q 518 453 533 451 q 217 460 267 457 l 144 0 l 111 0 l 272 1017 m 557 482 q 719 531 653 482 q 807 725 785 581 q 813 796 813 760 q 758 946 813 906 q 622 986 704 986 l 300 986 l 221 482 l 557 482 m 286 1283 l 322 1283 l 461 1099 l 442 1099 l 286 1283 m 453 1283 l 489 1283 l 628 1099 l 608 1099 l 453 1283 z "},"Ṛ":{"ha":839,"x_min":111,"x_max":849,"o":"m 272 1017 l 628 1017 q 783 969 717 1017 q 849 799 849 922 q 842 719 849 768 q 748 513 817 567 q 590 453 679 458 l 742 0 l 708 0 l 557 451 q 518 453 533 451 q 217 460 267 457 l 144 0 l 111 0 l 272 1017 m 557 482 q 719 531 653 482 q 807 725 785 581 q 813 796 813 760 q 758 946 813 906 q 622 986 704 986 l 300 986 l 221 482 l 557 482 m 354 -274 q 340 -260 340 -274 l 340 -257 l 354 -171 q 374 -154 356 -154 l 389 -154 q 403 -167 403 -154 l 403 -171 l 389 -257 q 369 -274 386 -274 l 354 -274 z "},"Ȓ":{"ha":839,"x_min":111,"x_max":849,"o":"m 272 1017 l 628 1017 q 783 969 717 1017 q 849 799 849 922 q 842 719 849 768 q 748 513 817 567 q 590 453 679 458 l 742 0 l 708 0 l 557 451 q 518 453 533 451 q 217 460 267 457 l 144 0 l 111 0 l 272 1017 m 557 482 q 719 531 653 482 q 807 725 785 581 q 813 796 813 760 q 758 946 813 906 q 622 986 704 986 l 300 986 l 221 482 l 557 482 m 357 1101 q 430 1246 374 1204 q 561 1288 486 1288 q 665 1255 624 1288 q 707 1147 707 1222 q 704 1101 707 1135 l 685 1101 q 688 1143 688 1132 q 652 1238 688 1207 q 558 1268 617 1268 q 441 1228 492 1268 q 376 1101 390 1189 l 357 1101 z "},"Ṟ":{"ha":839,"x_min":111,"x_max":849,"o":"m 272 1017 l 628 1017 q 783 969 717 1017 q 849 799 849 922 q 842 719 849 768 q 748 513 817 567 q 590 453 679 458 l 742 0 l 708 0 l 557 451 q 518 453 533 451 q 217 460 267 457 l 144 0 l 111 0 l 272 1017 m 557 482 q 719 531 653 482 q 807 725 785 581 q 813 796 813 760 q 758 946 813 906 q 622 986 704 986 l 300 986 l 221 482 l 557 482 m 214 -214 l 564 -214 l 560 -235 l 210 -235 l 214 -214 z "},"S":{"ha":785,"x_min":110,"x_max":818,"o":"m 413 -8 q 251 -4 339 -8 q 110 8 164 0 l 113 31 q 419 22 224 22 q 616 63 544 22 q 706 219 688 104 l 719 311 q 724 363 724 339 q 683 464 724 432 q 556 496 643 496 l 400 496 q 260 531 306 496 q 214 644 214 565 q 218 697 214 668 l 232 789 q 326 976 253 926 q 528 1025 399 1025 q 673 1017 574 1025 q 818 1003 772 1010 l 815 981 q 531 992 640 992 q 396 975 449 992 q 310 915 343 958 q 265 789 278 871 l 251 697 q 247 647 247 671 q 284 555 247 581 q 403 529 321 529 l 561 529 q 709 490 661 529 q 757 368 757 450 q 753 311 757 343 l 739 219 q 635 40 719 88 q 413 -8 550 -8 z "},"Ś":{"ha":785,"x_min":110,"x_max":818,"o":"m 413 -8 q 251 -4 339 -8 q 110 8 164 0 l 113 31 q 419 22 224 22 q 616 63 544 22 q 706 219 688 104 l 719 311 q 724 363 724 339 q 683 464 724 432 q 556 496 643 496 l 400 496 q 260 531 306 496 q 214 644 214 565 q 218 697 214 668 l 232 789 q 326 976 253 926 q 528 1025 399 1025 q 673 1017 574 1025 q 818 1003 772 1010 l 815 981 q 531 992 640 992 q 396 975 449 992 q 310 915 343 958 q 265 789 278 871 l 251 697 q 247 647 247 671 q 284 555 247 581 q 403 529 321 529 l 561 529 q 709 490 661 529 q 757 368 757 450 q 753 311 757 343 l 739 219 q 635 40 719 88 q 413 -8 550 -8 m 732 1283 l 768 1283 l 554 1099 l 535 1099 l 732 1283 z "},"Ṥ":{"ha":785,"x_min":110,"x_max":818,"o":"m 413 -8 q 251 -4 339 -8 q 110 8 164 0 l 113 31 q 419 22 224 22 q 616 63 544 22 q 706 219 688 104 l 719 311 q 724 363 724 339 q 683 464 724 432 q 556 496 643 496 l 400 496 q 260 531 306 496 q 214 644 214 565 q 218 697 214 668 l 232 789 q 326 976 253 926 q 528 1025 399 1025 q 673 1017 574 1025 q 818 1003 772 1010 l 815 981 q 531 992 640 992 q 396 975 449 992 q 310 915 343 958 q 265 789 278 871 l 251 697 q 247 647 247 671 q 284 555 247 581 q 403 529 321 529 l 561 529 q 709 490 661 529 q 757 368 757 450 q 753 311 757 343 l 739 219 q 635 40 719 88 q 413 -8 550 -8 m 690 1283 l 726 1283 l 513 1099 l 493 1099 l 690 1283 m 633 1324 q 619 1338 619 1324 l 619 1340 l 633 1426 q 653 1443 635 1443 l 668 1443 q 682 1431 682 1443 l 682 1426 l 668 1340 q 649 1324 665 1324 l 633 1324 z "},"Š":{"ha":785,"x_min":110,"x_max":818,"o":"m 413 -8 q 251 -4 339 -8 q 110 8 164 0 l 113 31 q 419 22 224 22 q 616 63 544 22 q 706 219 688 104 l 719 311 q 724 363 724 339 q 683 464 724 432 q 556 496 643 496 l 400 496 q 260 531 306 496 q 214 644 214 565 q 218 697 214 668 l 232 789 q 326 976 253 926 q 528 1025 399 1025 q 673 1017 574 1025 q 818 1003 772 1010 l 815 981 q 531 992 640 992 q 396 975 449 992 q 310 915 343 958 q 265 789 278 871 l 251 697 q 247 647 247 671 q 284 555 247 581 q 403 529 321 529 l 561 529 q 709 490 661 529 q 757 368 757 450 q 753 311 757 343 l 739 219 q 635 40 719 88 q 413 -8 550 -8 m 431 1279 l 456 1279 l 585 1119 l 783 1279 l 808 1279 l 596 1099 l 568 1099 l 431 1279 z "},"Ṧ":{"ha":785,"x_min":110,"x_max":818,"o":"m 413 -8 q 251 -4 339 -8 q 110 8 164 0 l 113 31 q 419 22 224 22 q 616 63 544 22 q 706 219 688 104 l 719 311 q 724 363 724 339 q 683 464 724 432 q 556 496 643 496 l 400 496 q 260 531 306 496 q 214 644 214 565 q 218 697 214 668 l 232 789 q 326 976 253 926 q 528 1025 399 1025 q 673 1017 574 1025 q 818 1003 772 1010 l 815 981 q 531 992 640 992 q 396 975 449 992 q 310 915 343 958 q 265 789 278 871 l 251 697 q 247 647 247 671 q 284 555 247 581 q 403 529 321 529 l 561 529 q 709 490 661 529 q 757 368 757 450 q 753 311 757 343 l 739 219 q 635 40 719 88 q 413 -8 550 -8 m 431 1279 l 456 1279 l 585 1119 l 783 1279 l 808 1279 l 596 1099 l 568 1099 l 431 1279 m 606 1338 q 592 1351 592 1338 l 592 1354 l 606 1440 q 625 1457 607 1457 l 640 1457 q 654 1444 654 1457 l 654 1440 l 640 1354 q 621 1338 638 1338 l 606 1338 z "},"Ş":{"ha":785,"x_min":110,"x_max":818,"o":"m 251 697 q 247 647 247 671 q 284 555 247 581 q 403 529 321 529 l 561 529 q 709 490 661 529 q 757 368 757 450 q 753 311 757 343 l 739 219 q 635 40 719 88 q 413 -8 550 -8 l 394 -8 l 321 -94 q 417 -160 417 -96 q 400 -207 417 -182 q 352 -250 383 -232 q 279 -268 321 -268 l 251 -268 l 254 -254 l 290 -251 q 347 -233 324 -249 q 383 -199 371 -218 q 396 -164 396 -179 q 372 -123 396 -137 q 290 -108 349 -108 l 375 -8 q 110 8 206 -6 l 113 31 q 419 22 224 22 q 616 63 544 22 q 706 219 688 104 l 719 311 q 724 363 724 339 q 683 464 724 432 q 556 496 643 496 l 400 496 q 260 531 306 496 q 214 644 214 565 q 218 697 214 668 l 232 789 q 326 976 253 926 q 528 1025 399 1025 q 673 1017 574 1025 q 818 1003 772 1010 l 815 981 q 531 992 640 992 q 396 975 449 992 q 310 915 343 958 q 265 789 278 871 l 251 697 z "},"Ŝ":{"ha":785,"x_min":110,"x_max":818,"o":"m 413 -8 q 251 -4 339 -8 q 110 8 164 0 l 113 31 q 419 22 224 22 q 616 63 544 22 q 706 219 688 104 l 719 311 q 724 363 724 339 q 683 464 724 432 q 556 496 643 496 l 400 496 q 260 531 306 496 q 214 644 214 565 q 218 697 214 668 l 232 789 q 326 976 253 926 q 528 1025 399 1025 q 673 1017 574 1025 q 818 1003 772 1010 l 815 981 q 531 992 640 992 q 396 975 449 992 q 310 915 343 958 q 265 789 278 871 l 251 697 q 247 647 247 671 q 284 555 247 581 q 403 529 321 529 l 561 529 q 709 490 661 529 q 757 368 757 450 q 753 311 757 343 l 739 219 q 635 40 719 88 q 413 -8 550 -8 m 572 1279 l 600 1279 l 738 1099 l 713 1099 l 582 1258 l 385 1099 l 360 1099 l 572 1279 z "},"Ș":{"ha":785,"x_min":110,"x_max":818,"o":"m 413 -8 q 251 -4 339 -8 q 110 8 164 0 l 113 31 q 419 22 224 22 q 616 63 544 22 q 706 219 688 104 l 719 311 q 724 363 724 339 q 683 464 724 432 q 556 496 643 496 l 400 496 q 260 531 306 496 q 214 644 214 565 q 218 697 214 668 l 232 789 q 326 976 253 926 q 528 1025 399 1025 q 673 1017 574 1025 q 818 1003 772 1010 l 815 981 q 531 992 640 992 q 396 975 449 992 q 310 915 343 958 q 265 789 278 871 l 251 697 q 247 647 247 671 q 284 555 247 581 q 403 529 321 529 l 561 529 q 709 490 661 529 q 757 368 757 450 q 753 311 757 343 l 739 219 q 635 40 719 88 q 413 -8 550 -8 m 257 -251 l 301 -247 q 371 -231 346 -243 q 415 -184 396 -219 q 443 -76 433 -149 l 467 -76 q 438 -190 456 -150 q 385 -247 419 -229 q 292 -265 351 -265 l 254 -265 l 257 -251 z "},"Ṡ":{"ha":785,"x_min":110,"x_max":818,"o":"m 413 -8 q 251 -4 339 -8 q 110 8 164 0 l 113 31 q 419 22 224 22 q 616 63 544 22 q 706 219 688 104 l 719 311 q 724 363 724 339 q 683 464 724 432 q 556 496 643 496 l 400 496 q 260 531 306 496 q 214 644 214 565 q 218 697 214 668 l 232 789 q 326 976 253 926 q 528 1025 399 1025 q 673 1017 574 1025 q 818 1003 772 1010 l 815 981 q 531 992 640 992 q 396 975 449 992 q 310 915 343 958 q 265 789 278 871 l 251 697 q 247 647 247 671 q 284 555 247 581 q 403 529 321 529 l 561 529 q 709 490 661 529 q 757 368 757 450 q 753 311 757 343 l 739 219 q 635 40 719 88 q 413 -8 550 -8 m 564 1157 q 550 1171 550 1157 l 550 1174 l 564 1260 q 583 1276 565 1276 l 599 1276 q 613 1264 613 1276 l 613 1260 l 599 1174 q 579 1157 596 1157 l 564 1157 z "},"Ṣ":{"ha":785,"x_min":110,"x_max":818,"o":"m 413 -8 q 251 -4 339 -8 q 110 8 164 0 l 113 31 q 419 22 224 22 q 616 63 544 22 q 706 219 688 104 l 719 311 q 724 363 724 339 q 683 464 724 432 q 556 496 643 496 l 400 496 q 260 531 306 496 q 214 644 214 565 q 218 697 214 668 l 232 789 q 326 976 253 926 q 528 1025 399 1025 q 673 1017 574 1025 q 818 1003 772 1010 l 815 981 q 531 992 640 992 q 396 975 449 992 q 310 915 343 958 q 265 789 278 871 l 251 697 q 247 647 247 671 q 284 555 247 581 q 403 529 321 529 l 561 529 q 709 490 661 529 q 757 368 757 450 q 753 311 757 343 l 739 219 q 635 40 719 88 q 413 -8 550 -8 m 326 -274 q 313 -260 313 -274 l 313 -257 l 326 -171 q 346 -154 328 -154 l 361 -154 q 375 -167 375 -154 l 375 -171 l 361 -257 q 342 -274 358 -274 l 326 -274 z "},"Ṩ":{"ha":785,"x_min":110,"x_max":818,"o":"m 413 -8 q 251 -4 339 -8 q 110 8 164 0 l 113 31 q 419 22 224 22 q 616 63 544 22 q 706 219 688 104 l 719 311 q 724 363 724 339 q 683 464 724 432 q 556 496 643 496 l 400 496 q 260 531 306 496 q 214 644 214 565 q 218 697 214 668 l 232 789 q 326 976 253 926 q 528 1025 399 1025 q 673 1017 574 1025 q 818 1003 772 1010 l 815 981 q 531 992 640 992 q 396 975 449 992 q 310 915 343 958 q 265 789 278 871 l 251 697 q 247 647 247 671 q 284 555 247 581 q 403 529 321 529 l 561 529 q 709 490 661 529 q 757 368 757 450 q 753 311 757 343 l 739 219 q 635 40 719 88 q 413 -8 550 -8 m 326 -274 q 313 -260 313 -274 l 313 -257 l 326 -171 q 346 -154 328 -154 l 361 -154 q 375 -167 375 -154 l 375 -171 l 361 -257 q 342 -274 358 -274 l 326 -274 m 564 1157 q 550 1171 550 1157 l 550 1174 l 564 1260 q 583 1276 565 1276 l 599 1276 q 613 1264 613 1276 l 613 1260 l 599 1174 q 579 1157 596 1157 l 564 1157 z "},"ẞ":{"ha":874,"x_min":122,"x_max":897,"o":"m 893 986 l 507 529 l 635 529 q 781 484 733 529 q 829 360 829 439 q 811 217 829 338 q 699 43 790 94 q 478 -8 608 -8 q 386 -3 450 -8 q 293 7 322 3 l 296 29 q 483 22 354 22 q 683 63 606 22 q 778 217 760 104 q 796 360 796 339 q 756 462 796 428 q 631 496 717 496 l 465 496 l 469 529 l 856 986 l 453 986 q 343 949 386 986 q 288 836 300 913 l 156 0 l 122 0 l 254 836 q 322 973 269 929 q 454 1017 375 1017 q 721 1014 543 1017 q 897 1011 838 1011 l 893 986 z "},"Ə":{"ha":821,"x_min":153,"x_max":828,"o":"m 403 -8 q 212 56 271 -8 q 153 268 153 121 q 171 468 153 356 l 178 506 l 769 506 q 793 747 793 658 q 764 899 793 846 q 672 974 735 953 q 499 994 610 994 q 354 985 411 994 q 285 975 297 976 l 289 997 q 525 1025 425 1025 q 698 1002 633 1025 q 795 919 763 979 q 828 747 828 858 q 806 514 828 649 q 718 197 774 311 q 585 38 663 83 q 403 -8 508 -8 m 404 22 q 567 62 501 22 q 680 199 632 101 q 763 475 728 297 l 204 475 q 185 265 185 346 q 236 78 185 135 q 404 22 288 22 z "},"T":{"ha":836,"x_min":197,"x_max":942,"o":"m 550 986 l 197 986 l 203 1017 l 942 1017 l 936 986 l 583 986 l 428 0 l 394 0 l 550 986 z "},"Ŧ":{"ha":836,"x_min":197,"x_max":942,"o":"m 583 986 l 517 560 l 794 560 l 790 529 l 511 529 l 428 0 l 394 0 l 478 529 l 200 529 l 204 560 l 483 560 l 550 986 l 197 986 l 203 1017 l 942 1017 l 936 986 l 583 986 z "},"Ť":{"ha":836,"x_min":197,"x_max":942,"o":"m 550 986 l 197 986 l 203 1017 l 942 1017 l 936 986 l 583 986 l 428 0 l 394 0 l 550 986 m 444 1279 l 469 1279 l 599 1119 l 797 1279 l 822 1279 l 610 1099 l 582 1099 l 444 1279 z "},"Ţ":{"ha":836,"x_min":197,"x_max":942,"o":"m 550 986 l 197 986 l 203 1017 l 942 1017 l 936 986 l 583 986 l 428 0 l 394 0 l 550 986 m 335 -94 q 431 -160 431 -96 q 414 -207 431 -182 q 366 -250 397 -232 q 293 -268 335 -268 l 265 -268 l 268 -254 l 304 -251 q 361 -233 338 -249 q 397 -199 385 -218 q 410 -164 410 -179 q 386 -123 410 -137 q 304 -108 363 -108 l 396 0 l 415 0 l 335 -94 z "},"Ț":{"ha":836,"x_min":197,"x_max":942,"o":"m 550 986 l 197 986 l 203 1017 l 942 1017 l 936 986 l 583 986 l 428 0 l 394 0 l 550 986 m 271 -251 l 315 -247 q 385 -231 360 -243 q 428 -184 410 -219 q 457 -76 447 -149 l 481 -76 q 451 -190 469 -150 q 399 -247 433 -229 q 306 -265 365 -265 l 268 -265 l 271 -251 z "},"Ṫ":{"ha":836,"x_min":197,"x_max":942,"o":"m 550 986 l 197 986 l 203 1017 l 942 1017 l 936 986 l 583 986 l 428 0 l 394 0 l 550 986 m 578 1157 q 564 1171 564 1157 l 564 1174 l 578 1260 q 597 1276 579 1276 l 613 1276 q 626 1264 626 1276 l 626 1260 l 613 1174 q 593 1157 610 1157 l 578 1157 z "},"Ṭ":{"ha":836,"x_min":197,"x_max":942,"o":"m 550 986 l 197 986 l 203 1017 l 942 1017 l 936 986 l 583 986 l 428 0 l 394 0 l 550 986 m 340 -274 q 326 -260 326 -274 l 326 -257 l 340 -171 q 360 -154 342 -154 l 375 -154 q 389 -167 389 -154 l 389 -171 l 375 -257 q 356 -274 372 -274 l 340 -274 z "},"Ṯ":{"ha":836,"x_min":197,"x_max":942,"o":"m 550 986 l 197 986 l 203 1017 l 942 1017 l 936 986 l 583 986 l 428 0 l 394 0 l 550 986 m 228 -214 l 578 -214 l 574 -235 l 224 -235 l 228 -214 z "},"U":{"ha":926,"x_min":165,"x_max":976,"o":"m 463 -8 q 239 53 313 -8 q 165 258 165 114 q 182 444 165 344 l 272 1017 l 306 1017 l 215 444 q 197 257 197 333 q 262 75 197 128 q 460 22 326 22 q 648 52 575 22 q 773 174 721 82 q 853 444 825 265 l 943 1017 l 976 1017 l 886 444 q 799 157 856 256 q 662 25 742 58 q 463 -8 582 -8 z "},"Ú":{"ha":926,"x_min":165,"x_max":976,"o":"m 463 -8 q 239 53 313 -8 q 165 258 165 114 q 182 444 165 344 l 272 1017 l 306 1017 l 215 444 q 197 257 197 333 q 262 75 197 128 q 460 22 326 22 q 648 52 575 22 q 773 174 721 82 q 853 444 825 265 l 943 1017 l 976 1017 l 886 444 q 799 157 856 256 q 662 25 742 58 q 463 -8 582 -8 m 788 1283 l 824 1283 l 610 1099 l 590 1099 l 788 1283 z "},"Ŭ":{"ha":926,"x_min":165,"x_max":976,"o":"m 463 -8 q 239 53 313 -8 q 165 258 165 114 q 182 444 165 344 l 272 1017 l 306 1017 l 215 444 q 197 257 197 333 q 262 75 197 128 q 460 22 326 22 q 648 52 575 22 q 773 174 721 82 q 853 444 825 265 l 943 1017 l 976 1017 l 886 444 q 799 157 856 256 q 662 25 742 58 q 463 -8 582 -8 m 614 1101 q 510 1134 551 1101 q 468 1242 468 1167 q 471 1288 468 1254 l 490 1288 q 488 1246 488 1257 q 522 1151 488 1182 q 614 1121 557 1121 q 734 1160 683 1121 q 799 1288 785 1200 l 818 1288 q 745 1143 801 1185 q 614 1101 689 1101 z "},"Û":{"ha":926,"x_min":165,"x_max":976,"o":"m 463 -8 q 239 53 313 -8 q 165 258 165 114 q 182 444 165 344 l 272 1017 l 306 1017 l 215 444 q 197 257 197 333 q 262 75 197 128 q 460 22 326 22 q 648 52 575 22 q 773 174 721 82 q 853 444 825 265 l 943 1017 l 976 1017 l 886 444 q 799 157 856 256 q 662 25 742 58 q 463 -8 582 -8 m 628 1279 l 656 1279 l 793 1099 l 768 1099 l 638 1258 l 440 1099 l 415 1099 l 628 1279 z "},"Ȕ":{"ha":926,"x_min":165,"x_max":976,"o":"m 463 -8 q 239 53 313 -8 q 165 258 165 114 q 182 444 165 344 l 272 1017 l 306 1017 l 215 444 q 197 257 197 333 q 262 75 197 128 q 460 22 326 22 q 648 52 575 22 q 773 174 721 82 q 853 444 825 265 l 943 1017 l 976 1017 l 886 444 q 799 157 856 256 q 662 25 742 58 q 463 -8 582 -8 m 369 1283 l 406 1283 l 544 1099 l 525 1099 l 369 1283 m 536 1283 l 572 1283 l 711 1099 l 692 1099 l 536 1283 z "},"Ü":{"ha":926,"x_min":165,"x_max":976,"o":"m 463 -8 q 239 53 313 -8 q 165 258 165 114 q 182 444 165 344 l 272 1017 l 306 1017 l 215 444 q 197 257 197 333 q 262 75 197 128 q 460 22 326 22 q 648 52 575 22 q 773 174 721 82 q 853 444 825 265 l 943 1017 l 976 1017 l 886 444 q 799 157 856 256 q 662 25 742 58 q 463 -8 582 -8 m 443 1147 q 429 1161 429 1147 l 443 1250 q 464 1267 444 1267 l 479 1267 q 493 1254 493 1267 q 478 1164 493 1260 q 458 1147 475 1147 l 443 1147 m 732 1147 q 718 1161 718 1147 l 732 1250 q 753 1267 733 1267 l 768 1267 q 782 1254 782 1267 q 767 1164 782 1260 q 747 1147 764 1147 l 732 1147 z "},"Ụ":{"ha":926,"x_min":165,"x_max":976,"o":"m 463 -8 q 239 53 313 -8 q 165 258 165 114 q 182 444 165 344 l 272 1017 l 306 1017 l 215 444 q 197 257 197 333 q 262 75 197 128 q 460 22 326 22 q 648 52 575 22 q 773 174 721 82 q 853 444 825 265 l 943 1017 l 976 1017 l 886 444 q 799 157 856 256 q 662 25 742 58 q 463 -8 582 -8 m 382 -274 q 368 -260 368 -274 l 368 -257 l 382 -171 q 401 -154 383 -154 l 417 -154 q 431 -167 431 -154 l 431 -171 l 417 -257 q 397 -274 414 -274 l 382 -274 z "},"Ù":{"ha":926,"x_min":165,"x_max":976,"o":"m 463 -8 q 239 53 313 -8 q 165 258 165 114 q 182 444 165 344 l 272 1017 l 306 1017 l 215 444 q 197 257 197 333 q 262 75 197 128 q 460 22 326 22 q 648 52 575 22 q 773 174 721 82 q 853 444 825 265 l 943 1017 l 976 1017 l 886 444 q 799 157 856 256 q 662 25 742 58 q 463 -8 582 -8 m 481 1283 l 517 1283 l 656 1099 l 636 1099 l 481 1283 z "},"Ủ":{"ha":926,"x_min":165,"x_max":976,"o":"m 463 -8 q 239 53 313 -8 q 165 258 165 114 q 182 444 165 344 l 272 1017 l 306 1017 l 215 444 q 197 257 197 333 q 262 75 197 128 q 460 22 326 22 q 648 52 575 22 q 773 174 721 82 q 853 444 825 265 l 943 1017 l 976 1017 l 886 444 q 799 157 856 256 q 662 25 742 58 q 463 -8 582 -8 m 565 1103 q 679 1226 679 1138 q 610 1286 679 1286 q 554 1278 582 1286 l 557 1297 q 617 1306 583 1306 q 701 1228 701 1306 q 667 1142 701 1181 q 561 1083 633 1103 l 565 1103 z "},"Ư":{"ha":926,"x_min":165,"x_max":1146,"o":"m 1146 1178 q 1082 1037 1129 1078 q 972 994 1035 996 l 886 444 q 799 157 856 256 q 662 25 742 58 q 463 -8 582 -8 q 239 53 313 -8 q 165 258 165 114 q 182 444 165 344 l 272 1017 l 306 1017 l 215 444 q 197 257 197 333 q 262 75 197 128 q 460 22 326 22 q 648 52 575 22 q 773 174 721 82 q 853 444 825 265 l 943 1017 l 974 1017 q 1115 1178 1089 1017 l 1146 1178 z "},"Ứ":{"ha":926,"x_min":165,"x_max":1146,"o":"m 1146 1178 q 1082 1037 1129 1078 q 972 994 1035 996 l 886 444 q 799 157 856 256 q 662 25 742 58 q 463 -8 582 -8 q 239 53 313 -8 q 165 258 165 114 q 182 444 165 344 l 272 1017 l 306 1017 l 215 444 q 197 257 197 333 q 262 75 197 128 q 460 22 326 22 q 648 52 575 22 q 773 174 721 82 q 853 444 825 265 l 943 1017 l 974 1017 q 1115 1178 1089 1017 l 1146 1178 m 794 1283 l 831 1283 l 617 1099 l 597 1099 l 794 1283 z "},"Ự":{"ha":926,"x_min":165,"x_max":1146,"o":"m 1146 1178 q 1082 1037 1129 1078 q 972 994 1035 996 l 886 444 q 799 157 856 256 q 662 25 742 58 q 463 -8 582 -8 q 239 53 313 -8 q 165 258 165 114 q 182 444 165 344 l 272 1017 l 306 1017 l 215 444 q 197 257 197 333 q 262 75 197 128 q 460 22 326 22 q 648 52 575 22 q 773 174 721 82 q 853 444 825 265 l 943 1017 l 974 1017 q 1115 1178 1089 1017 l 1146 1178 m 392 -274 q 378 -260 378 -274 l 378 -257 l 392 -171 q 411 -154 393 -154 l 426 -154 q 440 -167 440 -154 l 440 -171 l 426 -257 q 407 -274 424 -274 l 392 -274 z "},"Ừ":{"ha":926,"x_min":165,"x_max":1146,"o":"m 1146 1178 q 1082 1037 1129 1078 q 972 994 1035 996 l 886 444 q 799 157 856 256 q 662 25 742 58 q 463 -8 582 -8 q 239 53 313 -8 q 165 258 165 114 q 182 444 165 344 l 272 1017 l 306 1017 l 215 444 q 197 257 197 333 q 262 75 197 128 q 460 22 326 22 q 648 52 575 22 q 773 174 721 82 q 853 444 825 265 l 943 1017 l 974 1017 q 1115 1178 1089 1017 l 1146 1178 m 488 1283 l 524 1283 l 663 1099 l 643 1099 l 488 1283 z "},"Ử":{"ha":926,"x_min":165,"x_max":1146,"o":"m 1146 1178 q 1082 1037 1129 1078 q 972 994 1035 996 l 886 444 q 799 157 856 256 q 662 25 742 58 q 463 -8 582 -8 q 239 53 313 -8 q 165 258 165 114 q 182 444 165 344 l 272 1017 l 306 1017 l 215 444 q 197 257 197 333 q 262 75 197 128 q 460 22 326 22 q 648 52 575 22 q 773 174 721 82 q 853 444 825 265 l 943 1017 l 974 1017 q 1115 1178 1089 1017 l 1146 1178 m 572 1103 q 686 1226 686 1138 q 617 1286 686 1286 q 561 1278 589 1286 l 564 1297 q 624 1306 590 1306 q 708 1228 708 1306 q 674 1142 708 1181 q 568 1083 640 1103 l 572 1103 z "},"Ữ":{"ha":926,"x_min":165,"x_max":1146,"o":"m 1146 1178 q 1082 1037 1129 1078 q 972 994 1035 996 l 886 444 q 799 157 856 256 q 662 25 742 58 q 463 -8 582 -8 q 239 53 313 -8 q 165 258 165 114 q 182 444 165 344 l 272 1017 l 306 1017 l 215 444 q 197 257 197 333 q 262 75 197 128 q 460 22 326 22 q 648 52 575 22 q 773 174 721 82 q 853 444 825 265 l 943 1017 l 974 1017 q 1115 1178 1089 1017 l 1146 1178 m 431 1140 q 481 1234 440 1204 q 572 1264 521 1264 q 627 1251 601 1264 q 685 1211 653 1238 q 738 1175 715 1188 q 788 1163 761 1163 q 863 1189 832 1163 q 903 1264 894 1215 l 922 1264 q 877 1174 914 1208 q 782 1140 840 1140 q 733 1153 756 1140 q 678 1190 710 1165 q 617 1229 640 1217 q 565 1242 594 1242 q 490 1217 522 1242 q 450 1140 458 1192 l 431 1140 z "},"Ű":{"ha":926,"x_min":165,"x_max":976,"o":"m 463 -8 q 239 53 313 -8 q 165 258 165 114 q 182 444 165 344 l 272 1017 l 306 1017 l 215 444 q 197 257 197 333 q 262 75 197 128 q 460 22 326 22 q 648 52 575 22 q 773 174 721 82 q 853 444 825 265 l 943 1017 l 976 1017 l 886 444 q 799 157 856 256 q 662 25 742 58 q 463 -8 582 -8 m 676 1283 l 713 1283 l 499 1099 l 479 1099 l 676 1283 m 869 1283 l 906 1283 l 692 1099 l 672 1099 l 869 1283 z "},"Ȗ":{"ha":926,"x_min":165,"x_max":976,"o":"m 463 -8 q 239 53 313 -8 q 165 258 165 114 q 182 444 165 344 l 272 1017 l 306 1017 l 215 444 q 197 257 197 333 q 262 75 197 128 q 460 22 326 22 q 648 52 575 22 q 773 174 721 82 q 853 444 825 265 l 943 1017 l 976 1017 l 886 444 q 799 157 856 256 q 662 25 742 58 q 463 -8 582 -8 m 440 1101 q 513 1246 457 1204 q 644 1288 569 1288 q 749 1255 707 1288 q 790 1147 790 1222 q 788 1101 790 1135 l 768 1101 q 771 1143 771 1132 q 735 1238 771 1207 q 642 1268 700 1268 q 524 1228 575 1268 q 460 1101 474 1189 l 440 1101 z "},"Ū":{"ha":926,"x_min":165,"x_max":976,"o":"m 463 -8 q 239 53 313 -8 q 165 258 165 114 q 182 444 165 344 l 272 1017 l 306 1017 l 215 444 q 197 257 197 333 q 262 75 197 128 q 460 22 326 22 q 648 52 575 22 q 773 174 721 82 q 853 444 825 265 l 943 1017 l 976 1017 l 886 444 q 799 157 856 256 q 662 25 742 58 q 463 -8 582 -8 m 456 1203 l 806 1203 l 801 1182 l 451 1182 l 456 1203 z "},"Ṻ":{"ha":926,"x_min":165,"x_max":976,"o":"m 463 -8 q 239 53 313 -8 q 165 258 165 114 q 182 444 165 344 l 272 1017 l 306 1017 l 215 444 q 197 257 197 333 q 262 75 197 128 q 460 22 326 22 q 648 52 575 22 q 773 174 721 82 q 853 444 825 265 l 943 1017 l 976 1017 l 886 444 q 799 157 856 256 q 662 25 742 58 q 463 -8 582 -8 m 456 1203 l 806 1203 l 801 1182 l 451 1182 l 456 1203 m 499 1328 q 485 1342 485 1328 l 499 1431 q 519 1447 500 1447 l 535 1447 q 549 1435 549 1447 q 533 1344 549 1440 q 514 1328 531 1328 l 499 1328 m 788 1328 q 774 1342 774 1328 l 788 1431 q 808 1447 789 1447 l 824 1447 q 838 1435 838 1447 q 822 1344 838 1440 q 803 1328 819 1328 l 788 1328 z "},"Ų":{"ha":926,"x_min":165,"x_max":976,"o":"m 976 1017 l 886 444 q 818 196 861 289 q 716 58 775 103 q 576 0 657 14 q 483 -69 517 -28 q 450 -146 450 -111 q 482 -210 450 -187 q 578 -232 514 -232 l 585 -232 l 581 -251 q 551 -253 569 -253 q 458 -226 493 -253 q 424 -151 424 -199 q 455 -74 424 -115 q 551 -4 486 -33 q 463 -8 508 -8 q 239 53 313 -8 q 165 258 165 114 q 182 444 165 344 l 272 1017 l 306 1017 l 215 444 q 197 257 197 333 q 262 75 197 128 q 460 22 326 22 q 648 52 575 22 q 773 174 721 82 q 853 444 825 265 l 943 1017 l 976 1017 z "},"Ů":{"ha":926,"x_min":165,"x_max":976,"o":"m 463 -8 q 239 53 313 -8 q 165 258 165 114 q 182 444 165 344 l 272 1017 l 306 1017 l 215 444 q 197 257 197 333 q 262 75 197 128 q 460 22 326 22 q 648 52 575 22 q 773 174 721 82 q 853 444 825 265 l 943 1017 l 976 1017 l 886 444 q 799 157 856 256 q 662 25 742 58 q 463 -8 582 -8 m 619 1083 q 529 1110 564 1083 q 494 1199 494 1138 q 540 1318 494 1268 q 663 1368 585 1368 q 748 1340 714 1368 q 782 1254 782 1313 q 739 1133 782 1182 q 619 1083 696 1083 m 619 1106 q 724 1147 689 1106 q 760 1251 760 1189 q 731 1324 760 1303 q 661 1346 703 1346 q 553 1304 590 1346 q 517 1199 517 1263 q 546 1127 517 1149 q 619 1106 575 1106 z "},"Ũ":{"ha":926,"x_min":165,"x_max":976,"o":"m 463 -8 q 239 53 313 -8 q 165 258 165 114 q 182 444 165 344 l 272 1017 l 306 1017 l 215 444 q 197 257 197 333 q 262 75 197 128 q 460 22 326 22 q 648 52 575 22 q 773 174 721 82 q 853 444 825 265 l 943 1017 l 976 1017 l 886 444 q 799 157 856 256 q 662 25 742 58 q 463 -8 582 -8 m 424 1140 q 474 1234 433 1204 q 565 1264 514 1264 q 620 1251 594 1264 q 678 1211 646 1238 q 731 1175 708 1188 q 781 1163 754 1163 q 856 1189 825 1163 q 896 1264 888 1215 l 915 1264 q 870 1174 907 1208 q 775 1140 833 1140 q 726 1153 749 1140 q 671 1190 703 1165 q 610 1229 633 1217 q 558 1242 588 1242 q 483 1217 515 1242 q 443 1140 451 1192 l 424 1140 z "},"Ṹ":{"ha":926,"x_min":165,"x_max":976,"o":"m 463 -8 q 239 53 313 -8 q 165 258 165 114 q 182 444 165 344 l 272 1017 l 306 1017 l 215 444 q 197 257 197 333 q 262 75 197 128 q 460 22 326 22 q 648 52 575 22 q 773 174 721 82 q 853 444 825 265 l 943 1017 l 976 1017 l 886 444 q 799 157 856 256 q 662 25 742 58 q 463 -8 582 -8 m 424 1140 q 474 1234 433 1204 q 565 1264 514 1264 q 620 1251 594 1264 q 678 1211 646 1238 q 731 1175 708 1188 q 781 1163 754 1163 q 856 1189 825 1163 q 896 1264 888 1215 l 915 1264 q 870 1174 907 1208 q 775 1140 833 1140 q 726 1153 749 1140 q 671 1190 703 1165 q 610 1229 633 1217 q 558 1242 588 1242 q 483 1217 515 1242 q 443 1140 451 1192 l 424 1140 m 829 1506 l 865 1506 l 651 1321 l 632 1321 l 829 1506 z "},"V":{"ha":917,"x_min":224,"x_max":1015,"o":"m 224 1017 l 258 1017 l 456 36 l 981 1017 l 1015 1017 l 474 0 l 426 0 l 224 1017 z "},"W":{"ha":1361,"x_min":224,"x_max":1460,"o":"m 224 1017 l 258 1017 l 413 35 l 817 1017 l 864 1017 l 942 36 l 1424 1017 l 1460 1017 l 960 0 l 913 0 l 835 975 l 432 0 l 385 0 l 224 1017 z "},"Ẃ":{"ha":1361,"x_min":224,"x_max":1460,"o":"m 224 1017 l 258 1017 l 413 35 l 817 1017 l 864 1017 l 942 36 l 1424 1017 l 1460 1017 l 960 0 l 913 0 l 835 975 l 432 0 l 385 0 l 224 1017 m 1024 1283 l 1060 1283 l 846 1099 l 826 1099 l 1024 1283 z "},"Ŵ":{"ha":1361,"x_min":224,"x_max":1460,"o":"m 224 1017 l 258 1017 l 413 35 l 817 1017 l 864 1017 l 942 36 l 1424 1017 l 1460 1017 l 960 0 l 913 0 l 835 975 l 432 0 l 385 0 l 224 1017 m 864 1279 l 892 1279 l 1029 1099 l 1004 1099 l 874 1258 l 676 1099 l 651 1099 l 864 1279 z "},"Ẅ":{"ha":1361,"x_min":224,"x_max":1460,"o":"m 224 1017 l 258 1017 l 413 35 l 817 1017 l 864 1017 l 942 36 l 1424 1017 l 1460 1017 l 960 0 l 913 0 l 835 975 l 432 0 l 385 0 l 224 1017 m 679 1147 q 665 1161 665 1147 l 679 1250 q 700 1267 681 1267 l 715 1267 q 729 1254 729 1267 q 714 1164 729 1260 q 694 1147 711 1147 l 679 1147 m 968 1147 q 954 1161 954 1147 l 968 1250 q 989 1267 969 1267 l 1004 1267 q 1018 1254 1018 1267 q 1003 1164 1018 1260 q 983 1147 1000 1147 l 968 1147 z "},"Ẁ":{"ha":1361,"x_min":224,"x_max":1460,"o":"m 224 1017 l 258 1017 l 413 35 l 817 1017 l 864 1017 l 942 36 l 1424 1017 l 1460 1017 l 960 0 l 913 0 l 835 975 l 432 0 l 385 0 l 224 1017 m 717 1283 l 753 1283 l 892 1099 l 872 1099 l 717 1283 z "},"X":{"ha":814,"x_min":67,"x_max":913,"o":"m 506 500 l 744 0 l 706 0 l 481 475 l 110 0 l 67 0 l 463 513 l 224 1017 l 263 1017 l 489 535 l 869 1017 l 913 1017 l 506 500 z "},"Y":{"ha":819,"x_min":203,"x_max":939,"o":"m 436 361 l 203 1017 l 240 1017 l 457 406 l 899 1017 l 939 1017 l 469 361 l 413 0 l 379 0 l 436 361 z "},"Ý":{"ha":819,"x_min":203,"x_max":939,"o":"m 436 361 l 203 1017 l 240 1017 l 457 406 l 899 1017 l 939 1017 l 469 361 l 413 0 l 379 0 l 436 361 m 729 1283 l 765 1283 l 551 1099 l 532 1099 l 729 1283 z "},"Ŷ":{"ha":819,"x_min":203,"x_max":939,"o":"m 436 361 l 203 1017 l 240 1017 l 457 406 l 899 1017 l 939 1017 l 469 361 l 413 0 l 379 0 l 436 361 m 569 1279 l 597 1279 l 735 1099 l 710 1099 l 579 1258 l 382 1099 l 357 1099 l 569 1279 z "},"Ÿ":{"ha":819,"x_min":203,"x_max":939,"o":"m 436 361 l 203 1017 l 240 1017 l 457 406 l 899 1017 l 939 1017 l 469 361 l 413 0 l 379 0 l 436 361 m 385 1147 q 371 1161 371 1147 l 385 1250 q 406 1267 386 1267 l 421 1267 q 435 1254 435 1267 q 419 1164 435 1260 q 400 1147 417 1147 l 385 1147 m 674 1147 q 660 1161 660 1147 l 674 1250 q 694 1267 675 1267 l 710 1267 q 724 1254 724 1267 q 708 1164 724 1260 q 689 1147 706 1147 l 674 1147 z "},"Ẏ":{"ha":819,"x_min":203,"x_max":939,"o":"m 436 361 l 203 1017 l 240 1017 l 457 406 l 899 1017 l 939 1017 l 469 361 l 413 0 l 379 0 l 436 361 m 324 -274 q 310 -260 310 -274 l 310 -257 l 324 -171 q 343 -154 325 -154 l 358 -154 q 372 -167 372 -154 l 372 -171 l 358 -257 q 339 -274 356 -274 l 324 -274 z "},"Ỵ":{"ha":819,"x_min":203,"x_max":939,"o":"m 436 361 l 203 1017 l 240 1017 l 457 406 l 899 1017 l 939 1017 l 469 361 l 413 0 l 379 0 l 436 361 m 324 -274 q 310 -260 310 -274 l 310 -257 l 324 -171 q 343 -154 325 -154 l 358 -154 q 372 -167 372 -154 l 372 -171 l 358 -257 q 339 -274 356 -274 l 324 -274 z "},"Ỳ":{"ha":819,"x_min":203,"x_max":939,"o":"m 436 361 l 203 1017 l 240 1017 l 457 406 l 899 1017 l 939 1017 l 469 361 l 413 0 l 379 0 l 436 361 m 422 1283 l 458 1283 l 597 1099 l 578 1099 l 422 1283 z "},"Ỷ":{"ha":819,"x_min":203,"x_max":939,"o":"m 436 361 l 203 1017 l 240 1017 l 457 406 l 899 1017 l 939 1017 l 469 361 l 413 0 l 379 0 l 436 361 m 507 1103 q 621 1226 621 1138 q 551 1286 621 1286 q 496 1278 524 1286 l 499 1297 q 558 1306 525 1306 q 643 1228 643 1306 q 609 1142 643 1181 q 503 1083 575 1103 l 507 1103 z "},"Ȳ":{"ha":819,"x_min":203,"x_max":939,"o":"m 436 361 l 203 1017 l 240 1017 l 457 406 l 899 1017 l 939 1017 l 469 361 l 413 0 l 379 0 l 436 361 m 397 1203 l 747 1203 l 743 1182 l 393 1182 l 397 1203 z "},"Ỹ":{"ha":819,"x_min":203,"x_max":939,"o":"m 436 361 l 203 1017 l 240 1017 l 457 406 l 899 1017 l 939 1017 l 469 361 l 413 0 l 379 0 l 436 361 m 365 1140 q 415 1234 375 1204 q 507 1264 456 1264 q 562 1251 536 1264 q 619 1211 588 1238 q 673 1175 650 1188 q 722 1163 696 1163 q 798 1189 767 1163 q 838 1264 829 1215 l 857 1264 q 812 1174 849 1208 q 717 1140 775 1140 q 667 1153 690 1140 q 613 1190 644 1165 q 552 1229 575 1217 q 500 1242 529 1242 q 425 1217 457 1242 q 385 1140 393 1192 l 365 1140 z "},"Z":{"ha":768,"x_min":63,"x_max":853,"o":"m 67 31 l 808 986 l 218 986 l 224 1017 l 853 1017 l 847 986 l 106 31 l 710 31 l 706 0 l 63 0 l 67 31 z "},"Ź":{"ha":768,"x_min":63,"x_max":853,"o":"m 67 31 l 808 986 l 218 986 l 224 1017 l 853 1017 l 847 986 l 106 31 l 710 31 l 706 0 l 63 0 l 67 31 m 701 1283 l 738 1283 l 524 1099 l 504 1099 l 701 1283 z "},"Ž":{"ha":768,"x_min":63,"x_max":853,"o":"m 67 31 l 808 986 l 218 986 l 224 1017 l 853 1017 l 847 986 l 106 31 l 710 31 l 706 0 l 63 0 l 67 31 m 400 1279 l 425 1279 l 554 1119 l 753 1279 l 778 1279 l 565 1099 l 538 1099 l 400 1279 z "},"Ż":{"ha":768,"x_min":63,"x_max":853,"o":"m 67 31 l 808 986 l 218 986 l 224 1017 l 853 1017 l 847 986 l 106 31 l 710 31 l 706 0 l 63 0 l 67 31 m 533 1157 q 519 1171 519 1157 l 519 1174 l 533 1260 q 553 1276 535 1276 l 568 1276 q 582 1264 582 1276 l 582 1260 l 568 1174 q 549 1157 565 1157 l 533 1157 z "},"Ẓ":{"ha":768,"x_min":63,"x_max":853,"o":"m 67 31 l 808 986 l 218 986 l 224 1017 l 853 1017 l 847 986 l 106 31 l 710 31 l 706 0 l 63 0 l 67 31 m 296 -274 q 282 -260 282 -274 l 282 -257 l 296 -171 q 315 -154 297 -154 l 331 -154 q 344 -167 344 -154 l 344 -171 l 331 -257 q 311 -274 328 -274 l 296 -274 z "},"a":{"ha":776,"x_min":128,"x_max":771,"o":"m 360 -8 q 192 53 256 -8 q 128 238 128 114 q 142 372 128 289 q 257 658 172 569 q 513 746 342 746 q 656 727 583 746 q 771 668 728 708 l 665 0 l 643 0 l 646 82 q 517 23 604 54 q 360 -8 431 -8 m 358 22 q 496 42 433 22 q 649 104 558 63 l 736 661 q 643 699 703 682 q 510 715 583 715 q 333 679 399 715 q 231 567 267 643 q 174 358 194 490 q 161 239 161 279 q 214 76 161 129 q 358 22 267 22 z "},"á":{"ha":776,"x_min":128,"x_max":771,"o":"m 360 -8 q 192 53 256 -8 q 128 238 128 114 q 142 372 128 289 q 257 658 172 569 q 513 746 342 746 q 656 727 583 746 q 771 668 728 708 l 665 0 l 643 0 l 646 82 q 517 23 604 54 q 360 -8 431 -8 m 358 22 q 496 42 433 22 q 649 104 558 63 l 736 661 q 643 699 703 682 q 510 715 583 715 q 333 679 399 715 q 231 567 267 643 q 174 358 194 490 q 161 239 161 279 q 214 76 161 129 q 358 22 267 22 m 710 1061 l 746 1061 l 532 876 l 513 876 l 710 1061 z "},"ă":{"ha":776,"x_min":128,"x_max":771,"o":"m 360 -8 q 192 53 256 -8 q 128 238 128 114 q 142 372 128 289 q 257 658 172 569 q 513 746 342 746 q 656 727 583 746 q 771 668 728 708 l 665 0 l 643 0 l 646 82 q 517 23 604 54 q 360 -8 431 -8 m 358 22 q 496 42 433 22 q 649 104 558 63 l 736 661 q 643 699 703 682 q 510 715 583 715 q 333 679 399 715 q 231 567 267 643 q 174 358 194 490 q 161 239 161 279 q 214 76 161 129 q 358 22 267 22 m 536 879 q 432 912 474 879 q 390 1019 390 944 q 393 1065 390 1032 l 413 1065 q 410 1024 410 1035 q 444 929 410 960 q 536 899 479 899 q 656 938 606 899 q 721 1065 707 978 l 740 1065 q 667 921 724 963 q 536 879 611 879 z "},"ắ":{"ha":776,"x_min":128,"x_max":771,"o":"m 360 -8 q 192 53 256 -8 q 128 238 128 114 q 142 372 128 289 q 257 658 172 569 q 513 746 342 746 q 656 727 583 746 q 771 668 728 708 l 665 0 l 643 0 l 646 82 q 517 23 604 54 q 360 -8 431 -8 m 358 22 q 496 42 433 22 q 649 104 558 63 l 736 661 q 643 699 703 682 q 510 715 583 715 q 333 679 399 715 q 231 567 267 643 q 174 358 194 490 q 161 239 161 279 q 214 76 161 129 q 358 22 267 22 m 710 1200 l 746 1200 l 532 1015 l 513 1015 l 710 1200 m 511 879 q 402 906 446 879 q 358 994 358 933 q 361 1024 358 1004 l 381 1024 q 379 1000 379 1015 q 415 924 379 949 q 510 899 451 899 q 624 925 571 899 q 689 1024 678 951 l 708 1024 q 641 911 696 943 q 511 879 586 879 z "},"ặ":{"ha":776,"x_min":128,"x_max":771,"o":"m 360 -8 q 192 53 256 -8 q 128 238 128 114 q 142 372 128 289 q 257 658 172 569 q 513 746 342 746 q 656 727 583 746 q 771 668 728 708 l 665 0 l 643 0 l 646 82 q 517 23 604 54 q 360 -8 431 -8 m 358 22 q 496 42 433 22 q 649 104 558 63 l 736 661 q 643 699 703 682 q 510 715 583 715 q 333 679 399 715 q 231 567 267 643 q 174 358 194 490 q 161 239 161 279 q 214 76 161 129 q 358 22 267 22 m 536 879 q 432 912 474 879 q 390 1019 390 944 q 393 1065 390 1032 l 413 1065 q 410 1024 410 1035 q 444 929 410 960 q 536 899 479 899 q 656 938 606 899 q 721 1065 707 978 l 740 1065 q 667 921 724 963 q 536 879 611 879 m 326 -274 q 313 -260 313 -274 l 313 -257 l 326 -171 q 346 -154 328 -154 l 361 -154 q 375 -167 375 -154 l 375 -171 l 361 -257 q 342 -274 358 -274 l 326 -274 z "},"ằ":{"ha":776,"x_min":128,"x_max":771,"o":"m 360 -8 q 192 53 256 -8 q 128 238 128 114 q 142 372 128 289 q 257 658 172 569 q 513 746 342 746 q 656 727 583 746 q 771 668 728 708 l 665 0 l 643 0 l 646 82 q 517 23 604 54 q 360 -8 431 -8 m 358 22 q 496 42 433 22 q 649 104 558 63 l 736 661 q 643 699 703 682 q 510 715 583 715 q 333 679 399 715 q 231 567 267 643 q 174 358 194 490 q 161 239 161 279 q 214 76 161 129 q 358 22 267 22 m 403 1200 l 439 1200 l 578 1015 l 558 1015 l 403 1200 m 511 879 q 402 906 446 879 q 358 994 358 933 q 361 1024 358 1004 l 381 1024 q 379 1000 379 1015 q 415 924 379 949 q 510 899 451 899 q 689 1024 669 899 l 708 1024 q 641 911 696 943 q 511 879 586 879 z "},"ẳ":{"ha":776,"x_min":128,"x_max":771,"o":"m 360 -8 q 192 53 256 -8 q 128 238 128 114 q 142 372 128 289 q 257 658 172 569 q 513 746 342 746 q 656 727 583 746 q 771 668 728 708 l 665 0 l 643 0 l 646 82 q 517 23 604 54 q 360 -8 431 -8 m 358 22 q 496 42 433 22 q 649 104 558 63 l 736 661 q 643 699 703 682 q 510 715 583 715 q 333 679 399 715 q 231 567 267 643 q 174 358 194 490 q 161 239 161 279 q 214 76 161 129 q 358 22 267 22 m 504 978 q 618 1101 618 1013 q 549 1161 618 1161 q 493 1153 521 1161 l 496 1172 q 556 1181 522 1181 q 640 1103 640 1181 q 606 1017 640 1056 q 500 958 572 978 l 504 978 m 511 879 q 402 906 446 879 q 358 994 358 933 q 361 1024 358 1004 l 381 1024 q 379 1000 379 1015 q 415 924 379 949 q 510 899 451 899 q 626 925 574 899 q 689 1024 678 951 l 708 1024 q 641 911 696 943 q 511 879 586 879 z "},"ẵ":{"ha":776,"x_min":128,"x_max":797,"o":"m 360 -8 q 192 53 256 -8 q 128 238 128 114 q 142 372 128 289 q 257 658 172 569 q 513 746 342 746 q 656 727 583 746 q 771 668 728 708 l 665 0 l 643 0 l 646 82 q 517 23 604 54 q 360 -8 431 -8 m 358 22 q 496 42 433 22 q 649 104 558 63 l 736 661 q 643 699 703 682 q 510 715 583 715 q 333 679 399 715 q 231 567 267 643 q 174 358 194 490 q 161 239 161 279 q 214 76 161 129 q 358 22 267 22 m 338 1071 q 382 1144 346 1121 q 461 1167 418 1167 q 514 1158 490 1167 q 575 1129 538 1149 q 629 1102 608 1111 q 676 1093 650 1093 q 744 1113 715 1093 q 778 1167 772 1132 l 797 1167 q 756 1097 790 1124 q 669 1071 722 1071 q 621 1080 643 1071 q 564 1107 599 1089 q 508 1135 532 1125 q 456 1144 483 1144 q 390 1126 418 1144 q 357 1071 363 1108 l 338 1071 m 519 879 q 410 906 454 879 q 367 994 367 933 q 369 1024 367 1004 l 389 1024 q 388 1000 388 1015 q 424 924 388 949 q 518 899 460 899 q 636 924 588 899 q 697 1024 685 950 l 717 1024 q 649 911 704 943 q 519 879 594 879 z "},"â":{"ha":776,"x_min":128,"x_max":771,"o":"m 360 -8 q 192 53 256 -8 q 128 238 128 114 q 142 372 128 289 q 257 658 172 569 q 513 746 342 746 q 656 727 583 746 q 771 668 728 708 l 665 0 l 643 0 l 646 82 q 517 23 604 54 q 360 -8 431 -8 m 358 22 q 496 42 433 22 q 649 104 558 63 l 736 661 q 643 699 703 682 q 510 715 583 715 q 333 679 399 715 q 231 567 267 643 q 174 358 194 490 q 161 239 161 279 q 214 76 161 129 q 358 22 267 22 m 564 1057 l 592 1057 l 729 876 l 704 876 l 574 1036 l 376 876 l 351 876 l 564 1057 z "},"ấ":{"ha":776,"x_min":128,"x_max":885,"o":"m 360 -8 q 192 53 256 -8 q 128 238 128 114 q 142 372 128 289 q 257 658 172 569 q 513 746 342 746 q 656 727 583 746 q 771 668 728 708 l 665 0 l 643 0 l 646 82 q 517 23 604 54 q 360 -8 431 -8 m 358 22 q 496 42 433 22 q 649 104 558 63 l 736 661 q 643 699 703 682 q 510 715 583 715 q 333 679 399 715 q 231 567 267 643 q 174 358 194 490 q 161 239 161 279 q 214 76 161 129 q 358 22 267 22 m 849 1158 l 885 1158 l 671 974 l 651 974 l 849 1158 m 531 1001 l 558 1001 l 706 876 l 681 876 l 542 981 l 353 876 l 328 876 l 531 1001 z "},"ậ":{"ha":776,"x_min":128,"x_max":771,"o":"m 360 -8 q 192 53 256 -8 q 128 238 128 114 q 142 372 128 289 q 257 658 172 569 q 513 746 342 746 q 656 727 583 746 q 771 668 728 708 l 665 0 l 643 0 l 646 82 q 517 23 604 54 q 360 -8 431 -8 m 358 22 q 496 42 433 22 q 649 104 558 63 l 736 661 q 643 699 703 682 q 510 715 583 715 q 333 679 399 715 q 231 567 267 643 q 174 358 194 490 q 161 239 161 279 q 214 76 161 129 q 358 22 267 22 m 564 1057 l 592 1057 l 729 876 l 704 876 l 574 1036 l 376 876 l 351 876 l 564 1057 m 326 -274 q 313 -260 313 -274 l 313 -257 l 326 -171 q 346 -154 328 -154 l 361 -154 q 375 -167 375 -154 l 375 -171 l 361 -257 q 342 -274 358 -274 l 326 -274 z "},"ầ":{"ha":776,"x_min":128,"x_max":771,"o":"m 360 -8 q 192 53 256 -8 q 128 238 128 114 q 142 372 128 289 q 257 658 172 569 q 513 746 342 746 q 656 727 583 746 q 771 668 728 708 l 665 0 l 643 0 l 646 82 q 517 23 604 54 q 360 -8 431 -8 m 358 22 q 496 42 433 22 q 649 104 558 63 l 736 661 q 643 699 703 682 q 510 715 583 715 q 333 679 399 715 q 231 567 267 643 q 174 358 194 490 q 161 239 161 279 q 214 76 161 129 q 358 22 267 22 m 253 1158 l 289 1158 l 428 974 l 408 974 l 253 1158 m 519 1001 l 547 1001 l 694 876 l 669 876 l 531 981 l 342 876 l 317 876 l 519 1001 z "},"ẩ":{"ha":776,"x_min":128,"x_max":806,"o":"m 360 -8 q 192 53 256 -8 q 128 238 128 114 q 142 372 128 289 q 257 658 172 569 q 513 746 342 746 q 656 727 583 746 q 771 668 728 708 l 665 0 l 643 0 l 646 82 q 517 23 604 54 q 360 -8 431 -8 m 358 22 q 496 42 433 22 q 649 104 558 63 l 736 661 q 643 699 703 682 q 510 715 583 715 q 333 679 399 715 q 231 567 267 643 q 174 358 194 490 q 161 239 161 279 q 214 76 161 129 q 358 22 267 22 m 678 964 q 759 1009 735 981 q 783 1069 783 1038 q 717 1119 783 1119 q 663 1111 688 1119 l 665 1131 q 722 1139 690 1139 q 785 1120 764 1139 q 806 1069 806 1101 q 774 996 806 1029 q 675 944 743 963 l 678 964 m 536 1001 l 564 1001 l 711 876 l 686 876 l 547 981 l 358 876 l 333 876 l 536 1001 z "},"ẫ":{"ha":776,"x_min":128,"x_max":797,"o":"m 360 -8 q 192 53 256 -8 q 128 238 128 114 q 142 372 128 289 q 257 658 172 569 q 513 746 342 746 q 656 727 583 746 q 771 668 728 708 l 665 0 l 643 0 l 646 82 q 517 23 604 54 q 360 -8 431 -8 m 358 22 q 496 42 433 22 q 649 104 558 63 l 736 661 q 643 699 703 682 q 510 715 583 715 q 333 679 399 715 q 231 567 267 643 q 174 358 194 490 q 161 239 161 279 q 214 76 161 129 q 358 22 267 22 m 339 1071 q 382 1144 346 1121 q 461 1167 418 1167 q 517 1156 490 1167 q 575 1128 543 1146 q 628 1102 606 1111 q 676 1093 651 1093 q 744 1113 715 1093 q 778 1167 772 1132 l 797 1167 q 757 1097 790 1124 q 671 1071 724 1071 q 620 1080 644 1071 q 565 1107 596 1089 q 509 1135 533 1125 q 456 1144 485 1144 q 392 1126 419 1144 q 358 1071 364 1108 l 339 1071 m 538 1001 l 565 1001 l 711 876 l 686 876 l 547 981 l 358 876 l 333 876 l 538 1001 z "},"ȁ":{"ha":776,"x_min":128,"x_max":771,"o":"m 360 -8 q 192 53 256 -8 q 128 238 128 114 q 142 372 128 289 q 257 658 172 569 q 513 746 342 746 q 656 727 583 746 q 771 668 728 708 l 665 0 l 643 0 l 646 82 q 517 23 604 54 q 360 -8 431 -8 m 358 22 q 496 42 433 22 q 649 104 558 63 l 736 661 q 643 699 703 682 q 510 715 583 715 q 333 679 399 715 q 231 567 267 643 q 174 358 194 490 q 161 239 161 279 q 214 76 161 129 q 358 22 267 22 m 319 1061 l 356 1061 l 494 876 l 475 876 l 319 1061 m 486 1061 l 522 1061 l 661 876 l 642 876 l 486 1061 z "},"ä":{"ha":776,"x_min":128,"x_max":771,"o":"m 360 -8 q 192 53 256 -8 q 128 238 128 114 q 142 372 128 289 q 257 658 172 569 q 513 746 342 746 q 656 727 583 746 q 771 668 728 708 l 665 0 l 643 0 l 646 82 q 517 23 604 54 q 360 -8 431 -8 m 358 22 q 496 42 433 22 q 649 104 558 63 l 736 661 q 643 699 703 682 q 510 715 583 715 q 333 679 399 715 q 231 567 267 643 q 174 358 194 490 q 161 239 161 279 q 214 76 161 129 q 358 22 267 22 m 365 925 q 351 939 351 925 l 365 1028 q 386 1044 367 1044 l 401 1044 q 415 1032 415 1044 q 400 942 415 1038 q 381 925 397 925 l 365 925 m 654 925 q 640 939 640 925 l 654 1028 q 675 1044 656 1044 l 690 1044 q 704 1032 704 1044 q 689 942 704 1038 q 669 925 686 925 l 654 925 z "},"ạ":{"ha":776,"x_min":128,"x_max":771,"o":"m 360 -8 q 192 53 256 -8 q 128 238 128 114 q 142 372 128 289 q 257 658 172 569 q 513 746 342 746 q 656 727 583 746 q 771 668 728 708 l 665 0 l 643 0 l 646 82 q 517 23 604 54 q 360 -8 431 -8 m 358 22 q 496 42 433 22 q 649 104 558 63 l 736 661 q 643 699 703 682 q 510 715 583 715 q 333 679 399 715 q 231 567 267 643 q 174 358 194 490 q 161 239 161 279 q 214 76 161 129 q 358 22 267 22 m 326 -274 q 313 -260 313 -274 l 313 -257 l 326 -171 q 346 -154 328 -154 l 361 -154 q 375 -167 375 -154 l 375 -171 l 361 -257 q 342 -274 358 -274 l 326 -274 z "},"à":{"ha":776,"x_min":128,"x_max":771,"o":"m 360 -8 q 192 53 256 -8 q 128 238 128 114 q 142 372 128 289 q 257 658 172 569 q 513 746 342 746 q 656 727 583 746 q 771 668 728 708 l 665 0 l 643 0 l 646 82 q 517 23 604 54 q 360 -8 431 -8 m 358 22 q 496 42 433 22 q 649 104 558 63 l 736 661 q 643 699 703 682 q 510 715 583 715 q 333 679 399 715 q 231 567 267 643 q 174 358 194 490 q 161 239 161 279 q 214 76 161 129 q 358 22 267 22 m 403 1061 l 439 1061 l 578 876 l 558 876 l 403 1061 z "},"ả":{"ha":776,"x_min":128,"x_max":771,"o":"m 360 -8 q 192 53 256 -8 q 128 238 128 114 q 142 372 128 289 q 257 658 172 569 q 513 746 342 746 q 656 727 583 746 q 771 668 728 708 l 665 0 l 643 0 l 646 82 q 517 23 604 54 q 360 -8 431 -8 m 358 22 q 496 42 433 22 q 649 104 558 63 l 736 661 q 643 699 703 682 q 510 715 583 715 q 333 679 399 715 q 231 567 267 643 q 174 358 194 490 q 161 239 161 279 q 214 76 161 129 q 358 22 267 22 m 511 867 q 625 990 625 901 q 556 1050 625 1050 q 500 1042 528 1050 l 503 1061 q 563 1069 529 1069 q 647 992 647 1069 q 613 906 647 944 q 507 847 579 867 l 511 867 z "},"ȃ":{"ha":776,"x_min":128,"x_max":771,"o":"m 360 -8 q 192 53 256 -8 q 128 238 128 114 q 142 372 128 289 q 257 658 172 569 q 513 746 342 746 q 656 727 583 746 q 771 668 728 708 l 665 0 l 643 0 l 646 82 q 517 23 604 54 q 360 -8 431 -8 m 358 22 q 496 42 433 22 q 649 104 558 63 l 736 661 q 643 699 703 682 q 510 715 583 715 q 333 679 399 715 q 231 567 267 643 q 174 358 194 490 q 161 239 161 279 q 214 76 161 129 q 358 22 267 22 m 349 879 q 422 1024 365 982 q 553 1065 478 1065 q 657 1033 615 1065 q 699 925 699 1000 q 696 879 699 913 l 676 879 q 679 921 679 910 q 644 1015 679 985 q 550 1046 608 1046 q 433 1006 483 1046 q 368 879 382 967 l 349 879 z "},"ā":{"ha":776,"x_min":128,"x_max":771,"o":"m 360 -8 q 192 53 256 -8 q 128 238 128 114 q 142 372 128 289 q 257 658 172 569 q 513 746 342 746 q 656 727 583 746 q 771 668 728 708 l 665 0 l 643 0 l 646 82 q 517 23 604 54 q 360 -8 431 -8 m 358 22 q 496 42 433 22 q 649 104 558 63 l 736 661 q 643 699 703 682 q 510 715 583 715 q 333 679 399 715 q 231 567 267 643 q 174 358 194 490 q 161 239 161 279 q 214 76 161 129 q 358 22 267 22 m 378 981 l 728 981 l 724 960 l 374 960 l 378 981 z "},"ą":{"ha":776,"x_min":128,"x_max":771,"o":"m 539 -146 q 571 -210 539 -187 q 667 -232 603 -232 l 674 -232 l 669 -251 q 640 -253 658 -253 q 547 -226 582 -253 q 513 -151 513 -199 q 545 -72 513 -114 q 649 0 578 -29 l 643 0 l 646 82 q 517 23 604 54 q 360 -8 431 -8 q 192 53 256 -8 q 128 238 128 114 q 142 372 128 289 q 257 658 172 569 q 513 746 342 746 q 656 727 583 746 q 771 668 728 708 l 665 0 q 572 -69 606 -28 q 539 -146 539 -111 m 358 22 q 496 42 433 22 q 649 104 558 63 l 736 661 q 643 699 703 682 q 510 715 583 715 q 333 679 399 715 q 231 567 267 643 q 174 358 194 490 q 161 239 161 279 q 214 76 161 129 q 358 22 267 22 z "},"å":{"ha":776,"x_min":128,"x_max":771,"o":"m 360 -8 q 192 53 256 -8 q 128 238 128 114 q 142 372 128 289 q 257 658 172 569 q 513 746 342 746 q 656 727 583 746 q 771 668 728 708 l 665 0 l 643 0 l 646 82 q 517 23 604 54 q 360 -8 431 -8 m 358 22 q 496 42 433 22 q 649 104 558 63 l 736 661 q 643 699 703 682 q 510 715 583 715 q 333 679 399 715 q 231 567 267 643 q 174 358 194 490 q 161 239 161 279 q 214 76 161 129 q 358 22 267 22 m 542 833 q 451 860 486 833 q 417 949 417 888 q 462 1068 417 1018 q 585 1118 507 1118 q 670 1090 636 1118 q 704 1004 704 1063 q 661 883 704 932 q 542 833 618 833 m 542 856 q 647 897 611 856 q 682 1001 682 939 q 653 1074 682 1053 q 583 1096 625 1096 q 476 1054 513 1096 q 439 949 439 1013 q 468 877 439 899 q 542 856 497 856 z "},"ǻ":{"ha":776,"x_min":128,"x_max":813,"o":"m 360 -8 q 192 53 256 -8 q 128 238 128 114 q 142 372 128 289 q 257 658 172 569 q 513 746 342 746 q 656 727 583 746 q 771 668 728 708 l 665 0 l 643 0 l 646 82 q 517 23 604 54 q 360 -8 431 -8 m 358 22 q 496 42 433 22 q 649 104 558 63 l 736 661 q 643 699 703 682 q 510 715 583 715 q 333 679 399 715 q 231 567 267 643 q 174 358 194 490 q 161 239 161 279 q 214 76 161 129 q 358 22 267 22 m 542 833 q 451 860 486 833 q 417 949 417 888 q 462 1068 417 1018 q 585 1118 507 1118 q 670 1090 636 1118 q 704 1004 704 1063 q 661 883 704 932 q 542 833 618 833 m 542 856 q 647 897 611 856 q 682 1001 682 939 q 653 1074 682 1053 q 583 1096 625 1096 q 476 1054 513 1096 q 439 949 439 1013 q 468 877 439 899 q 542 856 497 856 m 776 1339 l 813 1339 l 599 1154 l 579 1154 l 776 1339 z "},"ã":{"ha":776,"x_min":128,"x_max":824,"o":"m 360 -8 q 192 53 256 -8 q 128 238 128 114 q 142 372 128 289 q 257 658 172 569 q 513 746 342 746 q 656 727 583 746 q 771 668 728 708 l 665 0 l 643 0 l 646 82 q 517 23 604 54 q 360 -8 431 -8 m 358 22 q 496 42 433 22 q 649 104 558 63 l 736 661 q 643 699 703 682 q 510 715 583 715 q 333 679 399 715 q 231 567 267 643 q 174 358 194 490 q 161 239 161 279 q 214 76 161 129 q 358 22 267 22 m 332 918 q 382 1012 342 982 q 474 1042 422 1042 q 528 1028 503 1042 q 586 989 554 1015 q 640 953 617 965 q 689 940 663 940 q 765 967 733 940 q 804 1042 796 993 l 824 1042 q 778 952 815 986 q 683 918 742 918 q 634 931 657 918 q 579 968 611 943 q 519 1007 542 994 q 467 1019 496 1019 q 392 994 424 1019 q 351 918 360 969 l 332 918 z "},"æ":{"ha":1271,"x_min":132,"x_max":1274,"o":"m 350 -8 q 190 52 247 -8 q 132 238 132 113 q 219 599 132 453 q 515 746 306 746 q 654 724 579 746 q 772 668 729 703 q 1026 751 861 751 q 1210 699 1147 751 q 1274 549 1274 647 q 1232 435 1274 485 q 1113 356 1190 385 q 936 328 1036 328 q 778 337 854 328 q 681 354 701 346 q 675 246 675 300 q 717 77 675 132 q 872 22 760 22 l 1167 22 l 1163 0 q 876 -8 1060 -8 q 731 28 786 -8 q 656 128 675 65 q 517 35 603 79 q 350 -8 432 -8 m 913 358 q 1151 405 1064 358 q 1239 544 1239 451 q 1186 674 1239 628 q 1036 721 1133 721 q 840 682 910 721 q 738 571 771 643 q 683 374 706 499 q 770 365 703 371 q 913 358 838 358 m 339 22 q 506 62 421 22 q 650 156 590 101 q 642 232 642 189 q 669 457 642 343 q 756 650 696 571 q 646 695 710 675 q 514 715 582 715 q 243 576 321 715 q 165 242 165 438 q 339 22 165 22 z "},"ǽ":{"ha":1271,"x_min":132,"x_max":1274,"o":"m 350 -8 q 190 52 247 -8 q 132 238 132 113 q 219 599 132 453 q 515 746 306 746 q 654 724 579 746 q 772 668 729 703 q 1026 751 861 751 q 1210 699 1147 751 q 1274 549 1274 647 q 1232 435 1274 485 q 1113 356 1190 385 q 936 328 1036 328 q 778 337 854 328 q 681 354 701 346 q 675 246 675 300 q 717 77 675 132 q 872 22 760 22 l 1167 22 l 1163 0 q 876 -8 1060 -8 q 731 28 786 -8 q 656 128 675 65 q 517 35 603 79 q 350 -8 432 -8 m 913 358 q 1151 405 1064 358 q 1239 544 1239 451 q 1186 674 1239 628 q 1036 721 1133 721 q 840 682 910 721 q 738 571 771 643 q 683 374 706 499 q 770 365 703 371 q 913 358 838 358 m 339 22 q 506 62 421 22 q 650 156 590 101 q 642 232 642 189 q 669 457 642 343 q 756 650 696 571 q 646 695 710 675 q 514 715 582 715 q 243 576 321 715 q 165 242 165 438 q 339 22 165 22 m 950 1061 l 986 1061 l 772 876 l 753 876 l 950 1061 z "},"b":{"ha":779,"x_min":111,"x_max":765,"o":"m 419 -8 q 281 18 354 -8 q 157 79 208 44 l 133 0 l 111 0 l 279 1060 l 313 1060 l 249 656 q 402 722 319 697 q 546 746 485 746 q 705 685 644 746 q 765 507 765 624 q 751 353 765 447 q 640 90 725 188 q 419 -8 554 -8 m 421 22 q 619 109 547 22 q 718 363 692 196 q 732 504 732 453 q 680 664 732 613 q 542 715 628 715 q 244 633 421 715 l 161 101 q 288 43 228 64 q 421 22 347 22 z "},"ḃ":{"ha":779,"x_min":111,"x_max":765,"o":"m 419 -8 q 281 18 354 -8 q 157 79 208 44 l 133 0 l 111 0 l 279 1060 l 313 1060 l 249 656 q 402 722 319 697 q 546 746 485 746 q 705 685 644 746 q 765 507 765 624 q 751 353 765 447 q 640 90 725 188 q 419 -8 554 -8 m 421 22 q 619 109 547 22 q 718 363 692 196 q 732 504 732 453 q 680 664 732 613 q 542 715 628 715 q 244 633 421 715 l 161 101 q 288 43 228 64 q 421 22 347 22 m 315 1213 q 301 1226 301 1213 l 301 1229 l 315 1315 q 335 1332 317 1332 l 350 1332 q 364 1319 364 1332 l 364 1315 l 350 1229 q 331 1213 347 1213 l 315 1213 z "},"c":{"ha":674,"x_min":129,"x_max":717,"o":"m 382 -8 q 194 47 258 -8 q 129 250 129 103 q 143 379 129 296 q 259 658 174 571 q 485 746 344 746 q 717 738 581 746 l 711 715 l 482 715 q 283 639 360 715 q 175 364 206 563 q 163 250 163 283 q 188 110 163 160 q 261 41 213 60 q 388 22 310 22 l 621 22 l 618 0 q 382 -8 504 -8 z "},"ć":{"ha":674,"x_min":129,"x_max":717,"o":"m 382 -8 q 194 47 258 -8 q 129 250 129 103 q 143 379 129 296 q 259 658 174 571 q 485 746 344 746 q 717 738 581 746 l 711 715 l 482 715 q 283 639 360 715 q 175 364 206 563 q 163 250 163 283 q 188 110 163 160 q 261 41 213 60 q 388 22 310 22 l 621 22 l 618 0 q 382 -8 504 -8 m 668 1061 l 704 1061 l 490 876 l 471 876 l 668 1061 z "},"č":{"ha":674,"x_min":129,"x_max":731,"o":"m 382 -8 q 194 47 258 -8 q 129 250 129 103 q 143 379 129 296 q 259 658 174 571 q 485 746 344 746 q 717 738 581 746 l 711 715 l 482 715 q 283 639 360 715 q 175 364 206 563 q 163 250 163 283 q 188 110 163 160 q 261 41 213 60 q 388 22 310 22 l 621 22 l 618 0 q 382 -8 504 -8 m 353 1057 l 378 1057 l 507 897 l 706 1057 l 731 1057 l 518 876 l 490 876 l 353 1057 z "},"ç":{"ha":674,"x_min":129,"x_max":717,"o":"m 482 715 q 283 639 360 715 q 175 364 206 563 q 163 250 163 283 q 188 110 163 160 q 261 41 213 60 q 388 22 310 22 l 621 22 l 618 0 q 382 -8 504 -8 l 356 -8 l 282 -94 q 378 -160 378 -96 q 361 -207 378 -182 q 313 -250 344 -232 q 240 -268 282 -268 l 213 -268 l 215 -254 l 251 -251 q 308 -233 285 -249 q 344 -199 332 -218 q 357 -164 357 -179 q 333 -123 357 -137 q 251 -108 310 -108 l 338 -7 q 183 59 236 1 q 129 250 129 117 q 143 379 129 296 q 259 658 174 571 q 485 746 344 746 q 717 738 581 746 l 711 715 l 482 715 z "},"ḉ":{"ha":674,"x_min":129,"x_max":717,"o":"m 490 876 l 471 876 l 668 1061 l 704 1061 l 490 876 m 482 715 q 283 639 360 715 q 175 364 206 563 q 163 250 163 283 q 188 110 163 160 q 261 41 213 60 q 388 22 310 22 l 621 22 l 618 0 q 382 -8 504 -8 l 356 -8 l 282 -94 q 378 -160 378 -96 q 361 -207 378 -182 q 313 -250 344 -232 q 240 -268 282 -268 l 213 -268 l 215 -254 l 251 -251 q 308 -233 285 -249 q 344 -199 332 -218 q 357 -164 357 -179 q 333 -123 357 -137 q 251 -108 310 -108 l 338 -7 q 183 59 236 1 q 129 250 129 117 q 143 379 129 296 q 259 658 174 571 q 485 746 344 746 q 717 738 581 746 l 711 715 l 482 715 z "},"ĉ":{"ha":674,"x_min":129,"x_max":717,"o":"m 382 -8 q 194 47 258 -8 q 129 250 129 103 q 143 379 129 296 q 259 658 174 571 q 485 746 344 746 q 717 738 581 746 l 711 715 l 482 715 q 283 639 360 715 q 175 364 206 563 q 163 250 163 283 q 188 110 163 160 q 261 41 213 60 q 388 22 310 22 l 621 22 l 618 0 q 382 -8 504 -8 m 522 1057 l 550 1057 l 688 876 l 663 876 l 532 1036 l 335 876 l 310 876 l 522 1057 z "},"ċ":{"ha":674,"x_min":129,"x_max":717,"o":"m 382 -8 q 194 47 258 -8 q 129 250 129 103 q 143 379 129 296 q 259 658 174 571 q 485 746 344 746 q 717 738 581 746 l 711 715 l 482 715 q 283 639 360 715 q 175 364 206 563 q 163 250 163 283 q 188 110 163 160 q 261 41 213 60 q 388 22 310 22 l 621 22 l 618 0 q 382 -8 504 -8 m 490 935 q 476 949 476 935 l 476 951 l 490 1038 q 510 1054 492 1054 l 525 1054 q 539 1042 539 1054 l 539 1038 l 525 951 q 506 935 522 935 l 490 935 z "},"d":{"ha":778,"x_min":129,"x_max":835,"o":"m 351 -8 q 192 53 254 -8 q 129 229 129 114 q 143 376 129 306 q 203 580 167 501 q 314 702 240 658 q 511 746 388 746 q 635 733 579 746 q 743 692 690 721 l 801 1060 l 835 1060 l 667 0 l 644 0 l 647 82 q 506 18 582 44 q 351 -8 429 -8 m 350 22 q 497 44 425 22 q 650 104 568 65 l 738 661 q 632 702 686 689 q 508 715 578 715 q 331 678 396 715 q 232 567 265 640 q 176 365 199 493 q 163 238 163 285 q 215 75 163 128 q 350 22 267 22 z "},"ð":{"ha":778,"x_min":131,"x_max":863,"o":"m 656 953 q 772 611 772 839 q 753 372 772 497 l 753 369 q 687 141 729 222 q 574 26 644 60 q 388 -8 503 -8 q 199 48 267 -8 q 131 236 131 104 q 142 368 131 290 q 208 597 165 515 q 322 713 251 679 q 507 746 393 746 q 743 575 710 746 l 743 604 q 625 940 743 838 l 410 861 l 406 881 l 607 956 q 356 1029 514 1026 l 361 1060 q 640 968 535 1057 l 858 1049 l 863 1029 l 656 953 m 394 22 q 554 49 493 22 q 656 149 615 75 q 718 367 696 224 q 729 494 729 438 q 675 664 729 613 q 500 715 621 715 q 336 686 397 715 q 237 581 275 657 q 175 358 199 504 q 164 236 164 283 q 223 67 164 113 q 394 22 282 22 z "},"ď":{"ha":778,"x_min":129,"x_max":957,"o":"m 351 -8 q 192 53 254 -8 q 129 229 129 114 q 143 376 129 306 q 203 580 167 501 q 314 702 240 658 q 511 746 388 746 q 635 733 579 746 q 743 692 690 721 l 801 1060 l 835 1060 l 667 0 l 644 0 l 647 82 q 506 18 582 44 q 351 -8 429 -8 m 350 22 q 497 44 425 22 q 650 104 568 65 l 738 661 q 632 702 686 689 q 508 715 578 715 q 331 678 396 715 q 232 567 265 640 q 176 365 199 493 q 163 238 163 285 q 215 75 163 128 q 350 22 267 22 m 908 1006 l 922 1099 l 957 1099 l 943 1006 l 903 786 l 886 786 l 908 1006 z "},"đ":{"ha":789,"x_min":129,"x_max":918,"o":"m 914 889 l 807 889 l 667 0 l 644 0 l 647 82 q 506 18 582 44 q 351 -8 429 -8 q 192 53 254 -8 q 129 229 129 114 q 143 376 129 306 q 203 580 167 501 q 314 702 240 658 q 511 746 388 746 q 635 733 579 746 q 743 692 690 721 l 775 889 l 556 889 l 560 911 l 778 911 l 801 1060 l 835 1060 l 811 911 l 918 911 l 914 889 m 738 661 q 632 702 686 689 q 508 715 578 715 q 331 678 396 715 q 232 567 265 640 q 176 365 199 493 q 163 238 163 285 q 215 75 163 128 q 350 22 267 22 q 497 44 425 22 q 650 104 568 65 l 738 661 z "},"ḋ":{"ha":778,"x_min":129,"x_max":886,"o":"m 351 -8 q 192 53 254 -8 q 129 229 129 114 q 143 376 129 306 q 203 580 167 501 q 314 702 240 658 q 511 746 388 746 q 635 733 579 746 q 743 692 690 721 l 801 1060 l 835 1060 l 667 0 l 644 0 l 647 82 q 506 18 582 44 q 351 -8 429 -8 m 350 22 q 497 44 425 22 q 650 104 568 65 l 738 661 q 632 702 686 689 q 508 715 578 715 q 331 678 396 715 q 232 567 265 640 q 176 365 199 493 q 163 238 163 285 q 215 75 163 128 q 350 22 267 22 m 838 1213 q 824 1226 824 1213 l 824 1229 l 838 1315 q 857 1332 839 1332 l 872 1332 q 886 1319 886 1332 l 886 1315 l 872 1229 q 853 1213 869 1213 l 838 1213 z "},"ḍ":{"ha":778,"x_min":129,"x_max":835,"o":"m 351 -8 q 192 53 254 -8 q 129 229 129 114 q 143 376 129 306 q 203 580 167 501 q 314 702 240 658 q 511 746 388 746 q 635 733 579 746 q 743 692 690 721 l 801 1060 l 835 1060 l 667 0 l 644 0 l 647 82 q 506 18 582 44 q 351 -8 429 -8 m 350 22 q 497 44 425 22 q 650 104 568 65 l 738 661 q 632 702 686 689 q 508 715 578 715 q 331 678 396 715 q 232 567 265 640 q 176 365 199 493 q 163 238 163 285 q 215 75 163 128 q 350 22 267 22 m 326 -274 q 313 -260 313 -274 l 313 -257 l 326 -171 q 346 -154 328 -154 l 361 -154 q 375 -167 375 -154 l 375 -171 l 361 -257 q 342 -274 358 -274 l 326 -274 z "},"ḏ":{"ha":778,"x_min":129,"x_max":835,"o":"m 351 -8 q 192 53 254 -8 q 129 229 129 114 q 143 376 129 306 q 203 580 167 501 q 314 702 240 658 q 511 746 388 746 q 635 733 579 746 q 743 692 690 721 l 801 1060 l 835 1060 l 667 0 l 644 0 l 647 82 q 506 18 582 44 q 351 -8 429 -8 m 350 22 q 497 44 425 22 q 650 104 568 65 l 738 661 q 632 702 686 689 q 508 715 578 715 q 331 678 396 715 q 232 567 265 640 q 176 365 199 493 q 163 238 163 285 q 215 75 163 128 q 350 22 267 22 m 189 -214 l 539 -214 l 535 -235 l 185 -235 l 189 -214 z "},"e":{"ha":761,"x_min":132,"x_max":764,"o":"m 438 -8 q 206 52 279 -8 q 132 238 132 113 q 147 404 132 310 q 258 662 171 572 q 514 751 346 751 q 701 707 639 751 q 764 564 764 663 q 661 381 764 433 q 399 328 558 328 q 267 335 328 328 q 172 353 206 343 q 165 240 165 306 q 229 74 165 125 q 440 22 293 22 l 654 22 l 650 0 q 438 -8 508 -8 m 374 358 q 638 402 544 358 q 731 561 731 446 q 677 684 731 647 q 511 721 624 721 q 275 635 350 721 q 175 375 200 550 q 374 358 261 358 z "},"é":{"ha":761,"x_min":132,"x_max":764,"o":"m 438 -8 q 206 52 279 -8 q 132 238 132 113 q 147 404 132 310 q 258 662 171 572 q 514 751 346 751 q 701 707 639 751 q 764 564 764 663 q 661 381 764 433 q 399 328 558 328 q 267 335 328 328 q 172 353 206 343 q 165 240 165 306 q 229 74 165 125 q 440 22 293 22 l 654 22 l 650 0 q 438 -8 508 -8 m 374 358 q 638 402 544 358 q 731 561 731 446 q 677 684 731 647 q 511 721 624 721 q 275 635 350 721 q 175 375 200 550 q 374 358 261 358 m 707 1061 l 743 1061 l 529 876 l 510 876 l 707 1061 z "},"ĕ":{"ha":761,"x_min":132,"x_max":764,"o":"m 438 -8 q 206 52 279 -8 q 132 238 132 113 q 147 404 132 310 q 258 662 171 572 q 514 751 346 751 q 701 707 639 751 q 764 564 764 663 q 661 381 764 433 q 399 328 558 328 q 267 335 328 328 q 172 353 206 343 q 165 240 165 306 q 229 74 165 125 q 440 22 293 22 l 654 22 l 650 0 q 438 -8 508 -8 m 374 358 q 638 402 544 358 q 731 561 731 446 q 677 684 731 647 q 511 721 624 721 q 275 635 350 721 q 175 375 200 550 q 374 358 261 358 m 533 879 q 429 912 471 879 q 388 1019 388 944 q 390 1065 388 1032 l 410 1065 q 407 1024 407 1035 q 442 929 407 960 q 533 899 476 899 q 653 938 603 899 q 718 1065 704 978 l 738 1065 q 665 921 721 963 q 533 879 608 879 z "},"ě":{"ha":761,"x_min":132,"x_max":769,"o":"m 438 -8 q 206 52 279 -8 q 132 238 132 113 q 147 404 132 310 q 258 662 171 572 q 514 751 346 751 q 701 707 639 751 q 764 564 764 663 q 661 381 764 433 q 399 328 558 328 q 267 335 328 328 q 172 353 206 343 q 165 240 165 306 q 229 74 165 125 q 440 22 293 22 l 654 22 l 650 0 q 438 -8 508 -8 m 374 358 q 638 402 544 358 q 731 561 731 446 q 677 684 731 647 q 511 721 624 721 q 275 635 350 721 q 175 375 200 550 q 374 358 261 358 m 392 1057 l 417 1057 l 546 897 l 744 1057 l 769 1057 l 557 876 l 529 876 l 392 1057 z "},"ḝ":{"ha":761,"x_min":132,"x_max":764,"o":"m 533 879 q 429 912 471 879 q 388 1019 388 944 q 390 1065 388 1032 l 410 1065 q 407 1024 407 1035 q 442 929 407 960 q 533 899 476 899 q 653 938 603 899 q 718 1065 704 978 l 738 1065 q 665 921 721 963 q 533 879 608 879 m 399 328 q 267 335 328 328 q 172 353 206 343 q 165 240 165 306 q 229 74 165 125 q 440 22 293 22 l 654 22 l 650 0 q 438 -8 508 -8 l 422 -8 l 349 -94 q 444 -160 444 -96 q 428 -207 444 -182 q 380 -250 411 -232 q 307 -268 349 -268 l 279 -268 l 282 -254 l 318 -251 q 375 -233 351 -249 q 411 -199 399 -218 q 424 -164 424 -179 q 400 -123 424 -137 q 318 -108 376 -108 l 403 -7 q 198 59 264 -1 q 132 238 132 119 q 147 404 132 310 q 258 662 171 572 q 514 751 346 751 q 701 707 639 751 q 764 564 764 663 q 661 381 764 433 q 399 328 558 328 m 511 721 q 275 635 350 721 q 175 375 200 550 q 374 358 261 358 q 638 402 544 358 q 731 561 731 446 q 677 684 731 647 q 511 721 624 721 z "},"ê":{"ha":761,"x_min":132,"x_max":764,"o":"m 438 -8 q 206 52 279 -8 q 132 238 132 113 q 147 404 132 310 q 258 662 171 572 q 514 751 346 751 q 701 707 639 751 q 764 564 764 663 q 661 381 764 433 q 399 328 558 328 q 267 335 328 328 q 172 353 206 343 q 165 240 165 306 q 229 74 165 125 q 440 22 293 22 l 654 22 l 650 0 q 438 -8 508 -8 m 374 358 q 638 402 544 358 q 731 561 731 446 q 677 684 731 647 q 511 721 624 721 q 275 635 350 721 q 175 375 200 550 q 374 358 261 358 m 561 1057 l 589 1057 l 726 876 l 701 876 l 571 1036 l 374 876 l 349 876 l 561 1057 z "},"ế":{"ha":761,"x_min":132,"x_max":882,"o":"m 438 -8 q 206 52 279 -8 q 132 238 132 113 q 147 404 132 310 q 258 662 171 572 q 514 751 346 751 q 701 707 639 751 q 764 564 764 663 q 661 381 764 433 q 399 328 558 328 q 267 335 328 328 q 172 353 206 343 q 165 240 165 306 q 229 74 165 125 q 440 22 293 22 l 654 22 l 650 0 q 438 -8 508 -8 m 374 358 q 638 402 544 358 q 731 561 731 446 q 677 684 731 647 q 511 721 624 721 q 275 635 350 721 q 175 375 200 550 q 374 358 261 358 m 846 1158 l 882 1158 l 668 974 l 649 974 l 846 1158 m 528 1001 l 556 1001 l 703 876 l 678 876 l 539 981 l 350 876 l 325 876 l 528 1001 z "},"ệ":{"ha":761,"x_min":132,"x_max":764,"o":"m 438 -8 q 206 52 279 -8 q 132 238 132 113 q 147 404 132 310 q 258 662 171 572 q 514 751 346 751 q 701 707 639 751 q 764 564 764 663 q 661 381 764 433 q 399 328 558 328 q 267 335 328 328 q 172 353 206 343 q 165 240 165 306 q 229 74 165 125 q 440 22 293 22 l 654 22 l 650 0 q 438 -8 508 -8 m 374 358 q 638 402 544 358 q 731 561 731 446 q 677 684 731 647 q 511 721 624 721 q 275 635 350 721 q 175 375 200 550 q 374 358 261 358 m 561 1057 l 589 1057 l 726 876 l 701 876 l 571 1036 l 374 876 l 349 876 l 561 1057 m 351 -274 q 338 -260 338 -274 l 338 -257 l 351 -171 q 371 -154 353 -154 l 386 -154 q 400 -167 400 -154 l 400 -171 l 386 -257 q 367 -274 383 -274 l 351 -274 z "},"ề":{"ha":761,"x_min":132,"x_max":764,"o":"m 438 -8 q 206 52 279 -8 q 132 238 132 113 q 147 404 132 310 q 258 662 171 572 q 514 751 346 751 q 701 707 639 751 q 764 564 764 663 q 661 381 764 433 q 399 328 558 328 q 267 335 328 328 q 172 353 206 343 q 165 240 165 306 q 229 74 165 125 q 440 22 293 22 l 654 22 l 650 0 q 438 -8 508 -8 m 374 358 q 638 402 544 358 q 731 561 731 446 q 677 684 731 647 q 511 721 624 721 q 275 635 350 721 q 175 375 200 550 q 374 358 261 358 m 250 1158 l 286 1158 l 425 974 l 406 974 l 250 1158 m 517 1001 l 544 1001 l 692 876 l 667 876 l 528 981 l 339 876 l 314 876 l 517 1001 z "},"ể":{"ha":761,"x_min":132,"x_max":803,"o":"m 438 -8 q 206 52 279 -8 q 132 238 132 113 q 147 404 132 310 q 258 662 171 572 q 514 751 346 751 q 701 707 639 751 q 764 564 764 663 q 661 381 764 433 q 399 328 558 328 q 267 335 328 328 q 172 353 206 343 q 165 240 165 306 q 229 74 165 125 q 440 22 293 22 l 654 22 l 650 0 q 438 -8 508 -8 m 374 358 q 638 402 544 358 q 731 561 731 446 q 677 684 731 647 q 511 721 624 721 q 275 635 350 721 q 175 375 200 550 q 374 358 261 358 m 675 964 q 756 1009 732 981 q 781 1069 781 1038 q 714 1119 781 1119 q 660 1111 685 1119 l 663 1131 q 719 1139 688 1139 q 782 1120 761 1139 q 803 1069 803 1101 q 772 996 803 1029 q 672 944 740 963 l 675 964 m 533 1001 l 561 1001 l 708 876 l 683 876 l 544 981 l 356 876 l 331 876 l 533 1001 z "},"ễ":{"ha":761,"x_min":132,"x_max":794,"o":"m 438 -8 q 206 52 279 -8 q 132 238 132 113 q 147 404 132 310 q 258 662 171 572 q 514 751 346 751 q 701 707 639 751 q 764 564 764 663 q 661 381 764 433 q 399 328 558 328 q 267 335 328 328 q 172 353 206 343 q 165 240 165 306 q 229 74 165 125 q 440 22 293 22 l 654 22 l 650 0 q 438 -8 508 -8 m 374 358 q 638 402 544 358 q 731 561 731 446 q 677 684 731 647 q 511 721 624 721 q 275 635 350 721 q 175 375 200 550 q 374 358 261 358 m 336 1071 q 379 1144 343 1121 q 458 1167 415 1167 q 514 1156 488 1167 q 572 1128 540 1146 q 626 1102 603 1111 q 674 1093 649 1093 q 741 1113 713 1093 q 775 1167 769 1132 l 794 1167 q 754 1097 788 1124 q 668 1071 721 1071 q 617 1080 642 1071 q 563 1107 593 1089 q 506 1135 531 1125 q 453 1144 482 1144 q 389 1126 417 1144 q 356 1071 361 1108 l 336 1071 m 535 1001 l 563 1001 l 708 876 l 683 876 l 544 981 l 356 876 l 331 876 l 535 1001 z "},"ȅ":{"ha":761,"x_min":132,"x_max":764,"o":"m 438 -8 q 206 52 279 -8 q 132 238 132 113 q 147 404 132 310 q 258 662 171 572 q 514 751 346 751 q 701 707 639 751 q 764 564 764 663 q 661 381 764 433 q 399 328 558 328 q 267 335 328 328 q 172 353 206 343 q 165 240 165 306 q 229 74 165 125 q 440 22 293 22 l 654 22 l 650 0 q 438 -8 508 -8 m 374 358 q 638 402 544 358 q 731 561 731 446 q 677 684 731 647 q 511 721 624 721 q 275 635 350 721 q 175 375 200 550 q 374 358 261 358 m 317 1061 l 353 1061 l 492 876 l 472 876 l 317 1061 m 483 1061 l 519 1061 l 658 876 l 639 876 l 483 1061 z "},"ë":{"ha":761,"x_min":132,"x_max":764,"o":"m 438 -8 q 206 52 279 -8 q 132 238 132 113 q 147 404 132 310 q 258 662 171 572 q 514 751 346 751 q 701 707 639 751 q 764 564 764 663 q 661 381 764 433 q 399 328 558 328 q 267 335 328 328 q 172 353 206 343 q 165 240 165 306 q 229 74 165 125 q 440 22 293 22 l 654 22 l 650 0 q 438 -8 508 -8 m 374 358 q 638 402 544 358 q 731 561 731 446 q 677 684 731 647 q 511 721 624 721 q 275 635 350 721 q 175 375 200 550 q 374 358 261 358 m 363 925 q 349 939 349 925 l 363 1028 q 383 1044 364 1044 l 399 1044 q 413 1032 413 1044 q 397 942 413 1038 q 378 925 394 925 l 363 925 m 651 925 q 638 939 638 925 l 651 1028 q 672 1044 653 1044 l 688 1044 q 701 1032 701 1044 q 686 942 701 1038 q 667 925 683 925 l 651 925 z "},"ė":{"ha":761,"x_min":132,"x_max":764,"o":"m 438 -8 q 206 52 279 -8 q 132 238 132 113 q 147 404 132 310 q 258 662 171 572 q 514 751 346 751 q 701 707 639 751 q 764 564 764 663 q 661 381 764 433 q 399 328 558 328 q 267 335 328 328 q 172 353 206 343 q 165 240 165 306 q 229 74 165 125 q 440 22 293 22 l 654 22 l 650 0 q 438 -8 508 -8 m 374 358 q 638 402 544 358 q 731 561 731 446 q 677 684 731 647 q 511 721 624 721 q 275 635 350 721 q 175 375 200 550 q 374 358 261 358 m 529 935 q 515 949 515 935 l 515 951 l 529 1038 q 549 1054 531 1054 l 564 1054 q 578 1042 578 1054 l 578 1038 l 564 951 q 544 935 561 935 l 529 935 z "},"ẹ":{"ha":761,"x_min":132,"x_max":764,"o":"m 438 -8 q 206 52 279 -8 q 132 238 132 113 q 147 404 132 310 q 258 662 171 572 q 514 751 346 751 q 701 707 639 751 q 764 564 764 663 q 661 381 764 433 q 399 328 558 328 q 267 335 328 328 q 172 353 206 343 q 165 240 165 306 q 229 74 165 125 q 440 22 293 22 l 654 22 l 650 0 q 438 -8 508 -8 m 374 358 q 638 402 544 358 q 731 561 731 446 q 677 684 731 647 q 511 721 624 721 q 275 635 350 721 q 175 375 200 550 q 374 358 261 358 m 351 -274 q 338 -260 338 -274 l 338 -257 l 351 -171 q 371 -154 353 -154 l 386 -154 q 400 -167 400 -154 l 400 -171 l 386 -257 q 367 -274 383 -274 l 351 -274 z "},"è":{"ha":761,"x_min":132,"x_max":764,"o":"m 438 -8 q 206 52 279 -8 q 132 238 132 113 q 147 404 132 310 q 258 662 171 572 q 514 751 346 751 q 701 707 639 751 q 764 564 764 663 q 661 381 764 433 q 399 328 558 328 q 267 335 328 328 q 172 353 206 343 q 165 240 165 306 q 229 74 165 125 q 440 22 293 22 l 654 22 l 650 0 q 438 -8 508 -8 m 374 358 q 638 402 544 358 q 731 561 731 446 q 677 684 731 647 q 511 721 624 721 q 275 635 350 721 q 175 375 200 550 q 374 358 261 358 m 400 1061 l 436 1061 l 575 876 l 556 876 l 400 1061 z "},"ẻ":{"ha":761,"x_min":132,"x_max":764,"o":"m 438 -8 q 206 52 279 -8 q 132 238 132 113 q 147 404 132 310 q 258 662 171 572 q 514 751 346 751 q 701 707 639 751 q 764 564 764 663 q 661 381 764 433 q 399 328 558 328 q 267 335 328 328 q 172 353 206 343 q 165 240 165 306 q 229 74 165 125 q 440 22 293 22 l 654 22 l 650 0 q 438 -8 508 -8 m 374 358 q 638 402 544 358 q 731 561 731 446 q 677 684 731 647 q 511 721 624 721 q 275 635 350 721 q 175 375 200 550 q 374 358 261 358 m 508 867 q 622 990 622 901 q 553 1050 622 1050 q 497 1042 525 1050 l 500 1061 q 560 1069 526 1069 q 644 992 644 1069 q 610 906 644 944 q 504 847 576 867 l 508 867 z "},"ȇ":{"ha":761,"x_min":132,"x_max":764,"o":"m 438 -8 q 206 52 279 -8 q 132 238 132 113 q 147 404 132 310 q 258 662 171 572 q 514 751 346 751 q 701 707 639 751 q 764 564 764 663 q 661 381 764 433 q 399 328 558 328 q 267 335 328 328 q 172 353 206 343 q 165 240 165 306 q 229 74 165 125 q 440 22 293 22 l 654 22 l 650 0 q 438 -8 508 -8 m 374 358 q 638 402 544 358 q 731 561 731 446 q 677 684 731 647 q 511 721 624 721 q 275 635 350 721 q 175 375 200 550 q 374 358 261 358 m 346 879 q 419 1024 363 982 q 550 1065 475 1065 q 654 1033 613 1065 q 696 925 696 1000 q 693 879 696 913 l 674 879 q 676 921 676 910 q 641 1015 676 985 q 547 1046 606 1046 q 430 1006 481 1046 q 365 879 379 967 l 346 879 z "},"ē":{"ha":761,"x_min":132,"x_max":764,"o":"m 438 -8 q 206 52 279 -8 q 132 238 132 113 q 147 404 132 310 q 258 662 171 572 q 514 751 346 751 q 701 707 639 751 q 764 564 764 663 q 661 381 764 433 q 399 328 558 328 q 267 335 328 328 q 172 353 206 343 q 165 240 165 306 q 229 74 165 125 q 440 22 293 22 l 654 22 l 650 0 q 438 -8 508 -8 m 374 358 q 638 402 544 358 q 731 561 731 446 q 677 684 731 647 q 511 721 624 721 q 275 635 350 721 q 175 375 200 550 q 374 358 261 358 m 375 981 l 725 981 l 721 960 l 371 960 l 375 981 z "},"ḗ":{"ha":761,"x_min":132,"x_max":771,"o":"m 438 -8 q 206 52 279 -8 q 132 238 132 113 q 147 404 132 310 q 258 662 171 572 q 514 751 346 751 q 701 707 639 751 q 764 564 764 663 q 661 381 764 433 q 399 328 558 328 q 267 335 328 328 q 172 353 206 343 q 165 240 165 306 q 229 74 165 125 q 440 22 293 22 l 654 22 l 650 0 q 438 -8 508 -8 m 374 358 q 638 402 544 358 q 731 561 731 446 q 677 684 731 647 q 511 721 624 721 q 275 635 350 721 q 175 375 200 550 q 374 358 261 358 m 375 981 l 725 981 l 721 960 l 371 960 l 375 981 m 735 1228 l 771 1228 l 557 1043 l 538 1043 l 735 1228 z "},"ḕ":{"ha":761,"x_min":132,"x_max":764,"o":"m 438 -8 q 206 52 279 -8 q 132 238 132 113 q 147 404 132 310 q 258 662 171 572 q 514 751 346 751 q 701 707 639 751 q 764 564 764 663 q 661 381 764 433 q 399 328 558 328 q 267 335 328 328 q 172 353 206 343 q 165 240 165 306 q 229 74 165 125 q 440 22 293 22 l 654 22 l 650 0 q 438 -8 508 -8 m 374 358 q 638 402 544 358 q 731 561 731 446 q 677 684 731 647 q 511 721 624 721 q 275 635 350 721 q 175 375 200 550 q 374 358 261 358 m 375 981 l 725 981 l 721 960 l 371 960 l 375 981 m 400 1228 l 436 1228 l 575 1043 l 556 1043 l 400 1228 z "},"ę":{"ha":761,"x_min":132,"x_max":764,"o":"m 399 328 q 267 335 328 328 q 172 353 206 343 q 165 240 165 306 q 229 74 165 125 q 440 22 293 22 l 654 22 l 650 0 q 557 -69 590 -28 q 524 -146 524 -111 q 556 -210 524 -187 q 651 -232 588 -232 l 658 -232 l 654 -251 q 625 -253 643 -253 q 532 -226 567 -253 q 497 -151 497 -199 q 530 -73 497 -115 q 631 -1 563 -31 q 438 -8 510 -8 q 206 52 279 -8 q 132 238 132 113 q 147 404 132 310 q 258 662 171 572 q 514 751 346 751 q 701 707 639 751 q 764 564 764 663 q 661 381 764 433 q 399 328 558 328 m 511 721 q 275 635 350 721 q 175 375 200 550 q 374 358 261 358 q 638 402 544 358 q 731 561 731 446 q 677 684 731 647 q 511 721 624 721 z "},"ẽ":{"ha":761,"x_min":132,"x_max":821,"o":"m 438 -8 q 206 52 279 -8 q 132 238 132 113 q 147 404 132 310 q 258 662 171 572 q 514 751 346 751 q 701 707 639 751 q 764 564 764 663 q 661 381 764 433 q 399 328 558 328 q 267 335 328 328 q 172 353 206 343 q 165 240 165 306 q 229 74 165 125 q 440 22 293 22 l 654 22 l 650 0 q 438 -8 508 -8 m 374 358 q 638 402 544 358 q 731 561 731 446 q 677 684 731 647 q 511 721 624 721 q 275 635 350 721 q 175 375 200 550 q 374 358 261 358 m 329 918 q 379 1012 339 982 q 471 1042 419 1042 q 526 1028 500 1042 q 583 989 551 1015 q 637 953 614 965 q 686 940 660 940 q 762 967 731 940 q 801 1042 793 993 l 821 1042 q 776 952 813 986 q 681 918 739 918 q 631 931 654 918 q 576 968 608 943 q 516 1007 539 994 q 464 1019 493 1019 q 389 994 421 1019 q 349 918 357 969 l 329 918 z "},"ə":{"ha":764,"x_min":117,"x_max":749,"o":"m 443 746 q 675 685 601 746 q 749 500 749 625 q 733 333 749 428 q 622 76 710 165 q 367 -14 535 -14 q 179 31 242 -14 q 117 174 117 75 q 219 357 117 304 q 482 410 322 410 q 614 402 553 410 q 708 385 675 394 q 715 497 715 432 q 651 664 715 613 q 440 715 588 715 l 226 715 l 231 738 q 443 746 372 746 m 507 379 q 243 335 336 379 q 150 176 150 292 q 203 53 150 90 q 369 17 257 17 q 606 102 531 17 q 706 363 681 188 q 507 379 619 379 z "},"f":{"ha":500,"x_min":157,"x_max":657,"o":"m 278 704 l 157 704 l 161 726 l 283 738 l 303 856 q 314 926 304 864 q 370 1028 324 989 q 497 1068 417 1068 q 657 1061 578 1068 l 654 1039 l 493 1039 q 406 1017 438 1039 q 361 957 375 994 q 336 856 347 919 l 317 738 l 578 738 l 572 704 l 311 704 l 200 0 l 167 0 l 278 704 z "},"ḟ":{"ha":500,"x_min":157,"x_max":657,"o":"m 278 704 l 157 704 l 161 726 l 283 738 l 303 856 q 314 926 304 864 q 370 1028 324 989 q 497 1068 417 1068 q 657 1061 578 1068 l 654 1039 l 493 1039 q 406 1017 438 1039 q 361 957 375 994 q 336 856 347 919 l 317 738 l 578 738 l 572 704 l 311 704 l 200 0 l 167 0 l 278 704 m 500 1213 q 486 1226 486 1213 l 486 1229 l 500 1315 q 519 1332 501 1332 l 535 1332 q 549 1319 549 1332 l 549 1315 l 535 1229 q 515 1213 532 1213 l 500 1213 z "},"g":{"ha":776,"x_min":88,"x_max":782,"o":"m 88 -322 l 92 -300 l 308 -300 q 513 -248 426 -300 q 618 -92 600 -196 l 647 82 q 492 14 572 36 q 339 -8 413 -8 q 237 18 285 -8 q 160 98 189 44 q 131 228 131 151 q 144 382 131 292 q 204 585 164 506 q 321 705 244 664 q 524 746 397 746 q 782 728 663 746 l 651 -94 q 578 -239 636 -186 q 446 -312 519 -292 q 303 -329 372 -332 l 88 -322 m 343 22 q 488 41 418 22 q 650 104 558 60 l 744 706 l 651 710 q 496 715 546 715 q 278 634 350 715 q 178 376 206 553 q 164 231 164 283 q 214 75 164 128 q 343 22 264 22 z "},"ğ":{"ha":776,"x_min":88,"x_max":782,"o":"m 88 -322 l 92 -300 l 308 -300 q 513 -248 426 -300 q 618 -92 600 -196 l 647 82 q 492 14 572 36 q 339 -8 413 -8 q 237 18 285 -8 q 160 98 189 44 q 131 228 131 151 q 144 382 131 292 q 204 585 164 506 q 321 705 244 664 q 524 746 397 746 q 782 728 663 746 l 651 -94 q 578 -239 636 -186 q 446 -312 519 -292 q 303 -329 372 -332 l 88 -322 m 343 22 q 488 41 418 22 q 650 104 558 60 l 744 706 l 651 710 q 496 715 546 715 q 278 634 350 715 q 178 376 206 553 q 164 231 164 283 q 214 75 164 128 q 343 22 264 22 m 536 879 q 432 912 474 879 q 390 1019 390 944 q 393 1065 390 1032 l 413 1065 q 410 1024 410 1035 q 444 929 410 960 q 536 899 479 899 q 656 938 606 899 q 721 1065 707 978 l 740 1065 q 667 921 724 963 q 536 879 611 879 z "},"ǧ":{"ha":776,"x_min":88,"x_max":782,"o":"m 88 -322 l 92 -300 l 308 -300 q 513 -248 426 -300 q 618 -92 600 -196 l 647 82 q 492 14 572 36 q 339 -8 413 -8 q 237 18 285 -8 q 160 98 189 44 q 131 228 131 151 q 144 382 131 292 q 204 585 164 506 q 321 705 244 664 q 524 746 397 746 q 782 728 663 746 l 651 -94 q 578 -239 636 -186 q 446 -312 519 -292 q 303 -329 372 -332 l 88 -322 m 343 22 q 488 41 418 22 q 650 104 558 60 l 744 706 l 651 710 q 496 715 546 715 q 278 634 350 715 q 178 376 206 553 q 164 231 164 283 q 214 75 164 128 q 343 22 264 22 m 394 1057 l 419 1057 l 549 897 l 747 1057 l 772 1057 l 560 876 l 532 876 l 394 1057 z "},"ĝ":{"ha":776,"x_min":88,"x_max":782,"o":"m 88 -322 l 92 -300 l 308 -300 q 513 -248 426 -300 q 618 -92 600 -196 l 647 82 q 492 14 572 36 q 339 -8 413 -8 q 237 18 285 -8 q 160 98 189 44 q 131 228 131 151 q 144 382 131 292 q 204 585 164 506 q 321 705 244 664 q 524 746 397 746 q 782 728 663 746 l 651 -94 q 578 -239 636 -186 q 446 -312 519 -292 q 303 -329 372 -332 l 88 -322 m 343 22 q 488 41 418 22 q 650 104 558 60 l 744 706 l 651 710 q 496 715 546 715 q 278 634 350 715 q 178 376 206 553 q 164 231 164 283 q 214 75 164 128 q 343 22 264 22 m 564 1057 l 592 1057 l 729 876 l 704 876 l 574 1036 l 376 876 l 351 876 l 564 1057 z "},"ģ":{"ha":776,"x_min":88,"x_max":782,"o":"m 88 -322 l 92 -300 l 308 -300 q 513 -248 426 -300 q 618 -92 600 -196 l 647 82 q 492 14 572 36 q 339 -8 413 -8 q 237 18 285 -8 q 160 98 189 44 q 131 228 131 151 q 144 382 131 292 q 204 585 164 506 q 321 705 244 664 q 524 746 397 746 q 782 728 663 746 l 651 -94 q 578 -239 636 -186 q 446 -312 519 -292 q 303 -329 372 -332 l 88 -322 m 343 22 q 488 41 418 22 q 650 104 558 60 l 744 706 l 651 710 q 496 715 546 715 q 278 634 350 715 q 178 376 206 553 q 164 231 164 283 q 214 75 164 128 q 343 22 264 22 m 465 846 q 494 959 476 919 q 547 1017 513 999 q 640 1035 581 1035 l 678 1035 l 675 1021 l 631 1017 q 561 1001 586 1013 q 517 953 536 989 q 489 846 499 918 l 465 846 z "},"ġ":{"ha":776,"x_min":88,"x_max":782,"o":"m 88 -322 l 92 -300 l 308 -300 q 513 -248 426 -300 q 618 -92 600 -196 l 647 82 q 492 14 572 36 q 339 -8 413 -8 q 237 18 285 -8 q 160 98 189 44 q 131 228 131 151 q 144 382 131 292 q 204 585 164 506 q 321 705 244 664 q 524 746 397 746 q 782 728 663 746 l 651 -94 q 578 -239 636 -186 q 446 -312 519 -292 q 303 -329 372 -332 l 88 -322 m 343 22 q 488 41 418 22 q 650 104 558 60 l 744 706 l 651 710 q 496 715 546 715 q 278 634 350 715 q 178 376 206 553 q 164 231 164 283 q 214 75 164 128 q 343 22 264 22 m 532 935 q 518 949 518 935 l 518 951 l 532 1038 q 551 1054 533 1054 l 567 1054 q 581 1042 581 1054 l 581 1038 l 567 951 q 547 935 564 935 l 532 935 z "},"ḡ":{"ha":776,"x_min":88,"x_max":782,"o":"m 88 -322 l 92 -300 l 308 -300 q 513 -248 426 -300 q 618 -92 600 -196 l 647 82 q 492 14 572 36 q 339 -8 413 -8 q 237 18 285 -8 q 160 98 189 44 q 131 228 131 151 q 144 382 131 292 q 204 585 164 506 q 321 705 244 664 q 524 746 397 746 q 782 728 663 746 l 651 -94 q 578 -239 636 -186 q 446 -312 519 -292 q 303 -329 372 -332 l 88 -322 m 343 22 q 488 41 418 22 q 650 104 558 60 l 744 706 l 651 710 q 496 715 546 715 q 278 634 350 715 q 178 376 206 553 q 164 231 164 283 q 214 75 164 128 q 343 22 264 22 m 378 981 l 728 981 l 724 960 l 374 960 l 378 981 z "},"h":{"ha":783,"x_min":111,"x_max":758,"o":"m 279 1060 l 313 1060 l 247 651 q 401 724 319 697 q 568 750 483 750 q 710 704 661 750 q 758 572 758 658 q 754 514 758 546 l 672 0 l 639 0 l 718 504 q 724 568 724 536 q 682 684 724 649 q 558 719 640 719 q 403 699 471 719 q 244 629 335 678 l 144 0 l 111 0 l 279 1060 z "},"ħ":{"ha":783,"x_min":111,"x_max":758,"o":"m 568 750 q 710 704 661 750 q 758 572 758 658 q 754 514 758 546 l 672 0 l 639 0 l 718 504 q 724 568 724 536 q 682 684 724 649 q 558 719 640 719 q 403 699 471 719 q 244 629 335 678 l 144 0 l 111 0 l 251 889 l 139 889 l 143 911 l 256 911 l 279 1060 l 313 1060 l 289 911 l 501 911 l 497 889 l 285 889 l 247 651 q 401 724 319 697 q 568 750 483 750 z "},"ḫ":{"ha":783,"x_min":111,"x_max":758,"o":"m 279 1060 l 313 1060 l 247 651 q 401 724 319 697 q 568 750 483 750 q 710 704 661 750 q 758 572 758 658 q 754 514 758 546 l 672 0 l 639 0 l 718 504 q 724 568 724 536 q 682 684 724 649 q 558 719 640 719 q 403 699 471 719 q 244 629 335 678 l 144 0 l 111 0 l 279 1060 m 361 -301 q 257 -269 299 -301 q 215 -161 215 -236 q 218 -115 215 -149 l 238 -115 q 235 -157 235 -146 q 269 -251 235 -221 q 361 -282 304 -282 q 482 -242 432 -282 q 546 -115 532 -203 l 565 -115 q 492 -260 549 -218 q 361 -301 436 -301 z "},"ĥ":{"ha":783,"x_min":111,"x_max":758,"o":"m 279 1060 l 313 1060 l 247 651 q 401 724 319 697 q 568 750 483 750 q 710 704 661 750 q 758 572 758 658 q 754 514 758 546 l 672 0 l 639 0 l 718 504 q 724 568 724 536 q 682 684 724 649 q 558 719 640 719 q 403 699 471 719 q 244 629 335 678 l 144 0 l 111 0 l 279 1060 m 439 1335 l 467 1335 l 604 1154 l 579 1154 l 449 1314 l 251 1154 l 226 1154 l 439 1335 z "},"ḥ":{"ha":783,"x_min":111,"x_max":758,"o":"m 279 1060 l 313 1060 l 247 651 q 401 724 319 697 q 568 750 483 750 q 710 704 661 750 q 758 572 758 658 q 754 514 758 546 l 672 0 l 639 0 l 718 504 q 724 568 724 536 q 682 684 724 649 q 558 719 640 719 q 403 699 471 719 q 244 629 335 678 l 144 0 l 111 0 l 279 1060 m 326 -274 q 313 -260 313 -274 l 313 -257 l 326 -171 q 346 -154 328 -154 l 361 -154 q 375 -167 375 -154 l 375 -171 l 361 -257 q 342 -274 358 -274 l 326 -274 z "},"i":{"ha":256,"x_min":111,"x_max":311,"o":"m 261 889 q 250 894 254 889 q 247 906 246 899 l 261 992 q 281 1008 264 1008 l 296 1008 q 308 992 311 1008 l 294 906 q 276 889 293 889 l 261 889 m 228 738 l 261 738 l 144 0 l 111 0 l 228 738 z "},"ı":{"ha":256,"x_min":111,"x_max":261,"o":"m 228 738 l 261 738 l 144 0 l 111 0 l 228 738 z "},"í":{"ha":256,"x_min":111,"x_max":485,"o":"m 228 738 l 261 738 l 144 0 l 111 0 l 228 738 m 449 1061 l 485 1061 l 271 876 l 251 876 l 449 1061 z "},"ĭ":{"ha":256,"x_min":111,"x_max":479,"o":"m 228 738 l 261 738 l 144 0 l 111 0 l 228 738 m 275 879 q 171 912 213 879 q 129 1019 129 944 q 132 1065 129 1032 l 151 1065 q 149 1024 149 1035 q 183 929 149 960 q 275 899 218 899 q 395 938 344 899 q 460 1065 446 978 l 479 1065 q 406 921 463 963 q 275 879 350 879 z "},"î":{"ha":256,"x_min":90,"x_max":468,"o":"m 228 738 l 261 738 l 144 0 l 111 0 l 228 738 m 303 1057 l 331 1057 l 468 876 l 443 876 l 313 1036 l 115 876 l 90 876 l 303 1057 z "},"ȉ":{"ha":256,"x_min":58,"x_max":400,"o":"m 228 738 l 261 738 l 144 0 l 111 0 l 228 738 m 58 1061 l 94 1061 l 233 876 l 214 876 l 58 1061 m 225 1061 l 261 1061 l 400 876 l 381 876 l 225 1061 z "},"ï":{"ha":256,"x_min":90,"x_max":443,"o":"m 228 738 l 261 738 l 144 0 l 111 0 l 228 738 m 104 925 q 90 939 90 925 l 104 1028 q 125 1044 106 1044 l 140 1044 q 154 1032 154 1044 q 139 942 154 1038 q 119 925 136 925 l 104 925 m 393 925 q 379 939 379 925 l 393 1028 q 414 1044 394 1044 l 429 1044 q 443 1032 443 1044 q 428 942 443 1038 q 408 925 425 925 l 393 925 z "},"ḯ":{"ha":256,"x_min":90,"x_max":499,"o":"m 228 738 l 261 738 l 144 0 l 111 0 l 228 738 m 104 925 q 90 939 90 925 l 104 1028 q 125 1044 106 1044 l 140 1044 q 154 1032 154 1044 q 139 942 154 1038 q 119 925 136 925 l 104 925 m 393 925 q 379 939 379 925 l 393 1028 q 414 1044 394 1044 l 429 1044 q 443 1032 443 1044 q 428 942 443 1038 q 408 925 425 925 l 393 925 m 463 1283 l 499 1283 l 285 1099 l 265 1099 l 463 1283 z "},"ị":{"ha":256,"x_min":61,"x_max":308,"o":"m 261 889 q 250 894 254 889 q 247 906 246 899 l 261 992 q 281 1008 264 1008 l 296 1008 q 308 992 311 1008 l 294 906 q 276 889 293 889 l 261 889 m 228 738 l 261 738 l 144 0 l 111 0 l 228 738 m 75 -274 q 61 -260 61 -274 l 61 -257 l 75 -171 q 94 -154 76 -154 l 110 -154 q 124 -167 124 -154 l 124 -171 l 110 -257 q 90 -274 107 -274 l 75 -274 z "},"ì":{"ha":256,"x_min":111,"x_max":317,"o":"m 228 738 l 261 738 l 144 0 l 111 0 l 228 738 m 142 1061 l 178 1061 l 317 876 l 297 876 l 142 1061 z "},"ỉ":{"ha":256,"x_min":111,"x_max":386,"o":"m 228 738 l 261 738 l 144 0 l 111 0 l 228 738 m 250 867 q 364 990 364 901 q 294 1050 364 1050 q 239 1042 267 1050 l 242 1061 q 301 1069 268 1069 q 386 992 386 1069 q 352 906 386 944 q 246 847 318 867 l 250 867 z "},"ȋ":{"ha":256,"x_min":88,"x_max":438,"o":"m 228 738 l 261 738 l 144 0 l 111 0 l 228 738 m 88 879 q 160 1024 104 982 q 292 1065 217 1065 q 396 1033 354 1065 q 438 925 438 1000 q 435 879 438 913 l 415 879 q 418 921 418 910 q 383 1015 418 985 q 289 1046 347 1046 q 172 1006 222 1046 q 107 879 121 967 l 88 879 z "},"ī":{"ha":256,"x_min":111,"x_max":467,"o":"m 228 738 l 261 738 l 144 0 l 111 0 l 228 738 m 117 981 l 467 981 l 463 960 l 113 960 l 117 981 z "},"į":{"ha":256,"x_min":-8,"x_max":308,"o":"m 261 889 q 250 894 254 889 q 247 906 246 899 l 261 992 q 281 1008 264 1008 l 296 1008 q 308 992 311 1008 l 294 906 q 276 889 293 889 l 261 889 m 228 738 l 261 738 l 144 0 l 111 0 l 228 738 m 119 -253 q 26 -226 61 -253 q -8 -151 -8 -199 q 24 -72 -8 -114 q 128 0 57 -29 l 144 0 q 51 -69 85 -28 q 18 -146 18 -111 q 50 -210 18 -187 q 146 -232 82 -232 l 153 -232 l 149 -251 q 119 -253 138 -253 z "},"ĩ":{"ha":256,"x_min":71,"x_max":563,"o":"m 228 738 l 261 738 l 144 0 l 111 0 l 228 738 m 71 918 q 121 1012 81 982 q 213 1042 161 1042 q 267 1028 242 1042 q 325 989 293 1015 q 378 953 356 965 q 428 940 401 940 q 503 967 472 940 q 543 1042 535 993 l 563 1042 q 517 952 554 986 q 422 918 481 918 q 373 931 396 918 q 318 968 350 943 q 258 1007 281 994 q 206 1019 235 1019 q 131 994 163 1019 q 90 918 99 969 l 71 918 z "},"j":{"ha":256,"x_min":58,"x_max":311,"o":"m 261 889 q 250 894 254 889 q 247 906 246 899 l 261 992 q 281 1008 264 1008 l 296 1008 q 308 992 311 1008 l 294 906 q 276 889 293 889 l 261 889 m 228 738 l 261 738 l 143 -6 q 81 -329 113 -196 l 58 -329 l 228 738 z "},"ȷ":{"ha":256,"x_min":58,"x_max":261,"o":"m 228 738 l 261 738 l 143 -6 q 81 -329 113 -196 l 58 -329 l 228 738 z "},"ĵ":{"ha":256,"x_min":58,"x_max":468,"o":"m 228 738 l 261 738 l 143 -6 q 81 -329 113 -196 l 58 -329 l 228 738 m 303 1057 l 331 1057 l 468 876 l 443 876 l 313 1036 l 115 876 l 90 876 l 303 1057 z "},"k":{"ha":690,"x_min":111,"x_max":671,"o":"m 279 1060 l 313 1060 l 210 413 q 476 488 367 413 q 638 738 585 563 l 671 738 q 401 413 599 489 l 635 0 l 596 0 l 368 403 q 286 388 332 393 q 206 382 240 382 l 144 0 l 111 0 l 279 1060 z "},"ķ":{"ha":690,"x_min":111,"x_max":671,"o":"m 279 1060 l 313 1060 l 210 413 q 476 488 367 413 q 638 738 585 563 l 671 738 q 401 413 599 489 l 635 0 l 596 0 l 368 403 q 286 388 332 393 q 206 382 240 382 l 144 0 l 111 0 l 279 1060 m 197 -251 l 242 -247 q 311 -231 286 -243 q 355 -184 336 -219 q 383 -76 374 -149 l 407 -76 q 378 -190 396 -150 q 326 -247 360 -229 q 232 -265 292 -265 l 194 -265 l 197 -251 z "},"ĸ":{"ha":690,"x_min":111,"x_max":671,"o":"m 228 738 l 261 738 l 206 385 q 472 466 363 385 q 638 738 581 547 l 671 738 q 558 509 628 592 q 397 385 489 426 l 635 0 l 596 0 l 364 375 q 283 359 328 364 q 200 354 238 354 l 144 0 l 111 0 l 228 738 z "},"l":{"ha":374,"x_min":138,"x_max":351,"o":"m 271 0 q 172 34 206 0 q 138 133 138 68 q 150 249 138 174 l 279 1060 l 313 1060 l 183 249 q 176 204 182 239 q 171 135 171 169 q 194 59 171 83 q 264 31 218 35 l 351 22 l 347 0 l 271 0 z "},"ĺ":{"ha":374,"x_min":138,"x_max":538,"o":"m 271 0 q 172 34 206 0 q 138 133 138 68 q 150 249 138 174 l 279 1060 l 313 1060 l 183 249 q 176 204 182 239 q 171 135 171 169 q 194 59 171 83 q 264 31 218 35 l 351 22 l 347 0 l 271 0 m 501 1339 l 538 1339 l 324 1154 l 304 1154 l 501 1339 z "},"ľ":{"ha":374,"x_min":138,"x_max":436,"o":"m 271 0 q 172 34 206 0 q 138 133 138 68 q 150 249 138 174 l 279 1060 l 313 1060 l 183 249 q 176 204 182 239 q 171 135 171 169 q 194 59 171 83 q 264 31 218 35 l 351 22 l 347 0 l 271 0 m 388 1006 l 401 1099 l 436 1099 l 422 1006 l 382 786 l 365 786 l 388 1006 z "},"ļ":{"ha":374,"x_min":97,"x_max":351,"o":"m 271 0 q 172 34 206 0 q 138 133 138 68 q 150 249 138 174 l 279 1060 l 313 1060 l 183 249 q 176 204 182 239 q 171 135 171 169 q 194 59 171 83 q 264 31 218 35 l 351 22 l 347 0 l 271 0 m 100 -251 l 144 -247 q 214 -231 189 -243 q 258 -184 239 -219 q 286 -76 276 -149 l 310 -76 q 281 -190 299 -150 q 228 -247 263 -229 q 135 -265 194 -265 l 97 -265 l 100 -251 z "},"ŀ":{"ha":374,"x_min":138,"x_max":458,"o":"m 271 0 q 172 34 206 0 q 138 133 138 68 q 150 249 138 174 l 279 1060 l 313 1060 l 183 249 q 176 204 182 239 q 171 135 171 169 q 194 59 171 83 q 264 31 218 35 l 351 22 l 347 0 l 271 0 m 421 575 q 410 580 414 575 q 407 592 406 585 l 410 608 q 429 625 413 625 l 446 625 q 458 608 461 625 l 456 592 q 438 575 454 575 l 421 575 z "},"ḷ":{"ha":374,"x_min":138,"x_max":351,"o":"m 271 0 q 172 34 206 0 q 138 133 138 68 q 150 249 138 174 l 279 1060 l 313 1060 l 183 249 q 176 204 182 239 q 171 135 171 169 q 194 59 171 83 q 264 31 218 35 l 351 22 l 347 0 l 271 0 m 188 -274 q 174 -260 174 -274 l 174 -257 l 188 -171 q 207 -154 189 -154 l 222 -154 q 236 -167 236 -154 l 236 -171 l 222 -257 q 203 -274 219 -274 l 188 -274 z "},"ḻ":{"ha":374,"x_min":46,"x_max":400,"o":"m 271 0 q 172 34 206 0 q 138 133 138 68 q 150 249 138 174 l 279 1060 l 313 1060 l 183 249 q 176 204 182 239 q 171 135 171 169 q 194 59 171 83 q 264 31 218 35 l 351 22 l 347 0 l 271 0 m 50 -214 l 400 -214 l 396 -235 l 46 -235 l 50 -214 z "},"ł":{"ha":374,"x_min":79,"x_max":406,"o":"m 183 249 q 176 204 182 239 q 171 135 171 169 q 194 59 171 83 q 264 31 218 35 l 351 22 l 347 0 l 271 0 q 172 34 206 0 q 138 133 138 68 q 150 249 138 174 l 199 554 l 79 515 l 83 544 l 203 582 l 279 1060 l 313 1060 l 239 596 l 406 646 l 401 617 l 233 565 l 183 249 z "},"m":{"ha":1310,"x_min":111,"x_max":1286,"o":"m 228 738 l 250 738 l 247 651 q 564 750 415 750 q 690 721 647 750 q 751 636 732 692 q 915 719 826 688 q 1090 750 1003 750 q 1286 568 1286 750 q 1281 514 1286 542 l 1199 0 l 1165 0 l 1247 514 q 1253 568 1253 542 q 1085 719 1253 719 q 921 694 994 719 q 756 614 847 668 q 758 574 758 589 q 751 499 758 535 l 672 0 l 639 0 l 718 499 q 725 569 725 547 q 558 719 725 719 q 407 699 474 719 q 244 629 340 678 l 144 0 l 111 0 l 228 738 z "},"ṁ":{"ha":1310,"x_min":111,"x_max":1286,"o":"m 228 738 l 250 738 l 247 651 q 564 750 415 750 q 690 721 647 750 q 751 636 732 692 q 915 719 826 688 q 1090 750 1003 750 q 1286 568 1286 750 q 1281 514 1286 542 l 1199 0 l 1165 0 l 1247 514 q 1253 568 1253 542 q 1085 719 1253 719 q 921 694 994 719 q 756 614 847 668 q 758 574 758 589 q 751 499 758 535 l 672 0 l 639 0 l 718 499 q 725 569 725 547 q 558 719 725 719 q 407 699 474 719 q 244 629 340 678 l 144 0 l 111 0 l 228 738 m 782 935 q 768 949 768 935 l 768 951 l 782 1038 q 801 1054 783 1054 l 817 1054 q 831 1042 831 1054 l 831 1038 l 817 951 q 797 935 814 935 l 782 935 z "},"ṃ":{"ha":1310,"x_min":111,"x_max":1286,"o":"m 228 738 l 250 738 l 247 651 q 564 750 415 750 q 690 721 647 750 q 751 636 732 692 q 915 719 826 688 q 1090 750 1003 750 q 1286 568 1286 750 q 1281 514 1286 542 l 1199 0 l 1165 0 l 1247 514 q 1253 568 1253 542 q 1085 719 1253 719 q 921 694 994 719 q 756 614 847 668 q 758 574 758 589 q 751 499 758 535 l 672 0 l 639 0 l 718 499 q 725 569 725 547 q 558 719 725 719 q 407 699 474 719 q 244 629 340 678 l 144 0 l 111 0 l 228 738 m 576 -274 q 563 -260 563 -274 l 563 -257 l 576 -171 q 596 -154 578 -154 l 611 -154 q 625 -167 625 -154 l 625 -171 l 611 -257 q 592 -274 608 -274 l 576 -274 z "},"n":{"ha":783,"x_min":111,"x_max":758,"o":"m 228 738 l 250 738 l 247 651 q 401 723 318 696 q 564 750 483 750 q 713 701 668 750 q 758 571 758 653 q 746 461 758 543 l 672 0 l 639 0 l 711 460 q 725 568 725 550 q 558 719 725 719 q 403 699 471 719 q 244 629 335 678 l 144 0 l 111 0 l 228 738 z "},"ń":{"ha":783,"x_min":111,"x_max":758,"o":"m 228 738 l 250 738 l 247 651 q 401 723 318 696 q 564 750 483 750 q 713 701 668 750 q 758 571 758 653 q 746 461 758 543 l 672 0 l 639 0 l 711 460 q 725 568 725 550 q 558 719 725 719 q 403 699 471 719 q 244 629 335 678 l 144 0 l 111 0 l 228 738 m 713 1061 l 749 1061 l 535 876 l 515 876 l 713 1061 z "},"ň":{"ha":783,"x_min":111,"x_max":775,"o":"m 228 738 l 250 738 l 247 651 q 401 723 318 696 q 564 750 483 750 q 713 701 668 750 q 758 571 758 653 q 746 461 758 543 l 672 0 l 639 0 l 711 460 q 725 568 725 550 q 558 719 725 719 q 403 699 471 719 q 244 629 335 678 l 144 0 l 111 0 l 228 738 m 397 1057 l 422 1057 l 551 897 l 750 1057 l 775 1057 l 563 876 l 535 876 l 397 1057 z "},"ņ":{"ha":783,"x_min":111,"x_max":758,"o":"m 228 738 l 250 738 l 247 651 q 401 723 318 696 q 564 750 483 750 q 713 701 668 750 q 758 571 758 653 q 746 461 758 543 l 672 0 l 639 0 l 711 460 q 725 568 725 550 q 558 719 725 719 q 403 699 471 719 q 244 629 335 678 l 144 0 l 111 0 l 228 738 m 242 -251 l 286 -247 q 356 -231 331 -243 q 399 -184 381 -219 q 428 -76 418 -149 l 451 -76 q 422 -190 440 -150 q 370 -247 404 -229 q 276 -265 336 -265 l 239 -265 l 242 -251 z "},"ṅ":{"ha":783,"x_min":111,"x_max":758,"o":"m 228 738 l 250 738 l 247 651 q 401 723 318 696 q 564 750 483 750 q 713 701 668 750 q 758 571 758 653 q 746 461 758 543 l 672 0 l 639 0 l 711 460 q 725 568 725 550 q 558 719 725 719 q 403 699 471 719 q 244 629 335 678 l 144 0 l 111 0 l 228 738 m 329 -274 q 315 -260 315 -274 l 315 -257 l 329 -171 q 349 -154 331 -154 l 364 -154 q 378 -167 378 -154 l 378 -171 l 364 -257 q 344 -274 361 -274 l 329 -274 z "},"ṇ":{"ha":783,"x_min":111,"x_max":758,"o":"m 228 738 l 250 738 l 247 651 q 401 723 318 696 q 564 750 483 750 q 713 701 668 750 q 758 571 758 653 q 746 461 758 543 l 672 0 l 639 0 l 711 460 q 725 568 725 550 q 558 719 725 719 q 403 699 471 719 q 244 629 335 678 l 144 0 l 111 0 l 228 738 m 329 -274 q 315 -260 315 -274 l 315 -257 l 329 -171 q 349 -154 331 -154 l 364 -154 q 378 -167 378 -154 l 378 -171 l 364 -257 q 344 -274 361 -274 l 329 -274 z "},"ŋ":{"ha":783,"x_min":111,"x_max":758,"o":"m 564 750 q 713 701 668 750 q 758 571 758 653 q 746 461 758 543 l 672 0 q 588 -210 653 -125 q 422 -329 524 -294 l 392 -329 q 560 -199 501 -278 q 639 0 619 -119 l 711 460 q 725 568 725 550 q 558 719 725 719 q 403 699 471 719 q 244 629 335 678 l 144 0 l 111 0 l 228 738 l 250 738 l 247 651 q 401 723 318 696 q 564 750 483 750 z "},"ṉ":{"ha":783,"x_min":111,"x_max":758,"o":"m 228 738 l 250 738 l 247 651 q 401 723 318 696 q 564 750 483 750 q 713 701 668 750 q 758 571 758 653 q 746 461 758 543 l 672 0 l 639 0 l 711 460 q 725 568 725 550 q 558 719 725 719 q 403 699 471 719 q 244 629 335 678 l 144 0 l 111 0 l 228 738 m 192 -214 l 542 -214 l 538 -235 l 188 -235 l 192 -214 z "},"ñ":{"ha":783,"x_min":111,"x_max":826,"o":"m 228 738 l 250 738 l 247 651 q 401 723 318 696 q 564 750 483 750 q 713 701 668 750 q 758 571 758 653 q 746 461 758 543 l 672 0 l 639 0 l 711 460 q 725 568 725 550 q 558 719 725 719 q 403 699 471 719 q 244 629 335 678 l 144 0 l 111 0 l 228 738 m 335 918 q 385 1012 344 982 q 476 1042 425 1042 q 531 1028 506 1042 q 589 989 557 1015 q 642 953 619 965 q 692 940 665 940 q 767 967 736 940 q 807 1042 799 993 l 826 1042 q 781 952 818 986 q 686 918 744 918 q 637 931 660 918 q 582 968 614 943 q 522 1007 544 994 q 469 1019 499 1019 q 394 994 426 1019 q 354 918 363 969 l 335 918 z "},"o":{"ha":778,"x_min":131,"x_max":764,"o":"m 388 -8 q 199 48 267 -8 q 131 236 131 104 q 142 368 131 290 q 208 597 165 515 q 322 713 251 679 q 507 746 393 746 q 703 683 642 746 q 764 494 764 621 q 750 349 764 439 q 686 135 728 213 q 573 25 644 58 q 388 -8 501 -8 m 394 22 q 554 49 493 22 q 655 147 615 75 q 717 358 694 219 q 729 494 729 438 q 677 665 729 614 q 500 715 625 715 q 336 686 397 715 q 237 581 275 657 q 175 358 199 504 q 164 236 164 283 q 223 67 164 113 q 394 22 282 22 z "},"ó":{"ha":778,"x_min":131,"x_max":764,"o":"m 388 -8 q 199 48 267 -8 q 131 236 131 104 q 142 368 131 290 q 208 597 165 515 q 322 713 251 679 q 507 746 393 746 q 703 683 642 746 q 764 494 764 621 q 750 349 764 439 q 686 135 728 213 q 573 25 644 58 q 388 -8 501 -8 m 394 22 q 554 49 493 22 q 655 147 615 75 q 717 358 694 219 q 729 494 729 438 q 677 665 729 614 q 500 715 625 715 q 336 686 397 715 q 237 581 275 657 q 175 358 199 504 q 164 236 164 283 q 223 67 164 113 q 394 22 282 22 m 701 1061 l 738 1061 l 524 876 l 504 876 l 701 1061 z "},"ŏ":{"ha":778,"x_min":131,"x_max":764,"o":"m 388 -8 q 199 48 267 -8 q 131 236 131 104 q 142 368 131 290 q 208 597 165 515 q 322 713 251 679 q 507 746 393 746 q 703 683 642 746 q 764 494 764 621 q 750 349 764 439 q 686 135 728 213 q 573 25 644 58 q 388 -8 501 -8 m 394 22 q 554 49 493 22 q 655 147 615 75 q 717 358 694 219 q 729 494 729 438 q 677 665 729 614 q 500 715 625 715 q 336 686 397 715 q 237 581 275 657 q 175 358 199 504 q 164 236 164 283 q 223 67 164 113 q 394 22 282 22 m 528 879 q 424 912 465 879 q 382 1019 382 944 q 385 1065 382 1032 l 404 1065 q 401 1024 401 1035 q 436 929 401 960 q 528 899 471 899 q 648 938 597 899 q 713 1065 699 978 l 732 1065 q 659 921 715 963 q 528 879 603 879 z "},"ô":{"ha":778,"x_min":131,"x_max":764,"o":"m 388 -8 q 199 48 267 -8 q 131 236 131 104 q 142 368 131 290 q 208 597 165 515 q 322 713 251 679 q 507 746 393 746 q 703 683 642 746 q 764 494 764 621 q 750 349 764 439 q 686 135 728 213 q 573 25 644 58 q 388 -8 501 -8 m 394 22 q 554 49 493 22 q 655 147 615 75 q 717 358 694 219 q 729 494 729 438 q 677 665 729 614 q 500 715 625 715 q 336 686 397 715 q 237 581 275 657 q 175 358 199 504 q 164 236 164 283 q 223 67 164 113 q 394 22 282 22 m 556 1057 l 583 1057 l 721 876 l 696 876 l 565 1036 l 368 876 l 343 876 l 556 1057 z "},"ố":{"ha":778,"x_min":131,"x_max":876,"o":"m 388 -8 q 199 48 267 -8 q 131 236 131 104 q 142 368 131 290 q 208 597 165 515 q 322 713 251 679 q 507 746 393 746 q 703 683 642 746 q 764 494 764 621 q 750 349 764 439 q 686 135 728 213 q 573 25 644 58 q 388 -8 501 -8 m 394 22 q 554 49 493 22 q 655 147 615 75 q 717 358 694 219 q 729 494 729 438 q 677 665 729 614 q 500 715 625 715 q 336 686 397 715 q 237 581 275 657 q 175 358 199 504 q 164 236 164 283 q 223 67 164 113 q 394 22 282 22 m 840 1158 l 876 1158 l 663 974 l 643 974 l 840 1158 m 522 1001 l 550 1001 l 697 876 l 672 876 l 533 981 l 344 876 l 319 876 l 522 1001 z "},"ộ":{"ha":778,"x_min":131,"x_max":764,"o":"m 388 -8 q 199 48 267 -8 q 131 236 131 104 q 142 368 131 290 q 208 597 165 515 q 322 713 251 679 q 507 746 393 746 q 703 683 642 746 q 764 494 764 621 q 750 349 764 439 q 686 135 728 213 q 573 25 644 58 q 388 -8 501 -8 m 394 22 q 554 49 493 22 q 655 147 615 75 q 717 358 694 219 q 729 494 729 438 q 677 665 729 614 q 500 715 625 715 q 336 686 397 715 q 237 581 275 657 q 175 358 199 504 q 164 236 164 283 q 223 67 164 113 q 394 22 282 22 m 556 1057 l 583 1057 l 721 876 l 696 876 l 565 1036 l 368 876 l 343 876 l 556 1057 m 318 -274 q 304 -260 304 -274 l 304 -257 l 318 -171 q 338 -154 319 -154 l 353 -154 q 367 -167 367 -154 l 367 -171 l 353 -257 q 333 -274 350 -274 l 318 -274 z "},"ồ":{"ha":778,"x_min":131,"x_max":764,"o":"m 388 -8 q 199 48 267 -8 q 131 236 131 104 q 142 368 131 290 q 208 597 165 515 q 322 713 251 679 q 507 746 393 746 q 703 683 642 746 q 764 494 764 621 q 750 349 764 439 q 686 135 728 213 q 573 25 644 58 q 388 -8 501 -8 m 394 22 q 554 49 493 22 q 655 147 615 75 q 717 358 694 219 q 729 494 729 438 q 677 665 729 614 q 500 715 625 715 q 336 686 397 715 q 237 581 275 657 q 175 358 199 504 q 164 236 164 283 q 223 67 164 113 q 394 22 282 22 m 244 1158 l 281 1158 l 419 974 l 400 974 l 244 1158 m 511 1001 l 539 1001 l 686 876 l 661 876 l 522 981 l 333 876 l 308 876 l 511 1001 z "},"ổ":{"ha":778,"x_min":131,"x_max":797,"o":"m 388 -8 q 199 48 267 -8 q 131 236 131 104 q 142 368 131 290 q 208 597 165 515 q 322 713 251 679 q 507 746 393 746 q 703 683 642 746 q 764 494 764 621 q 750 349 764 439 q 686 135 728 213 q 573 25 644 58 q 388 -8 501 -8 m 394 22 q 554 49 493 22 q 655 147 615 75 q 717 358 694 219 q 729 494 729 438 q 677 665 729 614 q 500 715 625 715 q 336 686 397 715 q 237 581 275 657 q 175 358 199 504 q 164 236 164 283 q 223 67 164 113 q 394 22 282 22 m 669 964 q 751 1009 726 981 q 775 1069 775 1038 q 708 1119 775 1119 q 654 1111 679 1119 l 657 1131 q 714 1139 682 1139 q 776 1120 756 1139 q 797 1069 797 1101 q 766 996 797 1029 q 667 944 735 963 l 669 964 m 528 1001 l 556 1001 l 703 876 l 678 876 l 539 981 l 350 876 l 325 876 l 528 1001 z "},"ỗ":{"ha":778,"x_min":131,"x_max":789,"o":"m 388 -8 q 199 48 267 -8 q 131 236 131 104 q 142 368 131 290 q 208 597 165 515 q 322 713 251 679 q 507 746 393 746 q 703 683 642 746 q 764 494 764 621 q 750 349 764 439 q 686 135 728 213 q 573 25 644 58 q 388 -8 501 -8 m 394 22 q 554 49 493 22 q 655 147 615 75 q 717 358 694 219 q 729 494 729 438 q 677 665 729 614 q 500 715 625 715 q 336 686 397 715 q 237 581 275 657 q 175 358 199 504 q 164 236 164 283 q 223 67 164 113 q 394 22 282 22 m 331 1071 q 374 1144 338 1121 q 453 1167 410 1167 q 508 1156 482 1167 q 567 1128 535 1146 q 620 1102 597 1111 q 668 1093 643 1093 q 735 1113 707 1093 q 769 1167 764 1132 l 789 1167 q 749 1097 782 1124 q 663 1071 715 1071 q 612 1080 636 1071 q 557 1107 588 1089 q 501 1135 525 1125 q 447 1144 476 1144 q 383 1126 411 1144 q 350 1071 356 1108 l 331 1071 m 529 1001 l 557 1001 l 703 876 l 678 876 l 539 981 l 350 876 l 325 876 l 529 1001 z "},"ȍ":{"ha":778,"x_min":131,"x_max":764,"o":"m 388 -8 q 199 48 267 -8 q 131 236 131 104 q 142 368 131 290 q 208 597 165 515 q 322 713 251 679 q 507 746 393 746 q 703 683 642 746 q 764 494 764 621 q 750 349 764 439 q 686 135 728 213 q 573 25 644 58 q 388 -8 501 -8 m 394 22 q 554 49 493 22 q 655 147 615 75 q 717 358 694 219 q 729 494 729 438 q 677 665 729 614 q 500 715 625 715 q 336 686 397 715 q 237 581 275 657 q 175 358 199 504 q 164 236 164 283 q 223 67 164 113 q 394 22 282 22 m 311 1061 l 347 1061 l 486 876 l 467 876 l 311 1061 m 478 1061 l 514 1061 l 653 876 l 633 876 l 478 1061 z "},"ö":{"ha":778,"x_min":131,"x_max":764,"o":"m 388 -8 q 199 48 267 -8 q 131 236 131 104 q 142 368 131 290 q 208 597 165 515 q 322 713 251 679 q 507 746 393 746 q 703 683 642 746 q 764 494 764 621 q 750 349 764 439 q 686 135 728 213 q 573 25 644 58 q 388 -8 501 -8 m 394 22 q 554 49 493 22 q 655 147 615 75 q 717 358 694 219 q 729 494 729 438 q 677 665 729 614 q 500 715 625 715 q 336 686 397 715 q 237 581 275 657 q 175 358 199 504 q 164 236 164 283 q 223 67 164 113 q 394 22 282 22 m 357 925 q 343 939 343 925 l 357 1028 q 378 1044 358 1044 l 393 1044 q 407 1032 407 1044 q 392 942 407 1038 q 372 925 389 925 l 357 925 m 646 925 q 632 939 632 925 l 646 1028 q 667 1044 647 1044 l 682 1044 q 696 1032 696 1044 q 681 942 696 1038 q 661 925 678 925 l 646 925 z "},"ȫ":{"ha":778,"x_min":131,"x_max":764,"o":"m 388 -8 q 199 48 267 -8 q 131 236 131 104 q 142 368 131 290 q 208 597 165 515 q 322 713 251 679 q 507 746 393 746 q 703 683 642 746 q 764 494 764 621 q 750 349 764 439 q 686 135 728 213 q 573 25 644 58 q 388 -8 501 -8 m 394 22 q 554 49 493 22 q 655 147 615 75 q 717 358 694 219 q 729 494 729 438 q 677 665 729 614 q 500 715 625 715 q 336 686 397 715 q 237 581 275 657 q 175 358 199 504 q 164 236 164 283 q 223 67 164 113 q 394 22 282 22 m 357 925 q 343 939 343 925 l 357 1028 q 378 1044 358 1044 l 393 1044 q 407 1032 407 1044 q 392 942 407 1038 q 372 925 389 925 l 357 925 m 646 925 q 632 939 632 925 l 646 1028 q 667 1044 647 1044 l 682 1044 q 696 1032 696 1044 q 681 942 696 1038 q 661 925 678 925 l 646 925 m 369 1175 l 719 1175 l 715 1154 l 365 1154 l 369 1175 z "},"ȱ":{"ha":778,"x_min":131,"x_max":764,"o":"m 388 -8 q 199 48 267 -8 q 131 236 131 104 q 142 368 131 290 q 208 597 165 515 q 322 713 251 679 q 507 746 393 746 q 703 683 642 746 q 764 494 764 621 q 750 349 764 439 q 686 135 728 213 q 573 25 644 58 q 388 -8 501 -8 m 394 22 q 554 49 493 22 q 655 147 615 75 q 717 358 694 219 q 729 494 729 438 q 677 665 729 614 q 500 715 625 715 q 336 686 397 715 q 237 581 275 657 q 175 358 199 504 q 164 236 164 283 q 223 67 164 113 q 394 22 282 22 m 524 935 q 510 949 510 935 l 510 951 l 524 1038 q 543 1054 525 1054 l 558 1054 q 572 1042 572 1054 l 572 1038 l 558 951 q 539 935 556 935 l 524 935 m 397 1175 l 747 1175 l 743 1154 l 393 1154 l 397 1175 z "},"ọ":{"ha":778,"x_min":131,"x_max":764,"o":"m 388 -8 q 199 48 267 -8 q 131 236 131 104 q 142 368 131 290 q 208 597 165 515 q 322 713 251 679 q 507 746 393 746 q 703 683 642 746 q 764 494 764 621 q 750 349 764 439 q 686 135 728 213 q 573 25 644 58 q 388 -8 501 -8 m 394 22 q 554 49 493 22 q 655 147 615 75 q 717 358 694 219 q 729 494 729 438 q 677 665 729 614 q 500 715 625 715 q 336 686 397 715 q 237 581 275 657 q 175 358 199 504 q 164 236 164 283 q 223 67 164 113 q 394 22 282 22 m 318 -274 q 304 -260 304 -274 l 304 -257 l 318 -171 q 338 -154 319 -154 l 353 -154 q 367 -167 367 -154 l 367 -171 l 353 -257 q 333 -274 350 -274 l 318 -274 z "},"ò":{"ha":778,"x_min":131,"x_max":764,"o":"m 388 -8 q 199 48 267 -8 q 131 236 131 104 q 142 368 131 290 q 208 597 165 515 q 322 713 251 679 q 507 746 393 746 q 703 683 642 746 q 764 494 764 621 q 750 349 764 439 q 686 135 728 213 q 573 25 644 58 q 388 -8 501 -8 m 394 22 q 554 49 493 22 q 655 147 615 75 q 717 358 694 219 q 729 494 729 438 q 677 665 729 614 q 500 715 625 715 q 336 686 397 715 q 237 581 275 657 q 175 358 199 504 q 164 236 164 283 q 223 67 164 113 q 394 22 282 22 m 394 1061 l 431 1061 l 569 876 l 550 876 l 394 1061 z "},"ỏ":{"ha":778,"x_min":131,"x_max":764,"o":"m 388 -8 q 199 48 267 -8 q 131 236 131 104 q 142 368 131 290 q 208 597 165 515 q 322 713 251 679 q 507 746 393 746 q 703 683 642 746 q 764 494 764 621 q 750 349 764 439 q 686 135 728 213 q 573 25 644 58 q 388 -8 501 -8 m 394 22 q 554 49 493 22 q 655 147 615 75 q 717 358 694 219 q 729 494 729 438 q 677 665 729 614 q 500 715 625 715 q 336 686 397 715 q 237 581 275 657 q 175 358 199 504 q 164 236 164 283 q 223 67 164 113 q 394 22 282 22 m 503 867 q 617 990 617 901 q 547 1050 617 1050 q 492 1042 519 1050 l 494 1061 q 554 1069 521 1069 q 639 992 639 1069 q 605 906 639 944 q 499 847 571 867 l 503 867 z "},"ơ":{"ha":803,"x_min":131,"x_max":893,"o":"m 893 899 q 828 756 876 796 q 718 715 781 715 l 658 715 q 738 631 713 686 q 764 494 764 576 q 750 349 764 439 q 686 135 728 213 q 573 25 644 58 q 388 -8 501 -8 q 199 48 267 -8 q 131 236 131 104 q 142 368 131 290 q 208 597 165 515 q 322 713 251 679 q 507 746 393 746 q 594 738 557 746 l 721 738 q 863 899 839 738 l 893 899 m 729 494 q 677 665 729 614 q 500 715 625 715 q 336 686 397 715 q 237 581 275 657 q 175 358 199 504 q 164 236 164 283 q 223 67 164 113 q 394 22 282 22 q 554 49 493 22 q 655 147 615 75 q 717 358 694 219 q 729 494 729 438 z "},"ớ":{"ha":803,"x_min":131,"x_max":893,"o":"m 893 899 q 828 756 876 796 q 718 715 781 715 l 658 715 q 738 631 713 686 q 764 494 764 576 q 750 349 764 439 q 686 135 728 213 q 573 25 644 58 q 388 -8 501 -8 q 199 48 267 -8 q 131 236 131 104 q 142 368 131 290 q 208 597 165 515 q 322 713 251 679 q 507 746 393 746 q 594 738 557 746 l 721 738 q 863 899 839 738 l 893 899 m 729 494 q 677 665 729 614 q 500 715 625 715 q 336 686 397 715 q 237 581 275 657 q 175 358 199 504 q 164 236 164 283 q 223 67 164 113 q 394 22 282 22 q 554 49 493 22 q 655 147 615 75 q 717 358 694 219 q 729 494 729 438 m 703 1061 l 739 1061 l 525 876 l 506 876 l 703 1061 z "},"ợ":{"ha":803,"x_min":131,"x_max":893,"o":"m 893 899 q 828 756 876 796 q 718 715 781 715 l 658 715 q 738 631 713 686 q 764 494 764 576 q 750 349 764 439 q 686 135 728 213 q 573 25 644 58 q 388 -8 501 -8 q 199 48 267 -8 q 131 236 131 104 q 142 368 131 290 q 208 597 165 515 q 322 713 251 679 q 507 746 393 746 q 594 738 557 746 l 721 738 q 863 899 839 738 l 893 899 m 729 494 q 677 665 729 614 q 500 715 625 715 q 336 686 397 715 q 237 581 275 657 q 175 358 199 504 q 164 236 164 283 q 223 67 164 113 q 394 22 282 22 q 554 49 493 22 q 655 147 615 75 q 717 358 694 219 q 729 494 729 438 m 328 -274 q 314 -260 314 -274 l 314 -257 l 328 -171 q 347 -154 329 -154 l 363 -154 q 376 -167 376 -154 l 376 -171 l 363 -257 q 343 -274 360 -274 l 328 -274 z "},"ờ":{"ha":803,"x_min":131,"x_max":893,"o":"m 893 899 q 828 756 876 796 q 718 715 781 715 l 658 715 q 738 631 713 686 q 764 494 764 576 q 750 349 764 439 q 686 135 728 213 q 573 25 644 58 q 388 -8 501 -8 q 199 48 267 -8 q 131 236 131 104 q 142 368 131 290 q 208 597 165 515 q 322 713 251 679 q 507 746 393 746 q 594 738 557 746 l 721 738 q 863 899 839 738 l 893 899 m 729 494 q 677 665 729 614 q 500 715 625 715 q 336 686 397 715 q 237 581 275 657 q 175 358 199 504 q 164 236 164 283 q 223 67 164 113 q 394 22 282 22 q 554 49 493 22 q 655 147 615 75 q 717 358 694 219 q 729 494 729 438 m 396 1061 l 432 1061 l 571 876 l 551 876 l 396 1061 z "},"ở":{"ha":803,"x_min":131,"x_max":893,"o":"m 893 899 q 828 756 876 796 q 718 715 781 715 l 658 715 q 738 631 713 686 q 764 494 764 576 q 750 349 764 439 q 686 135 728 213 q 573 25 644 58 q 388 -8 501 -8 q 199 48 267 -8 q 131 236 131 104 q 142 368 131 290 q 208 597 165 515 q 322 713 251 679 q 507 746 393 746 q 594 738 557 746 l 721 738 q 863 899 839 738 l 893 899 m 729 494 q 677 665 729 614 q 500 715 625 715 q 336 686 397 715 q 237 581 275 657 q 175 358 199 504 q 164 236 164 283 q 223 67 164 113 q 394 22 282 22 q 554 49 493 22 q 655 147 615 75 q 717 358 694 219 q 729 494 729 438 m 504 867 q 618 990 618 901 q 549 1050 618 1050 q 493 1042 521 1050 l 496 1061 q 556 1069 522 1069 q 640 992 640 1069 q 606 906 640 944 q 500 847 572 867 l 504 867 z "},"ỡ":{"ha":803,"x_min":131,"x_max":893,"o":"m 893 899 q 828 756 876 796 q 718 715 781 715 l 658 715 q 738 631 713 686 q 764 494 764 576 q 750 349 764 439 q 686 135 728 213 q 573 25 644 58 q 388 -8 501 -8 q 199 48 267 -8 q 131 236 131 104 q 142 368 131 290 q 208 597 165 515 q 322 713 251 679 q 507 746 393 746 q 594 738 557 746 l 721 738 q 863 899 839 738 l 893 899 m 729 494 q 677 665 729 614 q 500 715 625 715 q 336 686 397 715 q 237 581 275 657 q 175 358 199 504 q 164 236 164 283 q 223 67 164 113 q 394 22 282 22 q 554 49 493 22 q 655 147 615 75 q 717 358 694 219 q 729 494 729 438 m 325 918 q 375 1012 335 982 q 467 1042 415 1042 q 522 1028 496 1042 q 579 989 547 1015 q 633 953 610 965 q 682 940 656 940 q 758 967 726 940 q 797 1042 789 993 l 817 1042 q 772 952 808 986 q 676 918 735 918 q 627 931 650 918 q 572 968 604 943 q 512 1007 535 994 q 460 1019 489 1019 q 385 994 417 1019 q 344 918 353 969 l 325 918 z "},"ő":{"ha":778,"x_min":131,"x_max":819,"o":"m 388 -8 q 199 48 267 -8 q 131 236 131 104 q 142 368 131 290 q 208 597 165 515 q 322 713 251 679 q 507 746 393 746 q 703 683 642 746 q 764 494 764 621 q 750 349 764 439 q 686 135 728 213 q 573 25 644 58 q 388 -8 501 -8 m 394 22 q 554 49 493 22 q 655 147 615 75 q 717 358 694 219 q 729 494 729 438 q 677 665 729 614 q 500 715 625 715 q 336 686 397 715 q 237 581 275 657 q 175 358 199 504 q 164 236 164 283 q 223 67 164 113 q 394 22 282 22 m 590 1061 l 626 1061 l 413 876 l 393 876 l 590 1061 m 783 1061 l 819 1061 l 606 876 l 586 876 l 783 1061 z "},"ȏ":{"ha":778,"x_min":131,"x_max":764,"o":"m 388 -8 q 199 48 267 -8 q 131 236 131 104 q 142 368 131 290 q 208 597 165 515 q 322 713 251 679 q 507 746 393 746 q 703 683 642 746 q 764 494 764 621 q 750 349 764 439 q 686 135 728 213 q 573 25 644 58 q 388 -8 501 -8 m 394 22 q 554 49 493 22 q 655 147 615 75 q 717 358 694 219 q 729 494 729 438 q 677 665 729 614 q 500 715 625 715 q 336 686 397 715 q 237 581 275 657 q 175 358 199 504 q 164 236 164 283 q 223 67 164 113 q 394 22 282 22 m 340 879 q 413 1024 357 982 q 544 1065 469 1065 q 649 1033 607 1065 q 690 925 690 1000 q 688 879 690 913 l 668 879 q 671 921 671 910 q 635 1015 671 985 q 542 1046 600 1046 q 424 1006 475 1046 q 360 879 374 967 l 340 879 z "},"ō":{"ha":778,"x_min":131,"x_max":764,"o":"m 388 -8 q 199 48 267 -8 q 131 236 131 104 q 142 368 131 290 q 208 597 165 515 q 322 713 251 679 q 507 746 393 746 q 703 683 642 746 q 764 494 764 621 q 750 349 764 439 q 686 135 728 213 q 573 25 644 58 q 388 -8 501 -8 m 394 22 q 554 49 493 22 q 655 147 615 75 q 717 358 694 219 q 729 494 729 438 q 677 665 729 614 q 500 715 625 715 q 336 686 397 715 q 237 581 275 657 q 175 358 199 504 q 164 236 164 283 q 223 67 164 113 q 394 22 282 22 m 369 981 l 719 981 l 715 960 l 365 960 l 369 981 z "},"ṓ":{"ha":778,"x_min":131,"x_max":765,"o":"m 388 -8 q 199 48 267 -8 q 131 236 131 104 q 142 368 131 290 q 208 597 165 515 q 322 713 251 679 q 507 746 393 746 q 703 683 642 746 q 764 494 764 621 q 750 349 764 439 q 686 135 728 213 q 573 25 644 58 q 388 -8 501 -8 m 394 22 q 554 49 493 22 q 655 147 615 75 q 717 358 694 219 q 729 494 729 438 q 677 665 729 614 q 500 715 625 715 q 336 686 397 715 q 237 581 275 657 q 175 358 199 504 q 164 236 164 283 q 223 67 164 113 q 394 22 282 22 m 369 981 l 719 981 l 715 960 l 365 960 l 369 981 m 729 1228 l 765 1228 l 551 1043 l 532 1043 l 729 1228 z "},"ṑ":{"ha":778,"x_min":131,"x_max":764,"o":"m 388 -8 q 199 48 267 -8 q 131 236 131 104 q 142 368 131 290 q 208 597 165 515 q 322 713 251 679 q 507 746 393 746 q 703 683 642 746 q 764 494 764 621 q 750 349 764 439 q 686 135 728 213 q 573 25 644 58 q 388 -8 501 -8 m 394 22 q 554 49 493 22 q 655 147 615 75 q 717 358 694 219 q 729 494 729 438 q 677 665 729 614 q 500 715 625 715 q 336 686 397 715 q 237 581 275 657 q 175 358 199 504 q 164 236 164 283 q 223 67 164 113 q 394 22 282 22 m 369 981 l 719 981 l 715 960 l 365 960 l 369 981 m 394 1228 l 431 1228 l 569 1043 l 550 1043 l 394 1228 z "},"ǫ":{"ha":778,"x_min":131,"x_max":764,"o":"m 507 746 q 703 683 642 746 q 764 494 764 621 q 750 349 764 439 q 664 101 722 181 q 493 0 606 21 q 400 -69 433 -28 q 367 -146 367 -111 q 399 -210 367 -187 q 494 -232 431 -232 l 501 -232 l 497 -251 q 468 -253 486 -253 q 375 -226 410 -253 q 340 -151 340 -199 q 372 -74 340 -115 q 468 -4 403 -33 q 388 -8 431 -8 q 199 48 267 -8 q 131 236 131 104 q 142 368 131 290 q 208 597 165 515 q 322 713 251 679 q 507 746 393 746 m 717 358 q 729 494 729 438 q 677 665 729 614 q 500 715 625 715 q 336 686 397 715 q 237 581 275 657 q 175 358 199 504 q 164 236 164 283 q 223 67 164 113 q 394 22 282 22 q 554 49 493 22 q 655 147 615 75 q 717 358 694 219 z "},"ø":{"ha":778,"x_min":97,"x_max":797,"o":"m 724 657 q 764 494 764 599 q 750 349 764 439 q 686 135 728 213 q 573 25 644 58 q 388 -8 501 -8 q 185 63 247 -8 l 128 0 l 97 0 l 169 81 q 131 236 131 136 q 142 368 131 290 q 208 597 165 515 q 322 713 251 679 q 507 746 393 746 q 710 675 649 746 l 767 738 l 797 738 l 724 657 m 164 236 q 192 104 164 153 l 689 651 q 617 700 663 685 q 500 715 571 715 q 336 686 397 715 q 237 581 275 657 q 175 358 199 504 q 164 236 164 283 m 729 494 q 701 632 729 585 l 206 86 q 281 37 233 51 q 394 22 329 22 q 554 49 493 22 q 655 147 615 75 q 717 358 694 219 q 729 494 729 438 z "},"ǿ":{"ha":778,"x_min":97,"x_max":797,"o":"m 724 657 q 764 494 764 599 q 750 349 764 439 q 686 135 728 213 q 573 25 644 58 q 388 -8 501 -8 q 185 63 247 -8 l 128 0 l 97 0 l 169 81 q 131 236 131 136 q 142 368 131 290 q 208 597 165 515 q 322 713 251 679 q 507 746 393 746 q 710 675 649 746 l 767 738 l 797 738 l 724 657 m 164 236 q 192 104 164 153 l 689 651 q 617 700 663 685 q 500 715 571 715 q 336 686 397 715 q 237 581 275 657 q 175 358 199 504 q 164 236 164 283 m 729 494 q 701 632 729 585 l 206 86 q 281 37 233 51 q 394 22 329 22 q 554 49 493 22 q 655 147 615 75 q 717 358 694 219 q 729 494 729 438 m 661 1061 l 697 1061 l 483 876 l 464 876 l 661 1061 z "},"õ":{"ha":778,"x_min":131,"x_max":815,"o":"m 388 -8 q 199 48 267 -8 q 131 236 131 104 q 142 368 131 290 q 208 597 165 515 q 322 713 251 679 q 507 746 393 746 q 703 683 642 746 q 764 494 764 621 q 750 349 764 439 q 686 135 728 213 q 573 25 644 58 q 388 -8 501 -8 m 394 22 q 554 49 493 22 q 655 147 615 75 q 717 358 694 219 q 729 494 729 438 q 677 665 729 614 q 500 715 625 715 q 336 686 397 715 q 237 581 275 657 q 175 358 199 504 q 164 236 164 283 q 223 67 164 113 q 394 22 282 22 m 324 918 q 374 1012 333 982 q 465 1042 414 1042 q 520 1028 494 1042 q 578 989 546 1015 q 631 953 608 965 q 681 940 654 940 q 756 967 725 940 q 796 1042 788 993 l 815 1042 q 770 952 807 986 q 675 918 733 918 q 626 931 649 918 q 571 968 603 943 q 510 1007 533 994 q 458 1019 488 1019 q 383 994 415 1019 q 343 918 351 969 l 324 918 z "},"ṍ":{"ha":778,"x_min":131,"x_max":815,"o":"m 388 -8 q 199 48 267 -8 q 131 236 131 104 q 142 368 131 290 q 208 597 165 515 q 322 713 251 679 q 507 746 393 746 q 703 683 642 746 q 764 494 764 621 q 750 349 764 439 q 686 135 728 213 q 573 25 644 58 q 388 -8 501 -8 m 394 22 q 554 49 493 22 q 655 147 615 75 q 717 358 694 219 q 729 494 729 438 q 677 665 729 614 q 500 715 625 715 q 336 686 397 715 q 237 581 275 657 q 175 358 199 504 q 164 236 164 283 q 223 67 164 113 q 394 22 282 22 m 324 918 q 374 1012 333 982 q 465 1042 414 1042 q 520 1028 494 1042 q 578 989 546 1015 q 631 953 608 965 q 681 940 654 940 q 756 967 725 940 q 796 1042 788 993 l 815 1042 q 770 952 807 986 q 675 918 733 918 q 626 931 649 918 q 571 968 603 943 q 510 1007 533 994 q 458 1019 488 1019 q 383 994 415 1019 q 343 918 351 969 l 324 918 m 729 1283 l 765 1283 l 551 1099 l 532 1099 l 729 1283 z "},"ṏ":{"ha":778,"x_min":131,"x_max":815,"o":"m 388 -8 q 199 48 267 -8 q 131 236 131 104 q 142 368 131 290 q 208 597 165 515 q 322 713 251 679 q 507 746 393 746 q 703 683 642 746 q 764 494 764 621 q 750 349 764 439 q 686 135 728 213 q 573 25 644 58 q 388 -8 501 -8 m 394 22 q 554 49 493 22 q 655 147 615 75 q 717 358 694 219 q 729 494 729 438 q 677 665 729 614 q 500 715 625 715 q 336 686 397 715 q 237 581 275 657 q 175 358 199 504 q 164 236 164 283 q 223 67 164 113 q 394 22 282 22 m 324 918 q 374 1012 333 982 q 465 1042 414 1042 q 520 1028 494 1042 q 578 989 546 1015 q 631 953 608 965 q 681 940 654 940 q 756 967 725 940 q 796 1042 788 993 l 815 1042 q 770 952 807 986 q 675 918 733 918 q 626 931 649 918 q 571 968 603 943 q 510 1007 533 994 q 458 1019 488 1019 q 383 994 415 1019 q 343 918 351 969 l 324 918 m 413 1119 q 399 1133 399 1119 l 413 1222 q 433 1239 414 1239 l 449 1239 q 463 1226 463 1239 q 447 1136 463 1232 q 428 1119 444 1119 l 413 1119 m 701 1119 q 688 1133 688 1119 l 701 1222 q 722 1239 703 1239 l 738 1239 q 751 1226 751 1239 q 736 1136 751 1232 q 717 1119 733 1119 l 701 1119 z "}}}
